G04 #@! TF.GenerationSoftware,KiCad,Pcbnew,6.0.0-unknown-70ca025~86~ubuntu16.04.1*
G04 #@! TF.CreationDate,2019-07-17T04:15:05+00:00*
G04 #@! TF.ProjectId,usb-type-c-breakout,7573622d-7479-4706-952d-632d62726561,rev?*
G04 #@! TF.SameCoordinates,Original*
G04 #@! TF.FileFunction,Copper,L4,Bot*
G04 #@! TF.FilePolarity,Positive*
%FSLAX46Y46*%
G04 Gerber Fmt 4.6, Leading zero omitted, Abs format (unit mm)*
G04 Created by KiCad (PCBNEW 6.0.0-unknown-70ca025~86~ubuntu16.04.1) date 2019-07-17 04:15:05*
%MOMM*%
%LPD*%
G04 APERTURE LIST*
%ADD10C,0.100000*%
%ADD11C,0.875000*%
%ADD12O,0.950000X1.750000*%
%ADD13O,1.000000X1.500000*%
%ADD14O,1.150000X1.800000*%
%ADD15O,1.450000X2.000000*%
%ADD16R,0.450000X1.300000*%
%ADD17R,5.080000X1.500000*%
%ADD18R,1.000000X3.150000*%
%ADD19C,0.508000*%
%ADD20C,0.800000*%
%ADD21C,1.000000*%
%ADD22C,0.270000*%
G04 APERTURE END LIST*
D10*
G36*
X95514962Y-88541651D02*
G01*
X95585930Y-88589070D01*
X95633349Y-88660038D01*
X95650000Y-88743750D01*
X95650000Y-89256250D01*
X95633349Y-89339962D01*
X95585930Y-89410930D01*
X95514962Y-89458349D01*
X95431250Y-89475000D01*
X94993750Y-89475000D01*
X94910038Y-89458349D01*
X94839070Y-89410930D01*
X94791651Y-89339962D01*
X94775000Y-89256250D01*
X94775000Y-88743750D01*
X94791651Y-88660038D01*
X94839070Y-88589070D01*
X94910038Y-88541651D01*
X94993750Y-88525000D01*
X95431250Y-88525000D01*
X95514962Y-88541651D01*
X95514962Y-88541651D01*
G37*
D11*
X95212500Y-89000000D03*
D10*
G36*
X97089962Y-88541651D02*
G01*
X97160930Y-88589070D01*
X97208349Y-88660038D01*
X97225000Y-88743750D01*
X97225000Y-89256250D01*
X97208349Y-89339962D01*
X97160930Y-89410930D01*
X97089962Y-89458349D01*
X97006250Y-89475000D01*
X96568750Y-89475000D01*
X96485038Y-89458349D01*
X96414070Y-89410930D01*
X96366651Y-89339962D01*
X96350000Y-89256250D01*
X96350000Y-88743750D01*
X96366651Y-88660038D01*
X96414070Y-88589070D01*
X96485038Y-88541651D01*
X96568750Y-88525000D01*
X97006250Y-88525000D01*
X97089962Y-88541651D01*
X97089962Y-88541651D01*
G37*
D11*
X96787500Y-89000000D03*
D12*
X102300000Y-104050000D03*
X97700000Y-104050000D03*
X102300000Y-95950000D03*
X97700000Y-95950000D03*
D13*
X100000000Y-95950000D03*
D12*
X100000000Y-104050000D03*
D14*
X96125000Y-121950000D03*
X103875000Y-121950000D03*
D15*
X96275000Y-118150000D03*
X103725000Y-118150000D03*
D16*
X98700000Y-118100000D03*
X99350000Y-118100000D03*
X100000000Y-118100000D03*
X100650000Y-118100000D03*
X101300000Y-118100000D03*
D17*
X88000000Y-86250000D03*
X88000000Y-77750000D03*
X88000000Y-98250000D03*
X88000000Y-89750000D03*
X88000000Y-110250000D03*
X88000000Y-101750000D03*
X88000000Y-122250000D03*
X88000000Y-113750000D03*
X112000000Y-113750000D03*
X112000000Y-122250000D03*
X112000000Y-101750000D03*
X112000000Y-110250000D03*
X112000000Y-89750000D03*
X112000000Y-98250000D03*
X112000000Y-77750000D03*
X112000000Y-86250000D03*
D18*
X96190000Y-79475000D03*
X96190000Y-84525000D03*
X98730000Y-79475000D03*
X98730000Y-84525000D03*
X101270000Y-79475000D03*
X101270000Y-84525000D03*
X103810000Y-79475000D03*
X103810000Y-84525000D03*
D19*
X110500000Y-122250000D03*
X112000000Y-122250000D03*
X113500000Y-122250000D03*
X113500000Y-113750000D03*
X112000000Y-113750000D03*
X110500000Y-113750000D03*
X110500000Y-110250000D03*
X112000000Y-110250000D03*
X113500000Y-110250000D03*
X113500000Y-101750000D03*
X112000000Y-101750000D03*
X110500000Y-101750000D03*
X113500000Y-98250000D03*
X112000000Y-98250000D03*
X110500000Y-98250000D03*
X110500000Y-89750000D03*
X112000000Y-89750000D03*
X113500000Y-89750000D03*
X113500000Y-86250000D03*
X110500000Y-86250000D03*
X112000000Y-86250000D03*
X113500000Y-77750000D03*
X112000000Y-77750000D03*
X110500000Y-77750000D03*
X86500000Y-122250000D03*
X89500000Y-122250000D03*
X88000000Y-122250000D03*
X86500000Y-113750000D03*
X88000000Y-113750000D03*
X89500000Y-113750000D03*
X89500000Y-110250000D03*
X88000000Y-110250000D03*
X86500000Y-110250000D03*
X86500000Y-101750000D03*
X88000000Y-101750000D03*
X89500000Y-101750000D03*
X89500000Y-98250000D03*
X88000000Y-98250000D03*
X86500000Y-98250000D03*
X86500000Y-89750000D03*
X88000000Y-89750000D03*
X89500000Y-89750000D03*
X89500000Y-86250000D03*
X88000000Y-86250000D03*
X86500000Y-86250000D03*
X89500000Y-77750000D03*
X88000000Y-77750000D03*
X86500000Y-77750000D03*
X104000000Y-103000000D03*
X96000000Y-97000000D03*
X96000000Y-103000000D03*
X104000000Y-97000000D03*
D20*
X100000000Y-120000000D03*
X98750000Y-82000000D03*
D19*
X98250000Y-116750000D03*
X92000000Y-98500000D03*
X92750000Y-99750000D03*
X109000000Y-77750000D03*
X109000000Y-86250000D03*
X109000000Y-89750000D03*
X109000000Y-98250000D03*
X109000000Y-101750000D03*
X109000000Y-110250000D03*
X109000000Y-113750000D03*
X109000000Y-122250000D03*
X91000000Y-122250000D03*
X91000000Y-113750000D03*
X91000000Y-110250000D03*
X91000000Y-101750000D03*
X91000000Y-98250000D03*
X91000000Y-89750000D03*
X91000000Y-86250000D03*
X91000000Y-77750000D03*
X106500000Y-101500000D03*
X108000000Y-100500000D03*
X108000000Y-99500000D03*
X106500000Y-98500000D03*
X93500000Y-100500000D03*
X93500000Y-98500000D03*
X105500000Y-101500000D03*
X105500000Y-98500000D03*
X94500000Y-101500000D03*
X94500000Y-98500000D03*
X100000000Y-101250000D03*
X100000000Y-98750000D03*
D21*
X95000000Y-97699078D02*
X96050922Y-98750000D01*
X98730000Y-88980000D02*
X98730000Y-90020000D01*
X98730000Y-90020000D02*
X95000000Y-93750000D01*
X96050922Y-98750000D02*
X96449078Y-98750000D01*
X95000000Y-93750000D02*
X95000000Y-97699078D01*
X96449078Y-98750000D02*
X100000000Y-98750000D01*
X105000000Y-102500000D02*
X105000000Y-113500000D01*
X105000000Y-113500000D02*
X104000000Y-114500000D01*
X103750000Y-101250000D02*
X105000000Y-102500000D01*
X100000000Y-101250000D02*
X103750000Y-101250000D01*
X104000000Y-114500000D02*
X102000000Y-116500000D01*
D22*
X102500000Y-87750000D02*
X105000000Y-90250000D01*
X102500000Y-81780000D02*
X102500000Y-87750000D01*
X101270000Y-80550000D02*
X102500000Y-81780000D01*
X105000000Y-90250000D02*
X105000000Y-97000000D01*
X101270000Y-79475000D02*
X101270000Y-80550000D01*
X105000000Y-97000000D02*
X106500000Y-98500000D01*
X107500000Y-84240000D02*
X107500000Y-95500000D01*
X103810000Y-79475000D02*
X103810000Y-80550000D01*
X103810000Y-80550000D02*
X107500000Y-84240000D01*
X108000000Y-96000000D02*
X107500000Y-95500000D01*
X108000000Y-99500000D02*
X108000000Y-96000000D01*
X106250000Y-96500000D02*
X107250000Y-97500000D01*
X107250000Y-97500000D02*
X107250000Y-99750000D01*
X106250000Y-88040000D02*
X106250000Y-96500000D01*
X103810000Y-84525000D02*
X103810000Y-85600000D01*
X103810000Y-85600000D02*
X106250000Y-88040000D01*
X107485999Y-99985999D02*
X107250000Y-99750000D01*
X108000000Y-100500000D02*
X107485999Y-99985999D01*
X101270000Y-84525000D02*
X101270000Y-89270000D01*
X101270000Y-89270000D02*
X103485999Y-91485999D01*
X103485999Y-91485999D02*
X103485999Y-98485999D01*
X103485999Y-98485999D02*
X106500000Y-101500000D01*
X98700000Y-118100000D02*
X98700000Y-119450000D01*
X99250000Y-120000000D02*
X100000000Y-120000000D01*
X99250000Y-120000000D02*
X98700000Y-119450000D01*
D21*
X98730000Y-79475000D02*
X98730000Y-81980000D01*
X98730000Y-81980000D02*
X98750000Y-82000000D01*
D22*
X96190000Y-84525000D02*
X96190000Y-88022500D01*
X96190000Y-88022500D02*
X93500000Y-90712500D01*
X93500000Y-98140790D02*
X93500000Y-98500000D01*
X93500000Y-90712500D02*
X93500000Y-98140790D01*
D21*
X98730000Y-84525000D02*
X98730000Y-88980000D01*
D22*
X98710000Y-89000000D02*
X98730000Y-88980000D01*
X96787500Y-89000000D02*
X98710000Y-89000000D01*
D21*
X100000000Y-101250000D02*
X100000000Y-98750000D01*
D22*
X101750000Y-116750000D02*
X102000000Y-116500000D01*
X101730000Y-116750000D02*
X101750000Y-116750000D01*
X93250000Y-108750000D02*
X100650000Y-116150000D01*
X93246001Y-100753999D02*
X93250000Y-100757998D01*
X93250000Y-100757998D02*
X93250000Y-108750000D01*
X93500000Y-100500000D02*
X93246001Y-100753999D01*
X100650000Y-116150000D02*
X100650000Y-118100000D01*
X92750000Y-109000000D02*
X100000000Y-116250000D01*
X100000000Y-116250000D02*
X100000000Y-118100000D01*
X92750000Y-99750000D02*
X92750000Y-109000000D01*
X101300000Y-118100000D02*
X101300000Y-117180000D01*
X101300000Y-117180000D02*
X101730000Y-116750000D01*
X98700000Y-118100000D02*
X98700000Y-117200000D01*
X98700000Y-117200000D02*
X98250000Y-116750000D01*
X92000000Y-98500000D02*
X92000000Y-82895000D01*
X92000000Y-82895000D02*
X95420000Y-79475000D01*
X95420000Y-79475000D02*
X96190000Y-79475000D01*
X112000000Y-77750000D02*
X109000000Y-77750000D01*
X112000000Y-86250000D02*
X109000000Y-86250000D01*
X109000000Y-89750000D02*
X112000000Y-89750000D01*
X112000000Y-98250000D02*
X109000000Y-98250000D01*
X109000000Y-101750000D02*
X112000000Y-101750000D01*
X112000000Y-110250000D02*
X109000000Y-110250000D01*
X109000000Y-113750000D02*
X112000000Y-113750000D01*
X112000000Y-122250000D02*
X109000000Y-122250000D01*
X91000000Y-122250000D02*
X88000000Y-122250000D01*
X88000000Y-113750000D02*
X91000000Y-113750000D01*
X91000000Y-110250000D02*
X88000000Y-110250000D01*
X88000000Y-101750000D02*
X91000000Y-101750000D01*
X91000000Y-98250000D02*
X88000000Y-98250000D01*
X88000000Y-89750000D02*
X91000000Y-89750000D01*
X91000000Y-86250000D02*
X88000000Y-86250000D01*
X88000000Y-77750000D02*
X91000000Y-77750000D01*
M02*
