G04 #@! TF.GenerationSoftware,KiCad,Pcbnew,6.0.0-unknown-70ca025~86~ubuntu16.04.1*
G04 #@! TF.CreationDate,2019-07-17T04:15:05+00:00*
G04 #@! TF.ProjectId,usb-type-c-breakout,7573622d-7479-4706-952d-632d62726561,rev?*
G04 #@! TF.SameCoordinates,Original*
G04 #@! TF.FileFunction,Paste,Bot*
G04 #@! TF.FilePolarity,Positive*
%FSLAX46Y46*%
G04 Gerber Fmt 4.6, Leading zero omitted, Abs format (unit mm)*
G04 Created by KiCad (PCBNEW 6.0.0-unknown-70ca025~86~ubuntu16.04.1) date 2019-07-17 04:15:05*
%MOMM*%
%LPD*%
G04 APERTURE LIST*
%ADD10C,0.100000*%
%ADD11C,0.875000*%
%ADD12R,0.450000X1.300000*%
%ADD13R,5.080000X1.500000*%
%ADD14R,1.000000X3.150000*%
G04 APERTURE END LIST*
D10*
G36*
X95514962Y-88541651D02*
G01*
X95585930Y-88589070D01*
X95633349Y-88660038D01*
X95650000Y-88743750D01*
X95650000Y-89256250D01*
X95633349Y-89339962D01*
X95585930Y-89410930D01*
X95514962Y-89458349D01*
X95431250Y-89475000D01*
X94993750Y-89475000D01*
X94910038Y-89458349D01*
X94839070Y-89410930D01*
X94791651Y-89339962D01*
X94775000Y-89256250D01*
X94775000Y-88743750D01*
X94791651Y-88660038D01*
X94839070Y-88589070D01*
X94910038Y-88541651D01*
X94993750Y-88525000D01*
X95431250Y-88525000D01*
X95514962Y-88541651D01*
X95514962Y-88541651D01*
G37*
D11*
X95212500Y-89000000D03*
D10*
G36*
X97089962Y-88541651D02*
G01*
X97160930Y-88589070D01*
X97208349Y-88660038D01*
X97225000Y-88743750D01*
X97225000Y-89256250D01*
X97208349Y-89339962D01*
X97160930Y-89410930D01*
X97089962Y-89458349D01*
X97006250Y-89475000D01*
X96568750Y-89475000D01*
X96485038Y-89458349D01*
X96414070Y-89410930D01*
X96366651Y-89339962D01*
X96350000Y-89256250D01*
X96350000Y-88743750D01*
X96366651Y-88660038D01*
X96414070Y-88589070D01*
X96485038Y-88541651D01*
X96568750Y-88525000D01*
X97006250Y-88525000D01*
X97089962Y-88541651D01*
X97089962Y-88541651D01*
G37*
D11*
X96787500Y-89000000D03*
D12*
X98700000Y-118100000D03*
X99350000Y-118100000D03*
X100000000Y-118100000D03*
X100650000Y-118100000D03*
X101300000Y-118100000D03*
D13*
X88000000Y-86250000D03*
X88000000Y-77750000D03*
X88000000Y-98250000D03*
X88000000Y-89750000D03*
X88000000Y-110250000D03*
X88000000Y-101750000D03*
X88000000Y-122250000D03*
X88000000Y-113750000D03*
X112000000Y-113750000D03*
X112000000Y-122250000D03*
X112000000Y-101750000D03*
X112000000Y-110250000D03*
X112000000Y-89750000D03*
X112000000Y-98250000D03*
X112000000Y-77750000D03*
X112000000Y-86250000D03*
D14*
X96190000Y-79475000D03*
X96190000Y-84525000D03*
X98730000Y-79475000D03*
X98730000Y-84525000D03*
X101270000Y-79475000D03*
X101270000Y-84525000D03*
X103810000Y-79475000D03*
X103810000Y-84525000D03*
M02*
