G04 #@! TF.GenerationSoftware,KiCad,Pcbnew,6.0.0-unknown-70ca025~86~ubuntu16.04.1*
G04 #@! TF.CreationDate,2019-07-17T04:15:05+00:00*
G04 #@! TF.ProjectId,usb-type-c-breakout,7573622d-7479-4706-952d-632d62726561,rev?*
G04 #@! TF.SameCoordinates,Original*
G04 #@! TF.FileFunction,Paste,Top*
G04 #@! TF.FilePolarity,Positive*
%FSLAX46Y46*%
G04 Gerber Fmt 4.6, Leading zero omitted, Abs format (unit mm)*
G04 Created by KiCad (PCBNEW 6.0.0-unknown-70ca025~86~ubuntu16.04.1) date 2019-07-17 04:15:05*
%MOMM*%
%LPD*%
G04 APERTURE LIST*
%ADD10R,1.400000X0.270000*%
%ADD11O,5.080000X1.500000*%
%ADD12R,5.080000X1.500000*%
G04 APERTURE END LIST*
D10*
X97700000Y-102750000D03*
X102300000Y-102750000D03*
X97700000Y-102250000D03*
X102300000Y-102250000D03*
X97700000Y-101750000D03*
X102300000Y-101750000D03*
X97700000Y-101250000D03*
X102300000Y-101250000D03*
X97700000Y-100750000D03*
X102300000Y-100750000D03*
X97700000Y-100250000D03*
X102300000Y-100250000D03*
X97700000Y-99750000D03*
X102300000Y-99750000D03*
X97700000Y-99250000D03*
X102300000Y-99250000D03*
X97700000Y-98750000D03*
X102300000Y-98750000D03*
X97700000Y-98250000D03*
X102300000Y-98250000D03*
X97700000Y-97750000D03*
X102300000Y-97750000D03*
X97700000Y-97250000D03*
X102300000Y-97250000D03*
D11*
X88000000Y-82000000D03*
D12*
X88000000Y-86250000D03*
X88000000Y-77750000D03*
D11*
X88000000Y-94000000D03*
D12*
X88000000Y-98250000D03*
X88000000Y-89750000D03*
D11*
X88000000Y-106000000D03*
D12*
X88000000Y-110250000D03*
X88000000Y-101750000D03*
D11*
X88000000Y-118000000D03*
D12*
X88000000Y-122250000D03*
X88000000Y-113750000D03*
D11*
X112000000Y-118000000D03*
D12*
X112000000Y-113750000D03*
X112000000Y-122250000D03*
D11*
X112000000Y-106000000D03*
D12*
X112000000Y-101750000D03*
X112000000Y-110250000D03*
D11*
X112000000Y-94000000D03*
D12*
X112000000Y-89750000D03*
X112000000Y-98250000D03*
D11*
X112000000Y-82000000D03*
D12*
X112000000Y-77750000D03*
X112000000Y-86250000D03*
M02*
