G04 #@! TF.GenerationSoftware,KiCad,Pcbnew,6.0.0-unknown-70ca025~86~ubuntu16.04.1*
G04 #@! TF.CreationDate,2019-07-17T04:15:05+00:00*
G04 #@! TF.ProjectId,usb-type-c-breakout,7573622d-7479-4706-952d-632d62726561,rev?*
G04 #@! TF.SameCoordinates,Original*
G04 #@! TF.FileFunction,Copper,L1,Top*
G04 #@! TF.FilePolarity,Positive*
%FSLAX46Y46*%
G04 Gerber Fmt 4.6, Leading zero omitted, Abs format (unit mm)*
G04 Created by KiCad (PCBNEW 6.0.0-unknown-70ca025~86~ubuntu16.04.1) date 2019-07-17 04:15:05*
%MOMM*%
%LPD*%
G04 APERTURE LIST*
%ADD10C,0.300000*%
%ADD11C,0.100000*%
%ADD12R,1.400000X0.270000*%
%ADD13O,0.950000X1.750000*%
%ADD14O,1.000000X1.500000*%
%ADD15O,1.150000X1.800000*%
%ADD16O,1.450000X2.000000*%
%ADD17O,5.080000X1.500000*%
%ADD18R,5.080000X1.500000*%
%ADD19C,0.508000*%
%ADD20C,0.800000*%
%ADD21C,0.270000*%
%ADD22C,0.300000*%
G04 APERTURE END LIST*
D10*
X108500000Y-82000000D03*
D11*
G36*
X107409161Y-83125951D02*
G01*
X107358356Y-83063657D01*
X107345504Y-82984307D01*
X107365929Y-82783229D01*
X107371574Y-82768368D01*
X107372240Y-82752484D01*
X107432680Y-82559620D01*
X107441198Y-82546198D01*
X107445044Y-82530772D01*
X107543030Y-82354000D01*
X107554074Y-82342564D01*
X107560943Y-82328227D01*
X107692472Y-82174769D01*
X107705589Y-82165788D01*
X107715201Y-82153124D01*
X107874902Y-82029248D01*
X107889558Y-82023087D01*
X107901519Y-82012616D01*
X108082866Y-81923382D01*
X108098459Y-81920294D01*
X108112284Y-81912441D01*
X108307870Y-81861495D01*
X108321884Y-81861593D01*
X108335100Y-81856939D01*
X108488086Y-81845167D01*
X108513912Y-81850000D01*
X108540192Y-81850000D01*
X108552795Y-81857276D01*
X108567098Y-81859953D01*
X108587051Y-81877054D01*
X108609807Y-81890193D01*
X108617083Y-81902795D01*
X108628133Y-81912266D01*
X108636861Y-81937051D01*
X108650000Y-81959808D01*
X108650000Y-81974362D01*
X108654833Y-81988086D01*
X108650000Y-82013912D01*
X108650000Y-82040192D01*
X108642724Y-82052794D01*
X108640047Y-82067099D01*
X108622944Y-82087053D01*
X108609807Y-82109807D01*
X108597205Y-82117083D01*
X108587734Y-82128133D01*
X108562949Y-82136861D01*
X108540192Y-82150000D01*
X108525638Y-82150000D01*
X108511914Y-82154833D01*
X108372750Y-82165541D01*
X108205834Y-82209020D01*
X108052797Y-82284324D01*
X107918022Y-82388865D01*
X107807025Y-82518367D01*
X107724332Y-82667551D01*
X107673327Y-82830310D01*
X107654496Y-83015694D01*
X107625951Y-83090839D01*
X107563657Y-83141644D01*
X107484307Y-83154496D01*
X107409161Y-83125951D01*
X107409161Y-83125951D01*
G37*
D10*
X107500000Y-83000000D03*
X106500000Y-87750000D03*
D11*
G36*
X107590839Y-86624049D02*
G01*
X107641644Y-86686343D01*
X107654496Y-86765693D01*
X107634071Y-86966771D01*
X107628426Y-86981632D01*
X107627760Y-86997516D01*
X107567320Y-87190380D01*
X107558802Y-87203802D01*
X107554956Y-87219228D01*
X107456970Y-87396000D01*
X107445926Y-87407436D01*
X107439057Y-87421773D01*
X107307528Y-87575231D01*
X107294411Y-87584212D01*
X107284799Y-87596876D01*
X107125098Y-87720752D01*
X107110442Y-87726913D01*
X107098481Y-87737384D01*
X106917134Y-87826618D01*
X106901541Y-87829706D01*
X106887716Y-87837559D01*
X106692130Y-87888505D01*
X106678116Y-87888407D01*
X106664900Y-87893061D01*
X106511914Y-87904833D01*
X106486088Y-87900000D01*
X106459808Y-87900000D01*
X106447205Y-87892724D01*
X106432902Y-87890047D01*
X106412949Y-87872946D01*
X106390193Y-87859807D01*
X106382917Y-87847205D01*
X106371867Y-87837734D01*
X106363139Y-87812949D01*
X106350000Y-87790192D01*
X106350000Y-87775638D01*
X106345167Y-87761914D01*
X106350000Y-87736088D01*
X106350000Y-87709808D01*
X106357276Y-87697206D01*
X106359953Y-87682901D01*
X106377056Y-87662947D01*
X106390193Y-87640193D01*
X106402795Y-87632917D01*
X106412266Y-87621867D01*
X106437051Y-87613139D01*
X106459808Y-87600000D01*
X106474362Y-87600000D01*
X106488086Y-87595167D01*
X106627250Y-87584459D01*
X106794166Y-87540980D01*
X106947203Y-87465676D01*
X107081978Y-87361135D01*
X107192975Y-87231633D01*
X107275668Y-87082449D01*
X107326673Y-86919690D01*
X107345504Y-86734306D01*
X107374049Y-86659161D01*
X107436343Y-86608356D01*
X107515693Y-86595504D01*
X107590839Y-86624049D01*
X107590839Y-86624049D01*
G37*
D10*
X107500000Y-86750000D03*
X107500000Y-89250000D03*
D11*
G36*
X106374049Y-88159161D02*
G01*
X106436343Y-88108356D01*
X106515693Y-88095504D01*
X106716771Y-88115929D01*
X106731632Y-88121574D01*
X106747516Y-88122240D01*
X106940380Y-88182680D01*
X106953802Y-88191198D01*
X106969228Y-88195044D01*
X107146000Y-88293030D01*
X107157436Y-88304074D01*
X107171773Y-88310943D01*
X107325231Y-88442472D01*
X107334212Y-88455589D01*
X107346876Y-88465201D01*
X107470752Y-88624902D01*
X107476913Y-88639558D01*
X107487384Y-88651519D01*
X107576618Y-88832866D01*
X107579706Y-88848459D01*
X107587559Y-88862284D01*
X107638505Y-89057870D01*
X107638407Y-89071884D01*
X107643061Y-89085100D01*
X107654833Y-89238086D01*
X107650000Y-89263912D01*
X107650000Y-89290192D01*
X107642724Y-89302795D01*
X107640047Y-89317098D01*
X107622946Y-89337051D01*
X107609807Y-89359807D01*
X107597205Y-89367083D01*
X107587734Y-89378133D01*
X107562949Y-89386861D01*
X107540192Y-89400000D01*
X107525638Y-89400000D01*
X107511914Y-89404833D01*
X107486088Y-89400000D01*
X107459808Y-89400000D01*
X107447206Y-89392724D01*
X107432901Y-89390047D01*
X107412947Y-89372944D01*
X107390193Y-89359807D01*
X107382917Y-89347205D01*
X107371867Y-89337734D01*
X107363139Y-89312949D01*
X107350000Y-89290192D01*
X107350000Y-89275638D01*
X107345167Y-89261914D01*
X107334459Y-89122750D01*
X107290980Y-88955834D01*
X107215676Y-88802797D01*
X107111135Y-88668022D01*
X106981633Y-88557025D01*
X106832449Y-88474332D01*
X106669690Y-88423327D01*
X106484306Y-88404496D01*
X106409161Y-88375951D01*
X106358356Y-88313657D01*
X106345504Y-88234307D01*
X106374049Y-88159161D01*
X106374049Y-88159161D01*
G37*
D10*
X106500000Y-88250000D03*
X107500000Y-93000000D03*
D11*
G36*
X108625951Y-94090839D02*
G01*
X108563657Y-94141644D01*
X108484307Y-94154496D01*
X108283229Y-94134071D01*
X108268368Y-94128426D01*
X108252484Y-94127760D01*
X108059620Y-94067320D01*
X108046198Y-94058802D01*
X108030772Y-94054956D01*
X107854000Y-93956970D01*
X107842564Y-93945926D01*
X107828227Y-93939057D01*
X107674769Y-93807528D01*
X107665788Y-93794411D01*
X107653124Y-93784799D01*
X107529248Y-93625098D01*
X107523087Y-93610442D01*
X107512616Y-93598481D01*
X107423382Y-93417134D01*
X107420294Y-93401541D01*
X107412441Y-93387716D01*
X107361495Y-93192130D01*
X107361593Y-93178116D01*
X107356939Y-93164900D01*
X107345167Y-93011914D01*
X107350000Y-92986088D01*
X107350000Y-92959808D01*
X107357276Y-92947205D01*
X107359953Y-92932902D01*
X107377054Y-92912949D01*
X107390193Y-92890193D01*
X107402795Y-92882917D01*
X107412266Y-92871867D01*
X107437051Y-92863139D01*
X107459808Y-92850000D01*
X107474362Y-92850000D01*
X107488086Y-92845167D01*
X107513912Y-92850000D01*
X107540192Y-92850000D01*
X107552794Y-92857276D01*
X107567099Y-92859953D01*
X107587053Y-92877056D01*
X107609807Y-92890193D01*
X107617083Y-92902795D01*
X107628133Y-92912266D01*
X107636861Y-92937051D01*
X107650000Y-92959808D01*
X107650000Y-92974362D01*
X107654833Y-92988086D01*
X107665541Y-93127250D01*
X107709020Y-93294166D01*
X107784324Y-93447203D01*
X107888865Y-93581978D01*
X108018367Y-93692975D01*
X108167551Y-93775668D01*
X108330310Y-93826673D01*
X108515694Y-93845504D01*
X108590839Y-93874049D01*
X108641644Y-93936343D01*
X108654496Y-94015693D01*
X108625951Y-94090839D01*
X108625951Y-94090839D01*
G37*
D10*
X108500000Y-94000000D03*
X108500000Y-106000000D03*
D11*
G36*
X107409161Y-107125951D02*
G01*
X107358356Y-107063657D01*
X107345504Y-106984307D01*
X107365929Y-106783229D01*
X107371574Y-106768368D01*
X107372240Y-106752484D01*
X107432680Y-106559620D01*
X107441198Y-106546198D01*
X107445044Y-106530772D01*
X107543030Y-106354000D01*
X107554074Y-106342564D01*
X107560943Y-106328227D01*
X107692472Y-106174769D01*
X107705589Y-106165788D01*
X107715201Y-106153124D01*
X107874902Y-106029248D01*
X107889558Y-106023087D01*
X107901519Y-106012616D01*
X108082866Y-105923382D01*
X108098459Y-105920294D01*
X108112284Y-105912441D01*
X108307870Y-105861495D01*
X108321884Y-105861593D01*
X108335100Y-105856939D01*
X108488086Y-105845167D01*
X108513912Y-105850000D01*
X108540192Y-105850000D01*
X108552795Y-105857276D01*
X108567098Y-105859953D01*
X108587051Y-105877054D01*
X108609807Y-105890193D01*
X108617083Y-105902795D01*
X108628133Y-105912266D01*
X108636861Y-105937051D01*
X108650000Y-105959808D01*
X108650000Y-105974362D01*
X108654833Y-105988086D01*
X108650000Y-106013912D01*
X108650000Y-106040192D01*
X108642724Y-106052794D01*
X108640047Y-106067099D01*
X108622944Y-106087053D01*
X108609807Y-106109807D01*
X108597205Y-106117083D01*
X108587734Y-106128133D01*
X108562949Y-106136861D01*
X108540192Y-106150000D01*
X108525638Y-106150000D01*
X108511914Y-106154833D01*
X108372750Y-106165541D01*
X108205834Y-106209020D01*
X108052797Y-106284324D01*
X107918022Y-106388865D01*
X107807025Y-106518367D01*
X107724332Y-106667551D01*
X107673327Y-106830310D01*
X107654496Y-107015694D01*
X107625951Y-107090839D01*
X107563657Y-107141644D01*
X107484307Y-107154496D01*
X107409161Y-107125951D01*
X107409161Y-107125951D01*
G37*
D10*
X107500000Y-107000000D03*
X106500000Y-111750000D03*
D11*
G36*
X107590839Y-110624049D02*
G01*
X107641644Y-110686343D01*
X107654496Y-110765693D01*
X107634071Y-110966771D01*
X107628426Y-110981632D01*
X107627760Y-110997516D01*
X107567320Y-111190380D01*
X107558802Y-111203802D01*
X107554956Y-111219228D01*
X107456970Y-111396000D01*
X107445926Y-111407436D01*
X107439057Y-111421773D01*
X107307528Y-111575231D01*
X107294411Y-111584212D01*
X107284799Y-111596876D01*
X107125098Y-111720752D01*
X107110442Y-111726913D01*
X107098481Y-111737384D01*
X106917134Y-111826618D01*
X106901541Y-111829706D01*
X106887716Y-111837559D01*
X106692130Y-111888505D01*
X106678116Y-111888407D01*
X106664900Y-111893061D01*
X106511914Y-111904833D01*
X106486088Y-111900000D01*
X106459808Y-111900000D01*
X106447205Y-111892724D01*
X106432902Y-111890047D01*
X106412949Y-111872946D01*
X106390193Y-111859807D01*
X106382917Y-111847205D01*
X106371867Y-111837734D01*
X106363139Y-111812949D01*
X106350000Y-111790192D01*
X106350000Y-111775638D01*
X106345167Y-111761914D01*
X106350000Y-111736088D01*
X106350000Y-111709808D01*
X106357276Y-111697206D01*
X106359953Y-111682901D01*
X106377056Y-111662947D01*
X106390193Y-111640193D01*
X106402795Y-111632917D01*
X106412266Y-111621867D01*
X106437051Y-111613139D01*
X106459808Y-111600000D01*
X106474362Y-111600000D01*
X106488086Y-111595167D01*
X106627250Y-111584459D01*
X106794166Y-111540980D01*
X106947203Y-111465676D01*
X107081978Y-111361135D01*
X107192975Y-111231633D01*
X107275668Y-111082449D01*
X107326673Y-110919690D01*
X107345504Y-110734306D01*
X107374049Y-110659161D01*
X107436343Y-110608356D01*
X107515693Y-110595504D01*
X107590839Y-110624049D01*
X107590839Y-110624049D01*
G37*
D10*
X107500000Y-110750000D03*
X107500000Y-113250000D03*
D11*
G36*
X106374049Y-112159161D02*
G01*
X106436343Y-112108356D01*
X106515693Y-112095504D01*
X106716771Y-112115929D01*
X106731632Y-112121574D01*
X106747516Y-112122240D01*
X106940380Y-112182680D01*
X106953802Y-112191198D01*
X106969228Y-112195044D01*
X107146000Y-112293030D01*
X107157436Y-112304074D01*
X107171773Y-112310943D01*
X107325231Y-112442472D01*
X107334212Y-112455589D01*
X107346876Y-112465201D01*
X107470752Y-112624902D01*
X107476913Y-112639558D01*
X107487384Y-112651519D01*
X107576618Y-112832866D01*
X107579706Y-112848459D01*
X107587559Y-112862284D01*
X107638505Y-113057870D01*
X107638407Y-113071884D01*
X107643061Y-113085100D01*
X107654833Y-113238086D01*
X107650000Y-113263912D01*
X107650000Y-113290192D01*
X107642724Y-113302795D01*
X107640047Y-113317098D01*
X107622946Y-113337051D01*
X107609807Y-113359807D01*
X107597205Y-113367083D01*
X107587734Y-113378133D01*
X107562949Y-113386861D01*
X107540192Y-113400000D01*
X107525638Y-113400000D01*
X107511914Y-113404833D01*
X107486088Y-113400000D01*
X107459808Y-113400000D01*
X107447206Y-113392724D01*
X107432901Y-113390047D01*
X107412947Y-113372944D01*
X107390193Y-113359807D01*
X107382917Y-113347205D01*
X107371867Y-113337734D01*
X107363139Y-113312949D01*
X107350000Y-113290192D01*
X107350000Y-113275638D01*
X107345167Y-113261914D01*
X107334459Y-113122750D01*
X107290980Y-112955834D01*
X107215676Y-112802797D01*
X107111135Y-112668022D01*
X106981633Y-112557025D01*
X106832449Y-112474332D01*
X106669690Y-112423327D01*
X106484306Y-112404496D01*
X106409161Y-112375951D01*
X106358356Y-112313657D01*
X106345504Y-112234307D01*
X106374049Y-112159161D01*
X106374049Y-112159161D01*
G37*
D10*
X106500000Y-112250000D03*
X107500000Y-117000000D03*
D11*
G36*
X108625951Y-118090839D02*
G01*
X108563657Y-118141644D01*
X108484307Y-118154496D01*
X108283229Y-118134071D01*
X108268368Y-118128426D01*
X108252484Y-118127760D01*
X108059620Y-118067320D01*
X108046198Y-118058802D01*
X108030772Y-118054956D01*
X107854000Y-117956970D01*
X107842564Y-117945926D01*
X107828227Y-117939057D01*
X107674769Y-117807528D01*
X107665788Y-117794411D01*
X107653124Y-117784799D01*
X107529248Y-117625098D01*
X107523087Y-117610442D01*
X107512616Y-117598481D01*
X107423382Y-117417134D01*
X107420294Y-117401541D01*
X107412441Y-117387716D01*
X107361495Y-117192130D01*
X107361593Y-117178116D01*
X107356939Y-117164900D01*
X107345167Y-117011914D01*
X107350000Y-116986088D01*
X107350000Y-116959808D01*
X107357276Y-116947205D01*
X107359953Y-116932902D01*
X107377054Y-116912949D01*
X107390193Y-116890193D01*
X107402795Y-116882917D01*
X107412266Y-116871867D01*
X107437051Y-116863139D01*
X107459808Y-116850000D01*
X107474362Y-116850000D01*
X107488086Y-116845167D01*
X107513912Y-116850000D01*
X107540192Y-116850000D01*
X107552794Y-116857276D01*
X107567099Y-116859953D01*
X107587053Y-116877056D01*
X107609807Y-116890193D01*
X107617083Y-116902795D01*
X107628133Y-116912266D01*
X107636861Y-116937051D01*
X107650000Y-116959808D01*
X107650000Y-116974362D01*
X107654833Y-116988086D01*
X107665541Y-117127250D01*
X107709020Y-117294166D01*
X107784324Y-117447203D01*
X107888865Y-117581978D01*
X108018367Y-117692975D01*
X108167551Y-117775668D01*
X108330310Y-117826673D01*
X108515694Y-117845504D01*
X108590839Y-117874049D01*
X108641644Y-117936343D01*
X108654496Y-118015693D01*
X108625951Y-118090839D01*
X108625951Y-118090839D01*
G37*
D10*
X108500000Y-118000000D03*
X91500000Y-118000000D03*
D11*
G36*
X92590839Y-116874049D02*
G01*
X92641644Y-116936343D01*
X92654496Y-117015693D01*
X92634071Y-117216771D01*
X92628426Y-117231632D01*
X92627760Y-117247516D01*
X92567320Y-117440380D01*
X92558802Y-117453802D01*
X92554956Y-117469228D01*
X92456970Y-117646000D01*
X92445926Y-117657436D01*
X92439057Y-117671773D01*
X92307528Y-117825231D01*
X92294411Y-117834212D01*
X92284799Y-117846876D01*
X92125098Y-117970752D01*
X92110442Y-117976913D01*
X92098481Y-117987384D01*
X91917134Y-118076618D01*
X91901541Y-118079706D01*
X91887716Y-118087559D01*
X91692130Y-118138505D01*
X91678116Y-118138407D01*
X91664900Y-118143061D01*
X91511914Y-118154833D01*
X91486088Y-118150000D01*
X91459808Y-118150000D01*
X91447205Y-118142724D01*
X91432902Y-118140047D01*
X91412949Y-118122946D01*
X91390193Y-118109807D01*
X91382917Y-118097205D01*
X91371867Y-118087734D01*
X91363139Y-118062949D01*
X91350000Y-118040192D01*
X91350000Y-118025638D01*
X91345167Y-118011914D01*
X91350000Y-117986088D01*
X91350000Y-117959808D01*
X91357276Y-117947206D01*
X91359953Y-117932901D01*
X91377056Y-117912947D01*
X91390193Y-117890193D01*
X91402795Y-117882917D01*
X91412266Y-117871867D01*
X91437051Y-117863139D01*
X91459808Y-117850000D01*
X91474362Y-117850000D01*
X91488086Y-117845167D01*
X91627250Y-117834459D01*
X91794166Y-117790980D01*
X91947203Y-117715676D01*
X92081978Y-117611135D01*
X92192975Y-117481633D01*
X92275668Y-117332449D01*
X92326673Y-117169690D01*
X92345504Y-116984306D01*
X92374049Y-116909161D01*
X92436343Y-116858356D01*
X92515693Y-116845504D01*
X92590839Y-116874049D01*
X92590839Y-116874049D01*
G37*
D10*
X92500000Y-117000000D03*
X93500000Y-112250000D03*
D11*
G36*
X92409161Y-113375951D02*
G01*
X92358356Y-113313657D01*
X92345504Y-113234307D01*
X92365929Y-113033229D01*
X92371574Y-113018368D01*
X92372240Y-113002484D01*
X92432680Y-112809620D01*
X92441198Y-112796198D01*
X92445044Y-112780772D01*
X92543030Y-112604000D01*
X92554074Y-112592564D01*
X92560943Y-112578227D01*
X92692472Y-112424769D01*
X92705589Y-112415788D01*
X92715201Y-112403124D01*
X92874902Y-112279248D01*
X92889558Y-112273087D01*
X92901519Y-112262616D01*
X93082866Y-112173382D01*
X93098459Y-112170294D01*
X93112284Y-112162441D01*
X93307870Y-112111495D01*
X93321884Y-112111593D01*
X93335100Y-112106939D01*
X93488086Y-112095167D01*
X93513912Y-112100000D01*
X93540192Y-112100000D01*
X93552795Y-112107276D01*
X93567098Y-112109953D01*
X93587051Y-112127054D01*
X93609807Y-112140193D01*
X93617083Y-112152795D01*
X93628133Y-112162266D01*
X93636861Y-112187051D01*
X93650000Y-112209808D01*
X93650000Y-112224362D01*
X93654833Y-112238086D01*
X93650000Y-112263912D01*
X93650000Y-112290192D01*
X93642724Y-112302794D01*
X93640047Y-112317099D01*
X93622944Y-112337053D01*
X93609807Y-112359807D01*
X93597205Y-112367083D01*
X93587734Y-112378133D01*
X93562949Y-112386861D01*
X93540192Y-112400000D01*
X93525638Y-112400000D01*
X93511914Y-112404833D01*
X93372750Y-112415541D01*
X93205834Y-112459020D01*
X93052797Y-112534324D01*
X92918022Y-112638865D01*
X92807025Y-112768367D01*
X92724332Y-112917551D01*
X92673327Y-113080310D01*
X92654496Y-113265694D01*
X92625951Y-113340839D01*
X92563657Y-113391644D01*
X92484307Y-113404496D01*
X92409161Y-113375951D01*
X92409161Y-113375951D01*
G37*
D10*
X92500000Y-113250000D03*
X92500000Y-110750000D03*
D11*
G36*
X93625951Y-111840839D02*
G01*
X93563657Y-111891644D01*
X93484307Y-111904496D01*
X93283229Y-111884071D01*
X93268368Y-111878426D01*
X93252484Y-111877760D01*
X93059620Y-111817320D01*
X93046198Y-111808802D01*
X93030772Y-111804956D01*
X92854000Y-111706970D01*
X92842564Y-111695926D01*
X92828227Y-111689057D01*
X92674769Y-111557528D01*
X92665788Y-111544411D01*
X92653124Y-111534799D01*
X92529248Y-111375098D01*
X92523087Y-111360442D01*
X92512616Y-111348481D01*
X92423382Y-111167134D01*
X92420294Y-111151541D01*
X92412441Y-111137716D01*
X92361495Y-110942130D01*
X92361593Y-110928116D01*
X92356939Y-110914900D01*
X92345167Y-110761914D01*
X92350000Y-110736088D01*
X92350000Y-110709808D01*
X92357276Y-110697205D01*
X92359953Y-110682902D01*
X92377054Y-110662949D01*
X92390193Y-110640193D01*
X92402795Y-110632917D01*
X92412266Y-110621867D01*
X92437051Y-110613139D01*
X92459808Y-110600000D01*
X92474362Y-110600000D01*
X92488086Y-110595167D01*
X92513912Y-110600000D01*
X92540192Y-110600000D01*
X92552794Y-110607276D01*
X92567099Y-110609953D01*
X92587053Y-110627056D01*
X92609807Y-110640193D01*
X92617083Y-110652795D01*
X92628133Y-110662266D01*
X92636861Y-110687051D01*
X92650000Y-110709808D01*
X92650000Y-110724362D01*
X92654833Y-110738086D01*
X92665541Y-110877250D01*
X92709020Y-111044166D01*
X92784324Y-111197203D01*
X92888865Y-111331978D01*
X93018367Y-111442975D01*
X93167551Y-111525668D01*
X93330310Y-111576673D01*
X93515694Y-111595504D01*
X93590839Y-111624049D01*
X93641644Y-111686343D01*
X93654496Y-111765693D01*
X93625951Y-111840839D01*
X93625951Y-111840839D01*
G37*
D10*
X93500000Y-111750000D03*
X92500000Y-107000000D03*
D11*
G36*
X91374049Y-105909161D02*
G01*
X91436343Y-105858356D01*
X91515693Y-105845504D01*
X91716771Y-105865929D01*
X91731632Y-105871574D01*
X91747516Y-105872240D01*
X91940380Y-105932680D01*
X91953802Y-105941198D01*
X91969228Y-105945044D01*
X92146000Y-106043030D01*
X92157436Y-106054074D01*
X92171773Y-106060943D01*
X92325231Y-106192472D01*
X92334212Y-106205589D01*
X92346876Y-106215201D01*
X92470752Y-106374902D01*
X92476913Y-106389558D01*
X92487384Y-106401519D01*
X92576618Y-106582866D01*
X92579706Y-106598459D01*
X92587559Y-106612284D01*
X92638505Y-106807870D01*
X92638407Y-106821884D01*
X92643061Y-106835100D01*
X92654833Y-106988086D01*
X92650000Y-107013912D01*
X92650000Y-107040192D01*
X92642724Y-107052795D01*
X92640047Y-107067098D01*
X92622946Y-107087051D01*
X92609807Y-107109807D01*
X92597205Y-107117083D01*
X92587734Y-107128133D01*
X92562949Y-107136861D01*
X92540192Y-107150000D01*
X92525638Y-107150000D01*
X92511914Y-107154833D01*
X92486088Y-107150000D01*
X92459808Y-107150000D01*
X92447206Y-107142724D01*
X92432901Y-107140047D01*
X92412947Y-107122944D01*
X92390193Y-107109807D01*
X92382917Y-107097205D01*
X92371867Y-107087734D01*
X92363139Y-107062949D01*
X92350000Y-107040192D01*
X92350000Y-107025638D01*
X92345167Y-107011914D01*
X92334459Y-106872750D01*
X92290980Y-106705834D01*
X92215676Y-106552797D01*
X92111135Y-106418022D01*
X91981633Y-106307025D01*
X91832449Y-106224332D01*
X91669690Y-106173327D01*
X91484306Y-106154496D01*
X91409161Y-106125951D01*
X91358356Y-106063657D01*
X91345504Y-105984307D01*
X91374049Y-105909161D01*
X91374049Y-105909161D01*
G37*
D10*
X91500000Y-106000000D03*
X91500000Y-94000000D03*
D11*
G36*
X92590839Y-92874049D02*
G01*
X92641644Y-92936343D01*
X92654496Y-93015693D01*
X92634071Y-93216771D01*
X92628426Y-93231632D01*
X92627760Y-93247516D01*
X92567320Y-93440380D01*
X92558802Y-93453802D01*
X92554956Y-93469228D01*
X92456970Y-93646000D01*
X92445926Y-93657436D01*
X92439057Y-93671773D01*
X92307528Y-93825231D01*
X92294411Y-93834212D01*
X92284799Y-93846876D01*
X92125098Y-93970752D01*
X92110442Y-93976913D01*
X92098481Y-93987384D01*
X91917134Y-94076618D01*
X91901541Y-94079706D01*
X91887716Y-94087559D01*
X91692130Y-94138505D01*
X91678116Y-94138407D01*
X91664900Y-94143061D01*
X91511914Y-94154833D01*
X91486088Y-94150000D01*
X91459808Y-94150000D01*
X91447205Y-94142724D01*
X91432902Y-94140047D01*
X91412949Y-94122946D01*
X91390193Y-94109807D01*
X91382917Y-94097205D01*
X91371867Y-94087734D01*
X91363139Y-94062949D01*
X91350000Y-94040192D01*
X91350000Y-94025638D01*
X91345167Y-94011914D01*
X91350000Y-93986088D01*
X91350000Y-93959808D01*
X91357276Y-93947206D01*
X91359953Y-93932901D01*
X91377056Y-93912947D01*
X91390193Y-93890193D01*
X91402795Y-93882917D01*
X91412266Y-93871867D01*
X91437051Y-93863139D01*
X91459808Y-93850000D01*
X91474362Y-93850000D01*
X91488086Y-93845167D01*
X91627250Y-93834459D01*
X91794166Y-93790980D01*
X91947203Y-93715676D01*
X92081978Y-93611135D01*
X92192975Y-93481633D01*
X92275668Y-93332449D01*
X92326673Y-93169690D01*
X92345504Y-92984306D01*
X92374049Y-92909161D01*
X92436343Y-92858356D01*
X92515693Y-92845504D01*
X92590839Y-92874049D01*
X92590839Y-92874049D01*
G37*
D10*
X92500000Y-93000000D03*
X93500000Y-88250000D03*
D11*
G36*
X92409161Y-89375951D02*
G01*
X92358356Y-89313657D01*
X92345504Y-89234307D01*
X92365929Y-89033229D01*
X92371574Y-89018368D01*
X92372240Y-89002484D01*
X92432680Y-88809620D01*
X92441198Y-88796198D01*
X92445044Y-88780772D01*
X92543030Y-88604000D01*
X92554074Y-88592564D01*
X92560943Y-88578227D01*
X92692472Y-88424769D01*
X92705589Y-88415788D01*
X92715201Y-88403124D01*
X92874902Y-88279248D01*
X92889558Y-88273087D01*
X92901519Y-88262616D01*
X93082866Y-88173382D01*
X93098459Y-88170294D01*
X93112284Y-88162441D01*
X93307870Y-88111495D01*
X93321884Y-88111593D01*
X93335100Y-88106939D01*
X93488086Y-88095167D01*
X93513912Y-88100000D01*
X93540192Y-88100000D01*
X93552795Y-88107276D01*
X93567098Y-88109953D01*
X93587051Y-88127054D01*
X93609807Y-88140193D01*
X93617083Y-88152795D01*
X93628133Y-88162266D01*
X93636861Y-88187051D01*
X93650000Y-88209808D01*
X93650000Y-88224362D01*
X93654833Y-88238086D01*
X93650000Y-88263912D01*
X93650000Y-88290192D01*
X93642724Y-88302794D01*
X93640047Y-88317099D01*
X93622944Y-88337053D01*
X93609807Y-88359807D01*
X93597205Y-88367083D01*
X93587734Y-88378133D01*
X93562949Y-88386861D01*
X93540192Y-88400000D01*
X93525638Y-88400000D01*
X93511914Y-88404833D01*
X93372750Y-88415541D01*
X93205834Y-88459020D01*
X93052797Y-88534324D01*
X92918022Y-88638865D01*
X92807025Y-88768367D01*
X92724332Y-88917551D01*
X92673327Y-89080310D01*
X92654496Y-89265694D01*
X92625951Y-89340839D01*
X92563657Y-89391644D01*
X92484307Y-89404496D01*
X92409161Y-89375951D01*
X92409161Y-89375951D01*
G37*
D10*
X92500000Y-89250000D03*
X92500000Y-86750000D03*
D11*
G36*
X93625951Y-87840839D02*
G01*
X93563657Y-87891644D01*
X93484307Y-87904496D01*
X93283229Y-87884071D01*
X93268368Y-87878426D01*
X93252484Y-87877760D01*
X93059620Y-87817320D01*
X93046198Y-87808802D01*
X93030772Y-87804956D01*
X92854000Y-87706970D01*
X92842564Y-87695926D01*
X92828227Y-87689057D01*
X92674769Y-87557528D01*
X92665788Y-87544411D01*
X92653124Y-87534799D01*
X92529248Y-87375098D01*
X92523087Y-87360442D01*
X92512616Y-87348481D01*
X92423382Y-87167134D01*
X92420294Y-87151541D01*
X92412441Y-87137716D01*
X92361495Y-86942130D01*
X92361593Y-86928116D01*
X92356939Y-86914900D01*
X92345167Y-86761914D01*
X92350000Y-86736088D01*
X92350000Y-86709808D01*
X92357276Y-86697205D01*
X92359953Y-86682902D01*
X92377054Y-86662949D01*
X92390193Y-86640193D01*
X92402795Y-86632917D01*
X92412266Y-86621867D01*
X92437051Y-86613139D01*
X92459808Y-86600000D01*
X92474362Y-86600000D01*
X92488086Y-86595167D01*
X92513912Y-86600000D01*
X92540192Y-86600000D01*
X92552794Y-86607276D01*
X92567099Y-86609953D01*
X92587053Y-86627056D01*
X92609807Y-86640193D01*
X92617083Y-86652795D01*
X92628133Y-86662266D01*
X92636861Y-86687051D01*
X92650000Y-86709808D01*
X92650000Y-86724362D01*
X92654833Y-86738086D01*
X92665541Y-86877250D01*
X92709020Y-87044166D01*
X92784324Y-87197203D01*
X92888865Y-87331978D01*
X93018367Y-87442975D01*
X93167551Y-87525668D01*
X93330310Y-87576673D01*
X93515694Y-87595504D01*
X93590839Y-87624049D01*
X93641644Y-87686343D01*
X93654496Y-87765693D01*
X93625951Y-87840839D01*
X93625951Y-87840839D01*
G37*
D10*
X93500000Y-87750000D03*
X92500000Y-83000000D03*
D11*
G36*
X91374049Y-81909161D02*
G01*
X91436343Y-81858356D01*
X91515693Y-81845504D01*
X91716771Y-81865929D01*
X91731632Y-81871574D01*
X91747516Y-81872240D01*
X91940380Y-81932680D01*
X91953802Y-81941198D01*
X91969228Y-81945044D01*
X92146000Y-82043030D01*
X92157436Y-82054074D01*
X92171773Y-82060943D01*
X92325231Y-82192472D01*
X92334212Y-82205589D01*
X92346876Y-82215201D01*
X92470752Y-82374902D01*
X92476913Y-82389558D01*
X92487384Y-82401519D01*
X92576618Y-82582866D01*
X92579706Y-82598459D01*
X92587559Y-82612284D01*
X92638505Y-82807870D01*
X92638407Y-82821884D01*
X92643061Y-82835100D01*
X92654833Y-82988086D01*
X92650000Y-83013912D01*
X92650000Y-83040192D01*
X92642724Y-83052795D01*
X92640047Y-83067098D01*
X92622946Y-83087051D01*
X92609807Y-83109807D01*
X92597205Y-83117083D01*
X92587734Y-83128133D01*
X92562949Y-83136861D01*
X92540192Y-83150000D01*
X92525638Y-83150000D01*
X92511914Y-83154833D01*
X92486088Y-83150000D01*
X92459808Y-83150000D01*
X92447206Y-83142724D01*
X92432901Y-83140047D01*
X92412947Y-83122944D01*
X92390193Y-83109807D01*
X92382917Y-83097205D01*
X92371867Y-83087734D01*
X92363139Y-83062949D01*
X92350000Y-83040192D01*
X92350000Y-83025638D01*
X92345167Y-83011914D01*
X92334459Y-82872750D01*
X92290980Y-82705834D01*
X92215676Y-82552797D01*
X92111135Y-82418022D01*
X91981633Y-82307025D01*
X91832449Y-82224332D01*
X91669690Y-82173327D01*
X91484306Y-82154496D01*
X91409161Y-82125951D01*
X91358356Y-82063657D01*
X91345504Y-81984307D01*
X91374049Y-81909161D01*
X91374049Y-81909161D01*
G37*
D10*
X91500000Y-82000000D03*
X95250000Y-89000000D03*
D11*
G36*
X93872948Y-87660707D02*
G01*
X93934617Y-87609144D01*
X94013804Y-87595324D01*
X94235160Y-87615079D01*
X94248320Y-87619895D01*
X94262334Y-87619968D01*
X94476693Y-87678611D01*
X94488791Y-87685681D01*
X94502569Y-87688234D01*
X94703156Y-87783908D01*
X94713813Y-87793010D01*
X94726921Y-87797963D01*
X94907395Y-87927647D01*
X94916270Y-87938490D01*
X94928295Y-87945687D01*
X95082951Y-88105281D01*
X95089766Y-88117525D01*
X95100326Y-88126737D01*
X95224276Y-88311195D01*
X95228815Y-88324452D01*
X95237577Y-88335389D01*
X95326905Y-88538882D01*
X95329025Y-88552735D01*
X95335711Y-88565050D01*
X95387590Y-88781145D01*
X95387255Y-88793936D01*
X95391464Y-88806022D01*
X95404874Y-88988626D01*
X95400000Y-89014177D01*
X95400000Y-89040192D01*
X95392589Y-89053028D01*
X95389812Y-89067587D01*
X95372813Y-89087280D01*
X95359807Y-89109807D01*
X95346971Y-89117218D01*
X95337286Y-89128438D01*
X95312721Y-89136993D01*
X95290192Y-89150000D01*
X95275370Y-89150000D01*
X95261374Y-89154874D01*
X95235822Y-89150000D01*
X95209808Y-89150000D01*
X95196972Y-89142589D01*
X95182412Y-89139812D01*
X95162718Y-89122812D01*
X95140193Y-89109807D01*
X95132782Y-89096971D01*
X95121562Y-89087286D01*
X95113007Y-89062721D01*
X95100000Y-89040192D01*
X95100000Y-89025370D01*
X95095126Y-89011374D01*
X95082641Y-88841363D01*
X95036947Y-88651030D01*
X94958759Y-88472917D01*
X94850270Y-88311468D01*
X94714903Y-88171778D01*
X94556940Y-88058270D01*
X94381373Y-87974529D01*
X94193745Y-87923199D01*
X93986196Y-87904676D01*
X93910707Y-87877052D01*
X93859144Y-87815383D01*
X93845324Y-87736196D01*
X93872948Y-87660707D01*
X93872948Y-87660707D01*
G37*
D10*
X94000000Y-87750000D03*
X94750000Y-97000000D03*
D11*
G36*
X96127052Y-98339293D02*
G01*
X96065383Y-98390856D01*
X95986196Y-98404676D01*
X95764840Y-98384921D01*
X95751680Y-98380105D01*
X95737666Y-98380032D01*
X95523307Y-98321389D01*
X95511209Y-98314319D01*
X95497431Y-98311766D01*
X95296844Y-98216092D01*
X95286187Y-98206990D01*
X95273079Y-98202037D01*
X95092605Y-98072353D01*
X95083730Y-98061510D01*
X95071705Y-98054313D01*
X94917049Y-97894719D01*
X94910234Y-97882475D01*
X94899674Y-97873263D01*
X94775724Y-97688805D01*
X94771185Y-97675548D01*
X94762423Y-97664611D01*
X94673095Y-97461118D01*
X94670975Y-97447265D01*
X94664289Y-97434950D01*
X94612410Y-97218855D01*
X94612745Y-97206064D01*
X94608536Y-97193978D01*
X94595126Y-97011374D01*
X94600000Y-96985823D01*
X94600000Y-96959808D01*
X94607411Y-96946972D01*
X94610188Y-96932413D01*
X94627187Y-96912720D01*
X94640193Y-96890193D01*
X94653029Y-96882782D01*
X94662714Y-96871562D01*
X94687279Y-96863007D01*
X94709808Y-96850000D01*
X94724630Y-96850000D01*
X94738626Y-96845126D01*
X94764178Y-96850000D01*
X94790192Y-96850000D01*
X94803028Y-96857411D01*
X94817588Y-96860188D01*
X94837282Y-96877188D01*
X94859807Y-96890193D01*
X94867218Y-96903029D01*
X94878438Y-96912714D01*
X94886993Y-96937279D01*
X94900000Y-96959808D01*
X94900000Y-96974630D01*
X94904874Y-96988626D01*
X94917359Y-97158637D01*
X94963053Y-97348970D01*
X95041241Y-97527083D01*
X95149730Y-97688532D01*
X95285097Y-97828222D01*
X95443060Y-97941730D01*
X95618627Y-98025471D01*
X95806255Y-98076801D01*
X96013804Y-98095324D01*
X96089293Y-98122948D01*
X96140856Y-98184617D01*
X96154676Y-98263804D01*
X96127052Y-98339293D01*
X96127052Y-98339293D01*
G37*
D10*
X96000000Y-98250000D03*
X96000000Y-101750000D03*
D11*
G36*
X94660707Y-103127052D02*
G01*
X94609144Y-103065383D01*
X94595324Y-102986196D01*
X94615079Y-102764840D01*
X94619895Y-102751680D01*
X94619968Y-102737666D01*
X94678611Y-102523307D01*
X94685681Y-102511209D01*
X94688234Y-102497431D01*
X94783908Y-102296844D01*
X94793010Y-102286187D01*
X94797963Y-102273079D01*
X94927647Y-102092605D01*
X94938490Y-102083730D01*
X94945687Y-102071705D01*
X95105281Y-101917049D01*
X95117525Y-101910234D01*
X95126737Y-101899674D01*
X95311195Y-101775724D01*
X95324452Y-101771185D01*
X95335389Y-101762423D01*
X95538882Y-101673095D01*
X95552735Y-101670975D01*
X95565050Y-101664289D01*
X95781145Y-101612410D01*
X95793936Y-101612745D01*
X95806022Y-101608536D01*
X95988626Y-101595126D01*
X96014177Y-101600000D01*
X96040192Y-101600000D01*
X96053028Y-101607411D01*
X96067587Y-101610188D01*
X96087280Y-101627187D01*
X96109807Y-101640193D01*
X96117218Y-101653029D01*
X96128438Y-101662714D01*
X96136993Y-101687279D01*
X96150000Y-101709808D01*
X96150000Y-101724630D01*
X96154874Y-101738626D01*
X96150000Y-101764178D01*
X96150000Y-101790192D01*
X96142589Y-101803028D01*
X96139812Y-101817588D01*
X96122812Y-101837282D01*
X96109807Y-101859807D01*
X96096971Y-101867218D01*
X96087286Y-101878438D01*
X96062721Y-101886993D01*
X96040192Y-101900000D01*
X96025370Y-101900000D01*
X96011374Y-101904874D01*
X95841363Y-101917359D01*
X95651030Y-101963053D01*
X95472917Y-102041241D01*
X95311468Y-102149730D01*
X95171778Y-102285097D01*
X95058270Y-102443060D01*
X94974529Y-102618627D01*
X94923199Y-102806255D01*
X94904676Y-103013804D01*
X94877052Y-103089293D01*
X94815383Y-103140856D01*
X94736196Y-103154676D01*
X94660707Y-103127052D01*
X94660707Y-103127052D01*
G37*
D10*
X94750000Y-103000000D03*
X94000000Y-112250000D03*
D11*
G36*
X95339293Y-110872948D02*
G01*
X95390856Y-110934617D01*
X95404676Y-111013804D01*
X95384921Y-111235160D01*
X95380105Y-111248320D01*
X95380032Y-111262334D01*
X95321389Y-111476693D01*
X95314319Y-111488791D01*
X95311766Y-111502569D01*
X95216092Y-111703156D01*
X95206990Y-111713813D01*
X95202037Y-111726921D01*
X95072353Y-111907395D01*
X95061510Y-111916270D01*
X95054313Y-111928295D01*
X94894719Y-112082951D01*
X94882475Y-112089766D01*
X94873263Y-112100326D01*
X94688805Y-112224276D01*
X94675548Y-112228815D01*
X94664611Y-112237577D01*
X94461118Y-112326905D01*
X94447265Y-112329025D01*
X94434950Y-112335711D01*
X94218855Y-112387590D01*
X94206064Y-112387255D01*
X94193978Y-112391464D01*
X94011374Y-112404874D01*
X93985823Y-112400000D01*
X93959808Y-112400000D01*
X93946972Y-112392589D01*
X93932413Y-112389812D01*
X93912720Y-112372813D01*
X93890193Y-112359807D01*
X93882782Y-112346971D01*
X93871562Y-112337286D01*
X93863007Y-112312721D01*
X93850000Y-112290192D01*
X93850000Y-112275370D01*
X93845126Y-112261374D01*
X93850000Y-112235822D01*
X93850000Y-112209808D01*
X93857411Y-112196972D01*
X93860188Y-112182412D01*
X93877188Y-112162718D01*
X93890193Y-112140193D01*
X93903029Y-112132782D01*
X93912714Y-112121562D01*
X93937279Y-112113007D01*
X93959808Y-112100000D01*
X93974630Y-112100000D01*
X93988626Y-112095126D01*
X94158637Y-112082641D01*
X94348970Y-112036947D01*
X94527083Y-111958759D01*
X94688532Y-111850270D01*
X94828222Y-111714903D01*
X94941730Y-111556940D01*
X95025471Y-111381373D01*
X95076801Y-111193745D01*
X95095324Y-110986196D01*
X95122948Y-110910707D01*
X95184617Y-110859144D01*
X95263804Y-110845324D01*
X95339293Y-110872948D01*
X95339293Y-110872948D01*
G37*
D10*
X95250000Y-111000000D03*
X104750000Y-111000000D03*
D11*
G36*
X106127052Y-112339293D02*
G01*
X106065383Y-112390856D01*
X105986196Y-112404676D01*
X105764840Y-112384921D01*
X105751680Y-112380105D01*
X105737666Y-112380032D01*
X105523307Y-112321389D01*
X105511209Y-112314319D01*
X105497431Y-112311766D01*
X105296844Y-112216092D01*
X105286187Y-112206990D01*
X105273079Y-112202037D01*
X105092605Y-112072353D01*
X105083730Y-112061510D01*
X105071705Y-112054313D01*
X104917049Y-111894719D01*
X104910234Y-111882475D01*
X104899674Y-111873263D01*
X104775724Y-111688805D01*
X104771185Y-111675548D01*
X104762423Y-111664611D01*
X104673095Y-111461118D01*
X104670975Y-111447265D01*
X104664289Y-111434950D01*
X104612410Y-111218855D01*
X104612745Y-111206064D01*
X104608536Y-111193978D01*
X104595126Y-111011374D01*
X104600000Y-110985823D01*
X104600000Y-110959808D01*
X104607411Y-110946972D01*
X104610188Y-110932413D01*
X104627187Y-110912720D01*
X104640193Y-110890193D01*
X104653029Y-110882782D01*
X104662714Y-110871562D01*
X104687279Y-110863007D01*
X104709808Y-110850000D01*
X104724630Y-110850000D01*
X104738626Y-110845126D01*
X104764178Y-110850000D01*
X104790192Y-110850000D01*
X104803028Y-110857411D01*
X104817588Y-110860188D01*
X104837282Y-110877188D01*
X104859807Y-110890193D01*
X104867218Y-110903029D01*
X104878438Y-110912714D01*
X104886993Y-110937279D01*
X104900000Y-110959808D01*
X104900000Y-110974630D01*
X104904874Y-110988626D01*
X104917359Y-111158637D01*
X104963053Y-111348970D01*
X105041241Y-111527083D01*
X105149730Y-111688532D01*
X105285097Y-111828222D01*
X105443060Y-111941730D01*
X105618627Y-112025471D01*
X105806255Y-112076801D01*
X106013804Y-112095324D01*
X106089293Y-112122948D01*
X106140856Y-112184617D01*
X106154676Y-112263804D01*
X106127052Y-112339293D01*
X106127052Y-112339293D01*
G37*
D10*
X106000000Y-112250000D03*
X105250000Y-103000000D03*
D11*
G36*
X103872948Y-101660707D02*
G01*
X103934617Y-101609144D01*
X104013804Y-101595324D01*
X104235160Y-101615079D01*
X104248320Y-101619895D01*
X104262334Y-101619968D01*
X104476693Y-101678611D01*
X104488791Y-101685681D01*
X104502569Y-101688234D01*
X104703156Y-101783908D01*
X104713813Y-101793010D01*
X104726921Y-101797963D01*
X104907395Y-101927647D01*
X104916270Y-101938490D01*
X104928295Y-101945687D01*
X105082951Y-102105281D01*
X105089766Y-102117525D01*
X105100326Y-102126737D01*
X105224276Y-102311195D01*
X105228815Y-102324452D01*
X105237577Y-102335389D01*
X105326905Y-102538882D01*
X105329025Y-102552735D01*
X105335711Y-102565050D01*
X105387590Y-102781145D01*
X105387255Y-102793936D01*
X105391464Y-102806022D01*
X105404874Y-102988626D01*
X105400000Y-103014177D01*
X105400000Y-103040192D01*
X105392589Y-103053028D01*
X105389812Y-103067587D01*
X105372813Y-103087280D01*
X105359807Y-103109807D01*
X105346971Y-103117218D01*
X105337286Y-103128438D01*
X105312721Y-103136993D01*
X105290192Y-103150000D01*
X105275370Y-103150000D01*
X105261374Y-103154874D01*
X105235822Y-103150000D01*
X105209808Y-103150000D01*
X105196972Y-103142589D01*
X105182412Y-103139812D01*
X105162718Y-103122812D01*
X105140193Y-103109807D01*
X105132782Y-103096971D01*
X105121562Y-103087286D01*
X105113007Y-103062721D01*
X105100000Y-103040192D01*
X105100000Y-103025370D01*
X105095126Y-103011374D01*
X105082641Y-102841363D01*
X105036947Y-102651030D01*
X104958759Y-102472917D01*
X104850270Y-102311468D01*
X104714903Y-102171778D01*
X104556940Y-102058270D01*
X104381373Y-101974529D01*
X104193745Y-101923199D01*
X103986196Y-101904676D01*
X103910707Y-101877052D01*
X103859144Y-101815383D01*
X103845324Y-101736196D01*
X103872948Y-101660707D01*
X103872948Y-101660707D01*
G37*
D10*
X104000000Y-101750000D03*
X104000000Y-98250000D03*
D11*
G36*
X105339293Y-96872948D02*
G01*
X105390856Y-96934617D01*
X105404676Y-97013804D01*
X105384921Y-97235160D01*
X105380105Y-97248320D01*
X105380032Y-97262334D01*
X105321389Y-97476693D01*
X105314319Y-97488791D01*
X105311766Y-97502569D01*
X105216092Y-97703156D01*
X105206990Y-97713813D01*
X105202037Y-97726921D01*
X105072353Y-97907395D01*
X105061510Y-97916270D01*
X105054313Y-97928295D01*
X104894719Y-98082951D01*
X104882475Y-98089766D01*
X104873263Y-98100326D01*
X104688805Y-98224276D01*
X104675548Y-98228815D01*
X104664611Y-98237577D01*
X104461118Y-98326905D01*
X104447265Y-98329025D01*
X104434950Y-98335711D01*
X104218855Y-98387590D01*
X104206064Y-98387255D01*
X104193978Y-98391464D01*
X104011374Y-98404874D01*
X103985823Y-98400000D01*
X103959808Y-98400000D01*
X103946972Y-98392589D01*
X103932413Y-98389812D01*
X103912720Y-98372813D01*
X103890193Y-98359807D01*
X103882782Y-98346971D01*
X103871562Y-98337286D01*
X103863007Y-98312721D01*
X103850000Y-98290192D01*
X103850000Y-98275370D01*
X103845126Y-98261374D01*
X103850000Y-98235822D01*
X103850000Y-98209808D01*
X103857411Y-98196972D01*
X103860188Y-98182412D01*
X103877188Y-98162718D01*
X103890193Y-98140193D01*
X103903029Y-98132782D01*
X103912714Y-98121562D01*
X103937279Y-98113007D01*
X103959808Y-98100000D01*
X103974630Y-98100000D01*
X103988626Y-98095126D01*
X104158637Y-98082641D01*
X104348970Y-98036947D01*
X104527083Y-97958759D01*
X104688532Y-97850270D01*
X104828222Y-97714903D01*
X104941730Y-97556940D01*
X105025471Y-97381373D01*
X105076801Y-97193745D01*
X105095324Y-96986196D01*
X105122948Y-96910707D01*
X105184617Y-96859144D01*
X105263804Y-96845324D01*
X105339293Y-96872948D01*
X105339293Y-96872948D01*
G37*
D10*
X105250000Y-97000000D03*
X106000000Y-87750000D03*
D11*
G36*
X104660707Y-89127052D02*
G01*
X104609144Y-89065383D01*
X104595324Y-88986196D01*
X104615079Y-88764840D01*
X104619895Y-88751680D01*
X104619968Y-88737666D01*
X104678611Y-88523307D01*
X104685681Y-88511209D01*
X104688234Y-88497431D01*
X104783908Y-88296844D01*
X104793010Y-88286187D01*
X104797963Y-88273079D01*
X104927647Y-88092605D01*
X104938490Y-88083730D01*
X104945687Y-88071705D01*
X105105281Y-87917049D01*
X105117525Y-87910234D01*
X105126737Y-87899674D01*
X105311195Y-87775724D01*
X105324452Y-87771185D01*
X105335389Y-87762423D01*
X105538882Y-87673095D01*
X105552735Y-87670975D01*
X105565050Y-87664289D01*
X105781145Y-87612410D01*
X105793936Y-87612745D01*
X105806022Y-87608536D01*
X105988626Y-87595126D01*
X106014177Y-87600000D01*
X106040192Y-87600000D01*
X106053028Y-87607411D01*
X106067587Y-87610188D01*
X106087280Y-87627187D01*
X106109807Y-87640193D01*
X106117218Y-87653029D01*
X106128438Y-87662714D01*
X106136993Y-87687279D01*
X106150000Y-87709808D01*
X106150000Y-87724630D01*
X106154874Y-87738626D01*
X106150000Y-87764178D01*
X106150000Y-87790192D01*
X106142589Y-87803028D01*
X106139812Y-87817588D01*
X106122812Y-87837282D01*
X106109807Y-87859807D01*
X106096971Y-87867218D01*
X106087286Y-87878438D01*
X106062721Y-87886993D01*
X106040192Y-87900000D01*
X106025370Y-87900000D01*
X106011374Y-87904874D01*
X105841363Y-87917359D01*
X105651030Y-87963053D01*
X105472917Y-88041241D01*
X105311468Y-88149730D01*
X105171778Y-88285097D01*
X105058270Y-88443060D01*
X104974529Y-88618627D01*
X104923199Y-88806255D01*
X104904676Y-89013804D01*
X104877052Y-89089293D01*
X104815383Y-89140856D01*
X104736196Y-89154676D01*
X104660707Y-89127052D01*
X104660707Y-89127052D01*
G37*
D10*
X104750000Y-89000000D03*
X106000000Y-88250000D03*
D11*
G36*
X105157302Y-89124590D02*
G01*
X105107427Y-89061549D01*
X105095754Y-88982017D01*
X105115870Y-88809480D01*
X105122576Y-88792587D01*
X105124144Y-88774478D01*
X105183412Y-88611196D01*
X105193823Y-88596299D01*
X105199516Y-88579036D01*
X105294758Y-88433768D01*
X105308319Y-88421664D01*
X105317829Y-88406176D01*
X105443935Y-88286714D01*
X105459916Y-88278055D01*
X105472735Y-88265169D01*
X105622941Y-88177923D01*
X105640484Y-88173173D01*
X105655924Y-88163581D01*
X105822172Y-88113229D01*
X105838264Y-88112709D01*
X105853382Y-88107177D01*
X105986196Y-88095324D01*
X106012989Y-88100000D01*
X106040192Y-88100000D01*
X106051977Y-88106804D01*
X106065383Y-88109144D01*
X106086250Y-88126592D01*
X106109807Y-88140193D01*
X106116611Y-88151978D01*
X106127052Y-88160708D01*
X106136399Y-88186251D01*
X106150000Y-88209808D01*
X106150000Y-88223418D01*
X106154676Y-88236196D01*
X106150000Y-88262989D01*
X106150000Y-88290192D01*
X106143196Y-88301977D01*
X106140856Y-88315384D01*
X106123406Y-88336253D01*
X106109807Y-88359807D01*
X106098022Y-88366611D01*
X106089292Y-88377052D01*
X106063749Y-88386399D01*
X106040192Y-88400000D01*
X106026582Y-88400000D01*
X106013804Y-88404676D01*
X105896909Y-88415108D01*
X105763278Y-88455582D01*
X105644383Y-88524641D01*
X105544567Y-88619200D01*
X105469178Y-88734186D01*
X105422265Y-88863430D01*
X105404246Y-89017984D01*
X105374589Y-89092697D01*
X105311548Y-89142573D01*
X105232016Y-89154246D01*
X105157302Y-89124590D01*
X105157302Y-89124590D01*
G37*
D10*
X105250000Y-89000000D03*
X104000000Y-97750000D03*
D11*
G36*
X104842698Y-96875410D02*
G01*
X104892573Y-96938451D01*
X104904246Y-97017983D01*
X104884130Y-97190520D01*
X104877424Y-97207413D01*
X104875856Y-97225522D01*
X104816588Y-97388804D01*
X104806177Y-97403701D01*
X104800484Y-97420964D01*
X104705242Y-97566232D01*
X104691681Y-97578336D01*
X104682171Y-97593824D01*
X104556065Y-97713286D01*
X104540084Y-97721945D01*
X104527265Y-97734831D01*
X104377059Y-97822077D01*
X104359516Y-97826827D01*
X104344076Y-97836419D01*
X104177828Y-97886771D01*
X104161736Y-97887291D01*
X104146618Y-97892823D01*
X104013804Y-97904676D01*
X103987011Y-97900000D01*
X103959808Y-97900000D01*
X103948023Y-97893196D01*
X103934617Y-97890856D01*
X103913750Y-97873408D01*
X103890193Y-97859807D01*
X103883389Y-97848022D01*
X103872948Y-97839292D01*
X103863601Y-97813749D01*
X103850000Y-97790192D01*
X103850000Y-97776582D01*
X103845324Y-97763804D01*
X103850000Y-97737011D01*
X103850000Y-97709808D01*
X103856804Y-97698023D01*
X103859144Y-97684616D01*
X103876594Y-97663747D01*
X103890193Y-97640193D01*
X103901978Y-97633389D01*
X103910708Y-97622948D01*
X103936251Y-97613601D01*
X103959808Y-97600000D01*
X103973418Y-97600000D01*
X103986196Y-97595324D01*
X104103091Y-97584892D01*
X104236722Y-97544418D01*
X104355617Y-97475359D01*
X104455433Y-97380800D01*
X104530822Y-97265814D01*
X104577735Y-97136570D01*
X104595754Y-96982016D01*
X104625411Y-96907303D01*
X104688452Y-96857427D01*
X104767984Y-96845754D01*
X104842698Y-96875410D01*
X104842698Y-96875410D01*
G37*
D10*
X104750000Y-97000000D03*
X105250000Y-111000000D03*
D11*
G36*
X106124590Y-111842698D02*
G01*
X106061549Y-111892573D01*
X105982017Y-111904246D01*
X105809480Y-111884130D01*
X105792587Y-111877424D01*
X105774478Y-111875856D01*
X105611196Y-111816588D01*
X105596299Y-111806177D01*
X105579036Y-111800484D01*
X105433768Y-111705242D01*
X105421664Y-111691681D01*
X105406176Y-111682171D01*
X105286714Y-111556065D01*
X105278055Y-111540084D01*
X105265169Y-111527265D01*
X105177923Y-111377059D01*
X105173173Y-111359516D01*
X105163581Y-111344076D01*
X105113229Y-111177828D01*
X105112709Y-111161736D01*
X105107177Y-111146618D01*
X105095324Y-111013804D01*
X105100000Y-110987011D01*
X105100000Y-110959808D01*
X105106804Y-110948023D01*
X105109144Y-110934617D01*
X105126592Y-110913750D01*
X105140193Y-110890193D01*
X105151978Y-110883389D01*
X105160708Y-110872948D01*
X105186251Y-110863601D01*
X105209808Y-110850000D01*
X105223418Y-110850000D01*
X105236196Y-110845324D01*
X105262989Y-110850000D01*
X105290192Y-110850000D01*
X105301977Y-110856804D01*
X105315384Y-110859144D01*
X105336253Y-110876594D01*
X105359807Y-110890193D01*
X105366611Y-110901978D01*
X105377052Y-110910708D01*
X105386399Y-110936251D01*
X105400000Y-110959808D01*
X105400000Y-110973418D01*
X105404676Y-110986196D01*
X105415108Y-111103091D01*
X105455582Y-111236722D01*
X105524641Y-111355617D01*
X105619200Y-111455433D01*
X105734186Y-111530822D01*
X105863430Y-111577735D01*
X106017984Y-111595754D01*
X106092697Y-111625411D01*
X106142573Y-111688452D01*
X106154246Y-111767984D01*
X106124590Y-111842698D01*
X106124590Y-111842698D01*
G37*
D10*
X106000000Y-111750000D03*
X104750000Y-103000000D03*
D11*
G36*
X103875410Y-102157302D02*
G01*
X103938451Y-102107427D01*
X104017983Y-102095754D01*
X104190520Y-102115870D01*
X104207413Y-102122576D01*
X104225522Y-102124144D01*
X104388804Y-102183412D01*
X104403701Y-102193823D01*
X104420964Y-102199516D01*
X104566232Y-102294758D01*
X104578336Y-102308319D01*
X104593824Y-102317829D01*
X104713286Y-102443935D01*
X104721945Y-102459916D01*
X104734831Y-102472735D01*
X104822077Y-102622941D01*
X104826827Y-102640484D01*
X104836419Y-102655924D01*
X104886771Y-102822172D01*
X104887291Y-102838264D01*
X104892823Y-102853382D01*
X104904676Y-102986196D01*
X104900000Y-103012989D01*
X104900000Y-103040192D01*
X104893196Y-103051977D01*
X104890856Y-103065383D01*
X104873408Y-103086250D01*
X104859807Y-103109807D01*
X104848022Y-103116611D01*
X104839292Y-103127052D01*
X104813749Y-103136399D01*
X104790192Y-103150000D01*
X104776582Y-103150000D01*
X104763804Y-103154676D01*
X104737011Y-103150000D01*
X104709808Y-103150000D01*
X104698023Y-103143196D01*
X104684616Y-103140856D01*
X104663747Y-103123406D01*
X104640193Y-103109807D01*
X104633389Y-103098022D01*
X104622948Y-103089292D01*
X104613601Y-103063749D01*
X104600000Y-103040192D01*
X104600000Y-103026582D01*
X104595324Y-103013804D01*
X104584892Y-102896909D01*
X104544418Y-102763278D01*
X104475359Y-102644383D01*
X104380800Y-102544567D01*
X104265814Y-102469178D01*
X104136570Y-102422265D01*
X103982016Y-102404246D01*
X103907303Y-102374589D01*
X103857427Y-102311548D01*
X103845754Y-102232016D01*
X103875410Y-102157302D01*
X103875410Y-102157302D01*
G37*
D10*
X104000000Y-102250000D03*
X96000000Y-102250000D03*
D11*
G36*
X95157302Y-103124590D02*
G01*
X95107427Y-103061549D01*
X95095754Y-102982017D01*
X95115870Y-102809480D01*
X95122576Y-102792587D01*
X95124144Y-102774478D01*
X95183412Y-102611196D01*
X95193823Y-102596299D01*
X95199516Y-102579036D01*
X95294758Y-102433768D01*
X95308319Y-102421664D01*
X95317829Y-102406176D01*
X95443935Y-102286714D01*
X95459916Y-102278055D01*
X95472735Y-102265169D01*
X95622941Y-102177923D01*
X95640484Y-102173173D01*
X95655924Y-102163581D01*
X95822172Y-102113229D01*
X95838264Y-102112709D01*
X95853382Y-102107177D01*
X95986196Y-102095324D01*
X96012989Y-102100000D01*
X96040192Y-102100000D01*
X96051977Y-102106804D01*
X96065383Y-102109144D01*
X96086250Y-102126592D01*
X96109807Y-102140193D01*
X96116611Y-102151978D01*
X96127052Y-102160708D01*
X96136399Y-102186251D01*
X96150000Y-102209808D01*
X96150000Y-102223418D01*
X96154676Y-102236196D01*
X96150000Y-102262989D01*
X96150000Y-102290192D01*
X96143196Y-102301977D01*
X96140856Y-102315384D01*
X96123406Y-102336253D01*
X96109807Y-102359807D01*
X96098022Y-102366611D01*
X96089292Y-102377052D01*
X96063749Y-102386399D01*
X96040192Y-102400000D01*
X96026582Y-102400000D01*
X96013804Y-102404676D01*
X95896909Y-102415108D01*
X95763278Y-102455582D01*
X95644383Y-102524641D01*
X95544567Y-102619200D01*
X95469178Y-102734186D01*
X95422265Y-102863430D01*
X95404246Y-103017984D01*
X95374589Y-103092697D01*
X95311548Y-103142573D01*
X95232016Y-103154246D01*
X95157302Y-103124590D01*
X95157302Y-103124590D01*
G37*
D10*
X95250000Y-103000000D03*
X94000000Y-111750000D03*
D11*
G36*
X94842698Y-110875410D02*
G01*
X94892573Y-110938451D01*
X94904246Y-111017983D01*
X94884130Y-111190520D01*
X94877424Y-111207413D01*
X94875856Y-111225522D01*
X94816588Y-111388804D01*
X94806177Y-111403701D01*
X94800484Y-111420964D01*
X94705242Y-111566232D01*
X94691681Y-111578336D01*
X94682171Y-111593824D01*
X94556065Y-111713286D01*
X94540084Y-111721945D01*
X94527265Y-111734831D01*
X94377059Y-111822077D01*
X94359516Y-111826827D01*
X94344076Y-111836419D01*
X94177828Y-111886771D01*
X94161736Y-111887291D01*
X94146618Y-111892823D01*
X94013804Y-111904676D01*
X93987011Y-111900000D01*
X93959808Y-111900000D01*
X93948023Y-111893196D01*
X93934617Y-111890856D01*
X93913750Y-111873408D01*
X93890193Y-111859807D01*
X93883389Y-111848022D01*
X93872948Y-111839292D01*
X93863601Y-111813749D01*
X93850000Y-111790192D01*
X93850000Y-111776582D01*
X93845324Y-111763804D01*
X93850000Y-111737011D01*
X93850000Y-111709808D01*
X93856804Y-111698023D01*
X93859144Y-111684616D01*
X93876594Y-111663747D01*
X93890193Y-111640193D01*
X93901978Y-111633389D01*
X93910708Y-111622948D01*
X93936251Y-111613601D01*
X93959808Y-111600000D01*
X93973418Y-111600000D01*
X93986196Y-111595324D01*
X94103091Y-111584892D01*
X94236722Y-111544418D01*
X94355617Y-111475359D01*
X94455433Y-111380800D01*
X94530822Y-111265814D01*
X94577735Y-111136570D01*
X94595754Y-110982016D01*
X94625411Y-110907303D01*
X94688452Y-110857427D01*
X94767984Y-110845754D01*
X94842698Y-110875410D01*
X94842698Y-110875410D01*
G37*
D10*
X94750000Y-111000000D03*
X94750000Y-89000000D03*
D11*
G36*
X93875410Y-88157302D02*
G01*
X93938451Y-88107427D01*
X94017983Y-88095754D01*
X94190520Y-88115870D01*
X94207413Y-88122576D01*
X94225522Y-88124144D01*
X94388804Y-88183412D01*
X94403701Y-88193823D01*
X94420964Y-88199516D01*
X94566232Y-88294758D01*
X94578336Y-88308319D01*
X94593824Y-88317829D01*
X94713286Y-88443935D01*
X94721945Y-88459916D01*
X94734831Y-88472735D01*
X94822077Y-88622941D01*
X94826827Y-88640484D01*
X94836419Y-88655924D01*
X94886771Y-88822172D01*
X94887291Y-88838264D01*
X94892823Y-88853382D01*
X94904676Y-88986196D01*
X94900000Y-89012989D01*
X94900000Y-89040192D01*
X94893196Y-89051977D01*
X94890856Y-89065383D01*
X94873408Y-89086250D01*
X94859807Y-89109807D01*
X94848022Y-89116611D01*
X94839292Y-89127052D01*
X94813749Y-89136399D01*
X94790192Y-89150000D01*
X94776582Y-89150000D01*
X94763804Y-89154676D01*
X94737011Y-89150000D01*
X94709808Y-89150000D01*
X94698023Y-89143196D01*
X94684616Y-89140856D01*
X94663747Y-89123406D01*
X94640193Y-89109807D01*
X94633389Y-89098022D01*
X94622948Y-89089292D01*
X94613601Y-89063749D01*
X94600000Y-89040192D01*
X94600000Y-89026582D01*
X94595324Y-89013804D01*
X94584892Y-88896909D01*
X94544418Y-88763278D01*
X94475359Y-88644383D01*
X94380800Y-88544567D01*
X94265814Y-88469178D01*
X94136570Y-88422265D01*
X93982016Y-88404246D01*
X93907303Y-88374589D01*
X93857427Y-88311548D01*
X93845754Y-88232016D01*
X93875410Y-88157302D01*
X93875410Y-88157302D01*
G37*
D10*
X94000000Y-88250000D03*
X95250000Y-97000000D03*
D11*
G36*
X96124590Y-97842698D02*
G01*
X96061549Y-97892573D01*
X95982017Y-97904246D01*
X95809480Y-97884130D01*
X95792587Y-97877424D01*
X95774478Y-97875856D01*
X95611196Y-97816588D01*
X95596299Y-97806177D01*
X95579036Y-97800484D01*
X95433768Y-97705242D01*
X95421664Y-97691681D01*
X95406176Y-97682171D01*
X95286714Y-97556065D01*
X95278055Y-97540084D01*
X95265169Y-97527265D01*
X95177923Y-97377059D01*
X95173173Y-97359516D01*
X95163581Y-97344076D01*
X95113229Y-97177828D01*
X95112709Y-97161736D01*
X95107177Y-97146618D01*
X95095324Y-97013804D01*
X95100000Y-96987011D01*
X95100000Y-96959808D01*
X95106804Y-96948023D01*
X95109144Y-96934617D01*
X95126592Y-96913750D01*
X95140193Y-96890193D01*
X95151978Y-96883389D01*
X95160708Y-96872948D01*
X95186251Y-96863601D01*
X95209808Y-96850000D01*
X95223418Y-96850000D01*
X95236196Y-96845324D01*
X95262989Y-96850000D01*
X95290192Y-96850000D01*
X95301977Y-96856804D01*
X95315384Y-96859144D01*
X95336253Y-96876594D01*
X95359807Y-96890193D01*
X95366611Y-96901978D01*
X95377052Y-96910708D01*
X95386399Y-96936251D01*
X95400000Y-96959808D01*
X95400000Y-96973418D01*
X95404676Y-96986196D01*
X95415108Y-97103091D01*
X95455582Y-97236722D01*
X95524641Y-97355617D01*
X95619200Y-97455433D01*
X95734186Y-97530822D01*
X95863430Y-97577735D01*
X96017984Y-97595754D01*
X96092697Y-97625411D01*
X96142573Y-97688452D01*
X96154246Y-97767984D01*
X96124590Y-97842698D01*
X96124590Y-97842698D01*
G37*
D10*
X96000000Y-97750000D03*
D12*
X97700000Y-102750000D03*
X102300000Y-102750000D03*
X97700000Y-102250000D03*
X102300000Y-102250000D03*
X97700000Y-101750000D03*
X102300000Y-101750000D03*
X97700000Y-101250000D03*
X102300000Y-101250000D03*
X97700000Y-100750000D03*
X102300000Y-100750000D03*
X97700000Y-100250000D03*
X102300000Y-100250000D03*
X97700000Y-99750000D03*
X102300000Y-99750000D03*
X97700000Y-99250000D03*
X102300000Y-99250000D03*
X97700000Y-98750000D03*
X102300000Y-98750000D03*
X97700000Y-98250000D03*
X102300000Y-98250000D03*
X97700000Y-97750000D03*
X102300000Y-97750000D03*
X97700000Y-97250000D03*
X102300000Y-97250000D03*
D13*
X102300000Y-104050000D03*
X97700000Y-104050000D03*
X102300000Y-95950000D03*
X97700000Y-95950000D03*
D14*
X100000000Y-95950000D03*
D13*
X100000000Y-104050000D03*
D15*
X96125000Y-121950000D03*
X103875000Y-121950000D03*
D16*
X96275000Y-118150000D03*
X103725000Y-118150000D03*
D17*
X88000000Y-82000000D03*
D18*
X88000000Y-86250000D03*
X88000000Y-77750000D03*
D17*
X88000000Y-94000000D03*
D18*
X88000000Y-98250000D03*
X88000000Y-89750000D03*
D17*
X88000000Y-106000000D03*
D18*
X88000000Y-110250000D03*
X88000000Y-101750000D03*
D17*
X88000000Y-118000000D03*
D18*
X88000000Y-122250000D03*
X88000000Y-113750000D03*
D17*
X112000000Y-118000000D03*
D18*
X112000000Y-113750000D03*
X112000000Y-122250000D03*
D17*
X112000000Y-106000000D03*
D18*
X112000000Y-101750000D03*
X112000000Y-110250000D03*
D17*
X112000000Y-94000000D03*
D18*
X112000000Y-89750000D03*
X112000000Y-98250000D03*
D17*
X112000000Y-82000000D03*
D18*
X112000000Y-77750000D03*
X112000000Y-86250000D03*
D19*
X110500000Y-122250000D03*
X112000000Y-122250000D03*
X113500000Y-122250000D03*
X113500000Y-113750000D03*
X112000000Y-113750000D03*
X110500000Y-113750000D03*
X110500000Y-110250000D03*
X112000000Y-110250000D03*
X113500000Y-110250000D03*
X113500000Y-101750000D03*
X112000000Y-101750000D03*
X110500000Y-101750000D03*
X113500000Y-98250000D03*
X112000000Y-98250000D03*
X110500000Y-98250000D03*
X110500000Y-89750000D03*
X112000000Y-89750000D03*
X113500000Y-89750000D03*
X113500000Y-86250000D03*
X110500000Y-86250000D03*
X112000000Y-86250000D03*
X113500000Y-77750000D03*
X112000000Y-77750000D03*
X110500000Y-77750000D03*
X86500000Y-122250000D03*
X89500000Y-122250000D03*
X88000000Y-122250000D03*
X86500000Y-113750000D03*
X88000000Y-113750000D03*
X89500000Y-113750000D03*
X89500000Y-110250000D03*
X88000000Y-110250000D03*
X86500000Y-110250000D03*
X86500000Y-101750000D03*
X88000000Y-101750000D03*
X89500000Y-101750000D03*
X89500000Y-98250000D03*
X88000000Y-98250000D03*
X86500000Y-98250000D03*
X86500000Y-89750000D03*
X88000000Y-89750000D03*
X89500000Y-89750000D03*
X89500000Y-86250000D03*
X88000000Y-86250000D03*
X86500000Y-86250000D03*
X89500000Y-77750000D03*
X88000000Y-77750000D03*
X86500000Y-77750000D03*
X104000000Y-103000000D03*
X96000000Y-97000000D03*
X96000000Y-103000000D03*
X104000000Y-97000000D03*
D20*
X100000000Y-120000000D03*
X98750000Y-82000000D03*
D19*
X98250000Y-116750000D03*
X92000000Y-98500000D03*
X92750000Y-99750000D03*
X109000000Y-77750000D03*
X109000000Y-86250000D03*
X109000000Y-89750000D03*
X109000000Y-98250000D03*
X109000000Y-101750000D03*
X109000000Y-110250000D03*
X109000000Y-113750000D03*
X109000000Y-122250000D03*
X91000000Y-122250000D03*
X91000000Y-113750000D03*
X91000000Y-110250000D03*
X91000000Y-101750000D03*
X91000000Y-98250000D03*
X91000000Y-89750000D03*
X91000000Y-86250000D03*
X91000000Y-77750000D03*
X106500000Y-101500000D03*
X108000000Y-100500000D03*
X108000000Y-99500000D03*
X106500000Y-98500000D03*
X93500000Y-100500000D03*
X93500000Y-98500000D03*
X105500000Y-101500000D03*
X105500000Y-98500000D03*
X94500000Y-101500000D03*
X94500000Y-98500000D03*
X100000000Y-101250000D03*
X100000000Y-98750000D03*
D21*
X110500000Y-122250000D02*
X112000000Y-122250000D01*
X110500000Y-113750000D02*
X109000000Y-113750000D01*
X110500000Y-110250000D02*
X112000000Y-110250000D01*
X110500000Y-101750000D02*
X109000000Y-101750000D01*
X110500000Y-98250000D02*
X112000000Y-98250000D01*
X110500000Y-89750000D02*
X109000000Y-89750000D01*
X110500000Y-86250000D02*
X109000000Y-86250000D01*
X110500000Y-77750000D02*
X112000000Y-77750000D01*
X89500000Y-122250000D02*
X91000000Y-122250000D01*
X89500000Y-113750000D02*
X88000000Y-113750000D01*
X89500000Y-110250000D02*
X91000000Y-110250000D01*
X89500000Y-101750000D02*
X88000000Y-101750000D01*
X89500000Y-98250000D02*
X91000000Y-98250000D01*
X89500000Y-89750000D02*
X88000000Y-89750000D01*
X89500000Y-86250000D02*
X91000000Y-86250000D01*
X89500000Y-77750000D02*
X88000000Y-77750000D01*
X107503999Y-100246001D02*
X107500000Y-100250000D01*
X107500000Y-100250000D02*
X106250000Y-100250000D01*
X108000000Y-100500000D02*
X107746001Y-100246001D01*
X107746001Y-100246001D02*
X107503999Y-100246001D01*
X108000000Y-99500000D02*
X107750000Y-99750000D01*
X107750000Y-99750000D02*
X106250000Y-99750000D01*
X106250000Y-99750000D02*
X102300000Y-99750000D01*
X103270000Y-102750000D02*
X103750000Y-102750000D01*
X103750000Y-102750000D02*
X104000000Y-103000000D01*
X102300000Y-102750000D02*
X103270000Y-102750000D01*
X97500000Y-97250000D02*
X96250000Y-97250000D01*
X96250000Y-97250000D02*
X96000000Y-97000000D01*
X97700000Y-97250000D02*
X97500000Y-97250000D01*
X96730000Y-102750000D02*
X96250000Y-102750000D01*
X96250000Y-102750000D02*
X96000000Y-103000000D01*
X97700000Y-102750000D02*
X96730000Y-102750000D01*
X103270000Y-97250000D02*
X103750000Y-97250000D01*
X103750000Y-97250000D02*
X104000000Y-97000000D01*
X102300000Y-97250000D02*
X103270000Y-97250000D01*
X92000000Y-100000000D02*
X92000000Y-98500000D01*
X92500000Y-100500000D02*
X92000000Y-100000000D01*
X93750000Y-99750000D02*
X92750000Y-99750000D01*
X93250000Y-101250000D02*
X92500000Y-100500000D01*
X93750000Y-101250000D02*
X93250000Y-101250000D01*
X94250000Y-100750000D02*
X93750000Y-101250000D01*
X112000000Y-86250000D02*
X110500000Y-86250000D01*
X109000000Y-77750000D02*
X110500000Y-77750000D01*
X112000000Y-89750000D02*
X110500000Y-89750000D01*
X109000000Y-98250000D02*
X110500000Y-98250000D01*
X112000000Y-101750000D02*
X110500000Y-101750000D01*
X109000000Y-110250000D02*
X110500000Y-110250000D01*
X112000000Y-113750000D02*
X110500000Y-113750000D01*
X109000000Y-122250000D02*
X110500000Y-122250000D01*
X88000000Y-122250000D02*
X89500000Y-122250000D01*
X91000000Y-113750000D02*
X89500000Y-113750000D01*
X88000000Y-110250000D02*
X89500000Y-110250000D01*
X91000000Y-101750000D02*
X89500000Y-101750000D01*
X88000000Y-98250000D02*
X89500000Y-98250000D01*
X91000000Y-89750000D02*
X89500000Y-89750000D01*
X88000000Y-86250000D02*
X89500000Y-86250000D01*
X91000000Y-77750000D02*
X89500000Y-77750000D01*
X102300000Y-100750000D02*
X105750000Y-100750000D01*
X105750000Y-100750000D02*
X106500000Y-101500000D01*
X102300000Y-100250000D02*
X106250000Y-100250000D01*
X102300000Y-99250000D02*
X105750000Y-99250000D01*
X105750000Y-99250000D02*
X106500000Y-98500000D01*
X97700000Y-100750000D02*
X94250000Y-100750000D01*
X97700000Y-100250000D02*
X93750000Y-100250000D01*
X93750000Y-100250000D02*
X93500000Y-100500000D01*
X97700000Y-99750000D02*
X93750000Y-99750000D01*
X97700000Y-99250000D02*
X94250000Y-99250000D01*
X94250000Y-99250000D02*
X93500000Y-98500000D01*
D22*
X108500000Y-118000000D02*
X112000000Y-118000000D01*
X107500000Y-113250000D02*
X107500000Y-117000000D01*
X108500000Y-106000000D02*
X112000000Y-106000000D01*
X107500000Y-110750000D02*
X107500000Y-107000000D01*
X106500000Y-112250000D02*
X106000000Y-112250000D01*
X106000000Y-111750000D02*
X106500000Y-111750000D01*
X104750000Y-111000000D02*
X104750000Y-103000000D01*
X105250000Y-111000000D02*
X105250000Y-103000000D01*
D21*
X104000000Y-102250000D02*
X102300000Y-102250000D01*
X102300000Y-101750000D02*
X104000000Y-101750000D01*
X97700000Y-101750000D02*
X96000000Y-101750000D01*
X97700000Y-102250000D02*
X96000000Y-102250000D01*
D22*
X91500000Y-106000000D02*
X88000000Y-106000000D01*
X92500000Y-110750000D02*
X92500000Y-107000000D01*
X94750000Y-111000000D02*
X94750000Y-103000000D01*
X95250000Y-103000000D02*
X95250000Y-111000000D01*
X94000000Y-111750000D02*
X93500000Y-111750000D01*
X93500000Y-112250000D02*
X94000000Y-112250000D01*
X92500000Y-113250000D02*
X92500000Y-117000000D01*
X88000000Y-118000000D02*
X91500000Y-118000000D01*
D21*
X97700000Y-97750000D02*
X96000000Y-97750000D01*
X97700000Y-102750000D02*
X97700000Y-104050000D01*
X102300000Y-102750000D02*
X102300000Y-104050000D01*
X102300000Y-97250000D02*
X102300000Y-95950000D01*
X97700000Y-97250000D02*
X97700000Y-95950000D01*
X97700000Y-101250000D02*
X102300000Y-101250000D01*
X97700000Y-98750000D02*
X102300000Y-98750000D01*
D22*
X109160000Y-82000000D02*
X108500000Y-82000000D01*
X112000000Y-82000000D02*
X109160000Y-82000000D01*
X107500000Y-86750000D02*
X107500000Y-83000000D01*
X107500000Y-93000000D02*
X107500000Y-89500000D01*
X112000000Y-94000000D02*
X108500000Y-94000000D01*
X107500000Y-89250000D02*
X107500000Y-89500000D01*
D21*
X102300000Y-98250000D02*
X104000000Y-98250000D01*
X102300000Y-97750000D02*
X104000000Y-97750000D01*
D22*
X104750000Y-89000000D02*
X104750000Y-97000000D01*
X106000000Y-88250000D02*
X106500000Y-88250000D01*
X106500000Y-87750000D02*
X106000000Y-87750000D01*
X105250000Y-97000000D02*
X105250000Y-89000000D01*
D21*
X97700000Y-98250000D02*
X96000000Y-98250000D01*
D22*
X95250000Y-97000000D02*
X95250000Y-89000000D01*
X93500000Y-87750000D02*
X94000000Y-87750000D01*
X94000000Y-88250000D02*
X93500000Y-88250000D01*
X94750000Y-89000000D02*
X94750000Y-97000000D01*
X92500000Y-93000000D02*
X92500000Y-89250000D01*
X88000000Y-94000000D02*
X91500000Y-94000000D01*
X92500000Y-83000000D02*
X92500000Y-86750000D01*
X88000000Y-82000000D02*
X91500000Y-82000000D01*
M02*
