G04 #@! TF.GenerationSoftware,KiCad,Pcbnew,6.0.0-unknown-70ca025~86~ubuntu16.04.1*
G04 #@! TF.CreationDate,2019-07-17T04:15:05+00:00*
G04 #@! TF.ProjectId,usb-type-c-breakout,7573622d-7479-4706-952d-632d62726561,rev?*
G04 #@! TF.SameCoordinates,Original*
G04 #@! TF.FileFunction,Legend,Top*
G04 #@! TF.FilePolarity,Positive*
%FSLAX46Y46*%
G04 Gerber Fmt 4.6, Leading zero omitted, Abs format (unit mm)*
G04 Created by KiCad (PCBNEW 6.0.0-unknown-70ca025~86~ubuntu16.04.1) date 2019-07-17 04:15:05*
%MOMM*%
%LPD*%
G04 APERTURE LIST*
%ADD10C,0.120000*%
G04 APERTURE END LIST*
D10*
X102900000Y-91600000D02*
X101900000Y-90600000D01*
X102900000Y-109400000D02*
X97100000Y-109400000D01*
X102900000Y-109400000D02*
X102900000Y-103000000D01*
X98100000Y-90600000D02*
X101900000Y-90600000D01*
X97100000Y-91600000D02*
X97100000Y-97000000D01*
X97100000Y-109400000D02*
X97100000Y-103000000D01*
X102900000Y-91600000D02*
X102900000Y-97000000D01*
X97100000Y-91600000D02*
X98100000Y-90600000D01*
X91210000Y-82000000D02*
X91710000Y-82250000D01*
X91710000Y-82250000D02*
X91710000Y-81750000D01*
X91710000Y-81750000D02*
X91210000Y-82000000D01*
X91210000Y-94000000D02*
X91710000Y-94250000D01*
X91710000Y-94250000D02*
X91710000Y-93750000D01*
X91710000Y-93750000D02*
X91210000Y-94000000D01*
X91210000Y-106000000D02*
X91710000Y-106250000D01*
X91710000Y-106250000D02*
X91710000Y-105750000D01*
X91710000Y-105750000D02*
X91210000Y-106000000D01*
X91210000Y-118000000D02*
X91710000Y-118250000D01*
X91710000Y-118250000D02*
X91710000Y-117750000D01*
X91710000Y-117750000D02*
X91210000Y-118000000D01*
X108790000Y-118000000D02*
X108290000Y-117750000D01*
X108290000Y-117750000D02*
X108290000Y-118250000D01*
X108290000Y-118250000D02*
X108790000Y-118000000D01*
X108790000Y-106000000D02*
X108290000Y-105750000D01*
X108290000Y-105750000D02*
X108290000Y-106250000D01*
X108290000Y-106250000D02*
X108790000Y-106000000D01*
X108790000Y-94000000D02*
X108290000Y-93750000D01*
X108290000Y-93750000D02*
X108290000Y-94250000D01*
X108290000Y-94250000D02*
X108790000Y-94000000D01*
X108790000Y-82000000D02*
X108290000Y-81750000D01*
X108290000Y-81750000D02*
X108290000Y-82250000D01*
X108290000Y-82250000D02*
X108790000Y-82000000D01*
M02*
