G04 #@! TF.GenerationSoftware,KiCad,Pcbnew,6.0.0-unknown-70ca025~86~ubuntu16.04.1*
G04 #@! TF.CreationDate,2019-07-17T04:15:05+00:00*
G04 #@! TF.ProjectId,usb-type-c-breakout,7573622d-7479-4706-952d-632d62726561,rev?*
G04 #@! TF.SameCoordinates,Original*
G04 #@! TF.FileFunction,Soldermask,Bot*
G04 #@! TF.FilePolarity,Negative*
%FSLAX46Y46*%
G04 Gerber Fmt 4.6, Leading zero omitted, Abs format (unit mm)*
G04 Created by KiCad (PCBNEW 6.0.0-unknown-70ca025~86~ubuntu16.04.1) date 2019-07-17 04:15:05*
%MOMM*%
%LPD*%
G04 APERTURE LIST*
%ADD10C,0.100000*%
G04 APERTURE END LIST*
D10*
G36*
X114559899Y-121451959D02*
G01*
X114576769Y-121463231D01*
X114588041Y-121480101D01*
X114594448Y-121512312D01*
X114594448Y-122987688D01*
X114591999Y-123000000D01*
X114588041Y-123019899D01*
X114576769Y-123036769D01*
X114559899Y-123048041D01*
X114540000Y-123051999D01*
X114527688Y-123054448D01*
X109472312Y-123054448D01*
X109440101Y-123048041D01*
X109423231Y-123036769D01*
X109411959Y-123019899D01*
X109405552Y-122987688D01*
X109405552Y-121512312D01*
X109411959Y-121480101D01*
X109423231Y-121463231D01*
X109440101Y-121451959D01*
X109472312Y-121445552D01*
X114527688Y-121445552D01*
X114559899Y-121451959D01*
X114559899Y-121451959D01*
G37*
G36*
X90559899Y-121451959D02*
G01*
X90576769Y-121463231D01*
X90588041Y-121480101D01*
X90594448Y-121512312D01*
X90594448Y-122987688D01*
X90591999Y-123000000D01*
X90588041Y-123019899D01*
X90576769Y-123036769D01*
X90559899Y-123048041D01*
X90540000Y-123051999D01*
X90527688Y-123054448D01*
X85472312Y-123054448D01*
X85440101Y-123048041D01*
X85423231Y-123036769D01*
X85411959Y-123019899D01*
X85405552Y-122987688D01*
X85405552Y-121512312D01*
X85411959Y-121480101D01*
X85423231Y-121463231D01*
X85440101Y-121451959D01*
X85472312Y-121445552D01*
X90527688Y-121445552D01*
X90559899Y-121451959D01*
X90559899Y-121451959D01*
G37*
G36*
X96203147Y-121002620D02*
G01*
X96236612Y-121004696D01*
X96275034Y-121016333D01*
X96319982Y-121024907D01*
X96350030Y-121039047D01*
X96376317Y-121047008D01*
X96416290Y-121070226D01*
X96463093Y-121092250D01*
X96484038Y-121109577D01*
X96502545Y-121120327D01*
X96540539Y-121156319D01*
X96584961Y-121193068D01*
X96597389Y-121210173D01*
X96608517Y-121220715D01*
X96640588Y-121269632D01*
X96677928Y-121321025D01*
X96683485Y-121335059D01*
X96688555Y-121342793D01*
X96710684Y-121403758D01*
X96736152Y-121468083D01*
X96737283Y-121477038D01*
X96738361Y-121480007D01*
X96746769Y-121552126D01*
X96751000Y-121585618D01*
X96751000Y-122301080D01*
X96723040Y-122447652D01*
X96713945Y-122498200D01*
X96713071Y-122499912D01*
X96711666Y-122507277D01*
X96678573Y-122567473D01*
X96649352Y-122624699D01*
X96643006Y-122632169D01*
X96635469Y-122645878D01*
X96592335Y-122691812D01*
X96554838Y-122735947D01*
X96542054Y-122745355D01*
X96527198Y-122761175D01*
X96478955Y-122791791D01*
X96437269Y-122822468D01*
X96417074Y-122831061D01*
X96393655Y-122845923D01*
X96344967Y-122861743D01*
X96302946Y-122879623D01*
X96275337Y-122884367D01*
X96243232Y-122894799D01*
X96198112Y-122897638D01*
X96159085Y-122904344D01*
X96125066Y-122902233D01*
X96085381Y-122904730D01*
X96046853Y-122897380D01*
X96013388Y-122895304D01*
X95974966Y-122883667D01*
X95930018Y-122875093D01*
X95899970Y-122860953D01*
X95873683Y-122852992D01*
X95833712Y-122829775D01*
X95786907Y-122807750D01*
X95765959Y-122790420D01*
X95747458Y-122779674D01*
X95709480Y-122743697D01*
X95665039Y-122706932D01*
X95652605Y-122689818D01*
X95641482Y-122679281D01*
X95609420Y-122630380D01*
X95572072Y-122578974D01*
X95566515Y-122564940D01*
X95561445Y-122557206D01*
X95539316Y-122496241D01*
X95513848Y-122431916D01*
X95512717Y-122422961D01*
X95511639Y-122419992D01*
X95503231Y-122347873D01*
X95499000Y-122314381D01*
X95499000Y-121598920D01*
X95526958Y-121452360D01*
X95536055Y-121401799D01*
X95536929Y-121400087D01*
X95538334Y-121392723D01*
X95571422Y-121332537D01*
X95600649Y-121275300D01*
X95606997Y-121267828D01*
X95614532Y-121254122D01*
X95657652Y-121208203D01*
X95695159Y-121164055D01*
X95707947Y-121154644D01*
X95722802Y-121138825D01*
X95771044Y-121108210D01*
X95812731Y-121077532D01*
X95832926Y-121068939D01*
X95856345Y-121054077D01*
X95905033Y-121038257D01*
X95947054Y-121020377D01*
X95974663Y-121015633D01*
X96006768Y-121005201D01*
X96051888Y-121002362D01*
X96090915Y-120995656D01*
X96124934Y-120997767D01*
X96164619Y-120995270D01*
X96203147Y-121002620D01*
X96203147Y-121002620D01*
G37*
G36*
X103953147Y-121002620D02*
G01*
X103986612Y-121004696D01*
X104025034Y-121016333D01*
X104069982Y-121024907D01*
X104100030Y-121039047D01*
X104126317Y-121047008D01*
X104166290Y-121070226D01*
X104213093Y-121092250D01*
X104234038Y-121109577D01*
X104252545Y-121120327D01*
X104290539Y-121156319D01*
X104334961Y-121193068D01*
X104347389Y-121210173D01*
X104358517Y-121220715D01*
X104390588Y-121269632D01*
X104427928Y-121321025D01*
X104433485Y-121335059D01*
X104438555Y-121342793D01*
X104460684Y-121403758D01*
X104486152Y-121468083D01*
X104487283Y-121477038D01*
X104488361Y-121480007D01*
X104496769Y-121552126D01*
X104501000Y-121585618D01*
X104501000Y-122301080D01*
X104473040Y-122447652D01*
X104463945Y-122498200D01*
X104463071Y-122499912D01*
X104461666Y-122507277D01*
X104428573Y-122567473D01*
X104399352Y-122624699D01*
X104393006Y-122632169D01*
X104385469Y-122645878D01*
X104342335Y-122691812D01*
X104304838Y-122735947D01*
X104292054Y-122745355D01*
X104277198Y-122761175D01*
X104228955Y-122791791D01*
X104187269Y-122822468D01*
X104167074Y-122831061D01*
X104143655Y-122845923D01*
X104094967Y-122861743D01*
X104052946Y-122879623D01*
X104025337Y-122884367D01*
X103993232Y-122894799D01*
X103948112Y-122897638D01*
X103909085Y-122904344D01*
X103875066Y-122902233D01*
X103835381Y-122904730D01*
X103796853Y-122897380D01*
X103763388Y-122895304D01*
X103724966Y-122883667D01*
X103680018Y-122875093D01*
X103649970Y-122860953D01*
X103623683Y-122852992D01*
X103583712Y-122829775D01*
X103536907Y-122807750D01*
X103515959Y-122790420D01*
X103497458Y-122779674D01*
X103459480Y-122743697D01*
X103415039Y-122706932D01*
X103402605Y-122689818D01*
X103391482Y-122679281D01*
X103359420Y-122630380D01*
X103322072Y-122578974D01*
X103316515Y-122564940D01*
X103311445Y-122557206D01*
X103289316Y-122496241D01*
X103263848Y-122431916D01*
X103262717Y-122422961D01*
X103261639Y-122419992D01*
X103253231Y-122347873D01*
X103249000Y-122314381D01*
X103249000Y-121598920D01*
X103276958Y-121452360D01*
X103286055Y-121401799D01*
X103286929Y-121400087D01*
X103288334Y-121392723D01*
X103321422Y-121332537D01*
X103350649Y-121275300D01*
X103356997Y-121267828D01*
X103364532Y-121254122D01*
X103407652Y-121208203D01*
X103445159Y-121164055D01*
X103457947Y-121154644D01*
X103472802Y-121138825D01*
X103521044Y-121108210D01*
X103562731Y-121077532D01*
X103582926Y-121068939D01*
X103606345Y-121054077D01*
X103655033Y-121038257D01*
X103697054Y-121020377D01*
X103724663Y-121015633D01*
X103756768Y-121005201D01*
X103801888Y-121002362D01*
X103840915Y-120995656D01*
X103874934Y-120997767D01*
X103914619Y-120995270D01*
X103953147Y-121002620D01*
X103953147Y-121002620D01*
G37*
G36*
X96321478Y-117099001D02*
G01*
X96356563Y-117099001D01*
X96401395Y-117108530D01*
X96453321Y-117114722D01*
X96487080Y-117126743D01*
X96516116Y-117132915D01*
X96562871Y-117153731D01*
X96617328Y-117173123D01*
X96642959Y-117189389D01*
X96665137Y-117199263D01*
X96710826Y-117232459D01*
X96764321Y-117266407D01*
X96781856Y-117284065D01*
X96797105Y-117295144D01*
X96838385Y-117340990D01*
X96886994Y-117389939D01*
X96897276Y-117406394D01*
X96906255Y-117416366D01*
X96939639Y-117474190D01*
X96979250Y-117537580D01*
X96983828Y-117550727D01*
X96987816Y-117557634D01*
X97009862Y-117625487D01*
X97036504Y-117701991D01*
X97037445Y-117710378D01*
X97038223Y-117712773D01*
X97045806Y-117784920D01*
X97051000Y-117831226D01*
X97051000Y-118466176D01*
X97050544Y-118469997D01*
X97038223Y-118587227D01*
X97035605Y-118595286D01*
X97034014Y-118608625D01*
X97008445Y-118678875D01*
X96990080Y-118735397D01*
X96988069Y-118805801D01*
X97024440Y-118866116D01*
X97087646Y-118897192D01*
X97185055Y-118873193D01*
X97208826Y-118854953D01*
X97243637Y-118822774D01*
X97262679Y-118813630D01*
X97272555Y-118806052D01*
X97315535Y-118788249D01*
X97365890Y-118764069D01*
X97378481Y-118762176D01*
X97382264Y-118760609D01*
X97435652Y-118753581D01*
X97466118Y-118749000D01*
X97529555Y-118749000D01*
X97617736Y-118760609D01*
X97675768Y-118784647D01*
X97700654Y-118790415D01*
X97717047Y-118801745D01*
X97727445Y-118806052D01*
X97765245Y-118835057D01*
X97812218Y-118867522D01*
X97819358Y-118876579D01*
X97821657Y-118878343D01*
X97854817Y-118921558D01*
X97896178Y-118974024D01*
X97919119Y-119033323D01*
X97939391Y-119082264D01*
X97940081Y-119087508D01*
X97945110Y-119100506D01*
X97948970Y-119155025D01*
X97954891Y-119200000D01*
X97953111Y-119213517D01*
X97954688Y-119235785D01*
X97944253Y-119280802D01*
X97939391Y-119317736D01*
X97930993Y-119338011D01*
X97924065Y-119367899D01*
X97905060Y-119400619D01*
X97893948Y-119427446D01*
X97875555Y-119451416D01*
X97855950Y-119485169D01*
X97834296Y-119505186D01*
X97821657Y-119521657D01*
X97791173Y-119545048D01*
X97756363Y-119577226D01*
X97737321Y-119586370D01*
X97727445Y-119593948D01*
X97684465Y-119611751D01*
X97634110Y-119635931D01*
X97621519Y-119637824D01*
X97617736Y-119639391D01*
X97564348Y-119646419D01*
X97533882Y-119651000D01*
X97470445Y-119651000D01*
X97382264Y-119639391D01*
X97324232Y-119615353D01*
X97299346Y-119609585D01*
X97282953Y-119598255D01*
X97272555Y-119593948D01*
X97234755Y-119564943D01*
X97187782Y-119532478D01*
X97180642Y-119523421D01*
X97178343Y-119521657D01*
X97145183Y-119478442D01*
X97103822Y-119425976D01*
X97080881Y-119366677D01*
X97060609Y-119317736D01*
X97059919Y-119312492D01*
X97054890Y-119299494D01*
X97051030Y-119244975D01*
X97045109Y-119200000D01*
X97046889Y-119186483D01*
X97045312Y-119164215D01*
X97055747Y-119119198D01*
X97060609Y-119082264D01*
X97066100Y-119069008D01*
X97073629Y-118998979D01*
X97042102Y-118935997D01*
X96981529Y-118900057D01*
X96911142Y-118902571D01*
X96866957Y-118931489D01*
X96834895Y-118962886D01*
X96797106Y-119004855D01*
X96777465Y-119019125D01*
X96755775Y-119040365D01*
X96706537Y-119070657D01*
X96665134Y-119100737D01*
X96638016Y-119112811D01*
X96607494Y-119131588D01*
X96557992Y-119148440D01*
X96516115Y-119167085D01*
X96481794Y-119174380D01*
X96442688Y-119187693D01*
X96396149Y-119192584D01*
X96356562Y-119200999D01*
X96316092Y-119200999D01*
X96269548Y-119205891D01*
X96228522Y-119200999D01*
X96193437Y-119200999D01*
X96148605Y-119191470D01*
X96096679Y-119185278D01*
X96062920Y-119173257D01*
X96033884Y-119167085D01*
X95987129Y-119146269D01*
X95932672Y-119126877D01*
X95907041Y-119110611D01*
X95884863Y-119100737D01*
X95839174Y-119067541D01*
X95785679Y-119033593D01*
X95768144Y-119015935D01*
X95752895Y-119004856D01*
X95711612Y-118959007D01*
X95663006Y-118910060D01*
X95652724Y-118893605D01*
X95643744Y-118883632D01*
X95610353Y-118825798D01*
X95570750Y-118762419D01*
X95566173Y-118749275D01*
X95562185Y-118742368D01*
X95540138Y-118674513D01*
X95513496Y-118598008D01*
X95512555Y-118589621D01*
X95511777Y-118587226D01*
X95504194Y-118515079D01*
X95499000Y-118468773D01*
X95499000Y-117833824D01*
X95499456Y-117830003D01*
X95511777Y-117712773D01*
X95514395Y-117704714D01*
X95515986Y-117691375D01*
X95541553Y-117621131D01*
X95562184Y-117557634D01*
X95568894Y-117546012D01*
X95575530Y-117527780D01*
X95612897Y-117469799D01*
X95643746Y-117416367D01*
X95656359Y-117402359D01*
X95669839Y-117381442D01*
X95715110Y-117337110D01*
X95752898Y-117295142D01*
X95772536Y-117280874D01*
X95794225Y-117259635D01*
X95843456Y-117229348D01*
X95884863Y-117199264D01*
X95911986Y-117187188D01*
X95942506Y-117168412D01*
X95992007Y-117151560D01*
X96033885Y-117132915D01*
X96068206Y-117125620D01*
X96107312Y-117112307D01*
X96153851Y-117107416D01*
X96193438Y-117099001D01*
X96233908Y-117099001D01*
X96280452Y-117094109D01*
X96321478Y-117099001D01*
X96321478Y-117099001D01*
G37*
G36*
X103771478Y-117099001D02*
G01*
X103806563Y-117099001D01*
X103851395Y-117108530D01*
X103903321Y-117114722D01*
X103937080Y-117126743D01*
X103966116Y-117132915D01*
X104012871Y-117153731D01*
X104067328Y-117173123D01*
X104092959Y-117189389D01*
X104115137Y-117199263D01*
X104160826Y-117232459D01*
X104214321Y-117266407D01*
X104231856Y-117284065D01*
X104247105Y-117295144D01*
X104288385Y-117340990D01*
X104336994Y-117389939D01*
X104347276Y-117406394D01*
X104356255Y-117416366D01*
X104389639Y-117474190D01*
X104429250Y-117537580D01*
X104433828Y-117550727D01*
X104437816Y-117557634D01*
X104459862Y-117625487D01*
X104486504Y-117701991D01*
X104487445Y-117710378D01*
X104488223Y-117712773D01*
X104495806Y-117784920D01*
X104501000Y-117831226D01*
X104501000Y-118466176D01*
X104500544Y-118469997D01*
X104488223Y-118587227D01*
X104485605Y-118595286D01*
X104484014Y-118608625D01*
X104458447Y-118678869D01*
X104437816Y-118742366D01*
X104431106Y-118753989D01*
X104424470Y-118772220D01*
X104387109Y-118830193D01*
X104356255Y-118883634D01*
X104343640Y-118897644D01*
X104330162Y-118918558D01*
X104284898Y-118962883D01*
X104247106Y-119004855D01*
X104227465Y-119019125D01*
X104205775Y-119040365D01*
X104156537Y-119070657D01*
X104115134Y-119100737D01*
X104088016Y-119112811D01*
X104057494Y-119131588D01*
X104007992Y-119148440D01*
X103966115Y-119167085D01*
X103931794Y-119174380D01*
X103892688Y-119187693D01*
X103846149Y-119192584D01*
X103806562Y-119200999D01*
X103766092Y-119200999D01*
X103719548Y-119205891D01*
X103678522Y-119200999D01*
X103643437Y-119200999D01*
X103598605Y-119191470D01*
X103546679Y-119185278D01*
X103512920Y-119173257D01*
X103483884Y-119167085D01*
X103437129Y-119146269D01*
X103382672Y-119126877D01*
X103357041Y-119110611D01*
X103334863Y-119100737D01*
X103289174Y-119067541D01*
X103235679Y-119033593D01*
X103218144Y-119015935D01*
X103202895Y-119004856D01*
X103161612Y-118959007D01*
X103137152Y-118934375D01*
X103082310Y-118900588D01*
X103011890Y-118901930D01*
X102953374Y-118941130D01*
X102925341Y-119005743D01*
X102933900Y-119069008D01*
X102939391Y-119082264D01*
X102940081Y-119087508D01*
X102945110Y-119100506D01*
X102948970Y-119155025D01*
X102954891Y-119200000D01*
X102953111Y-119213517D01*
X102954688Y-119235785D01*
X102944253Y-119280802D01*
X102939391Y-119317736D01*
X102930993Y-119338011D01*
X102924065Y-119367899D01*
X102905060Y-119400619D01*
X102893948Y-119427446D01*
X102875555Y-119451416D01*
X102855950Y-119485169D01*
X102834296Y-119505186D01*
X102821657Y-119521657D01*
X102791173Y-119545048D01*
X102756363Y-119577226D01*
X102737321Y-119586370D01*
X102727445Y-119593948D01*
X102684465Y-119611751D01*
X102634110Y-119635931D01*
X102621519Y-119637824D01*
X102617736Y-119639391D01*
X102564348Y-119646419D01*
X102533882Y-119651000D01*
X102470445Y-119651000D01*
X102382264Y-119639391D01*
X102324232Y-119615353D01*
X102299346Y-119609585D01*
X102282953Y-119598255D01*
X102272555Y-119593948D01*
X102234755Y-119564943D01*
X102187782Y-119532478D01*
X102180642Y-119523421D01*
X102178343Y-119521657D01*
X102145183Y-119478442D01*
X102103822Y-119425976D01*
X102080881Y-119366677D01*
X102060609Y-119317736D01*
X102059919Y-119312492D01*
X102054890Y-119299494D01*
X102051030Y-119244975D01*
X102045109Y-119200000D01*
X102046889Y-119186483D01*
X102045312Y-119164215D01*
X102055747Y-119119198D01*
X102060609Y-119082264D01*
X102069007Y-119061989D01*
X102075935Y-119032101D01*
X102094940Y-118999381D01*
X102106052Y-118972554D01*
X102124445Y-118948584D01*
X102144050Y-118914831D01*
X102165704Y-118894814D01*
X102178343Y-118878343D01*
X102208827Y-118854952D01*
X102243637Y-118822774D01*
X102262679Y-118813630D01*
X102272555Y-118806052D01*
X102315535Y-118788249D01*
X102365890Y-118764069D01*
X102378481Y-118762176D01*
X102382264Y-118760609D01*
X102435652Y-118753581D01*
X102466118Y-118749000D01*
X102529555Y-118749000D01*
X102617736Y-118760609D01*
X102675768Y-118784647D01*
X102700654Y-118790415D01*
X102717047Y-118801745D01*
X102727445Y-118806052D01*
X102765239Y-118835053D01*
X102812218Y-118867522D01*
X102817454Y-118874163D01*
X102880638Y-118898591D01*
X102949635Y-118884439D01*
X103000027Y-118835232D01*
X103009920Y-118735399D01*
X102990128Y-118674485D01*
X102963496Y-118598008D01*
X102962556Y-118589624D01*
X102961777Y-118587228D01*
X102954193Y-118515067D01*
X102949000Y-118468773D01*
X102949000Y-117833824D01*
X102949456Y-117830003D01*
X102961777Y-117712773D01*
X102964395Y-117704714D01*
X102965986Y-117691375D01*
X102991553Y-117621131D01*
X103012184Y-117557634D01*
X103018894Y-117546012D01*
X103025530Y-117527780D01*
X103062897Y-117469799D01*
X103093746Y-117416367D01*
X103106359Y-117402359D01*
X103119839Y-117381442D01*
X103165110Y-117337110D01*
X103202898Y-117295142D01*
X103222536Y-117280874D01*
X103244225Y-117259635D01*
X103293456Y-117229348D01*
X103334863Y-117199264D01*
X103361986Y-117187188D01*
X103392506Y-117168412D01*
X103442007Y-117151560D01*
X103483885Y-117132915D01*
X103518206Y-117125620D01*
X103557312Y-117112307D01*
X103603851Y-117107416D01*
X103643438Y-117099001D01*
X103683908Y-117099001D01*
X103730452Y-117094109D01*
X103771478Y-117099001D01*
X103771478Y-117099001D01*
G37*
G36*
X98944900Y-117401959D02*
G01*
X98955555Y-117409079D01*
X99022770Y-117430125D01*
X99094445Y-117409079D01*
X99105100Y-117401959D01*
X99137312Y-117395552D01*
X99562688Y-117395552D01*
X99594900Y-117401959D01*
X99605555Y-117409079D01*
X99672770Y-117430125D01*
X99744445Y-117409079D01*
X99755100Y-117401959D01*
X99787312Y-117395552D01*
X100212688Y-117395552D01*
X100244900Y-117401959D01*
X100255555Y-117409079D01*
X100322770Y-117430125D01*
X100394445Y-117409079D01*
X100405100Y-117401959D01*
X100437312Y-117395552D01*
X100862688Y-117395552D01*
X100894900Y-117401959D01*
X100905555Y-117409079D01*
X100972770Y-117430125D01*
X101044445Y-117409079D01*
X101055100Y-117401959D01*
X101087312Y-117395552D01*
X101512688Y-117395552D01*
X101544899Y-117401959D01*
X101561769Y-117413231D01*
X101573041Y-117430101D01*
X101579448Y-117462312D01*
X101579448Y-118737688D01*
X101576999Y-118750000D01*
X101573041Y-118769899D01*
X101561769Y-118786769D01*
X101544899Y-118798041D01*
X101525000Y-118801999D01*
X101512688Y-118804448D01*
X101087312Y-118804448D01*
X101055100Y-118798041D01*
X101044445Y-118790921D01*
X100977230Y-118769875D01*
X100905555Y-118790921D01*
X100894900Y-118798041D01*
X100862688Y-118804448D01*
X100437312Y-118804448D01*
X100405100Y-118798041D01*
X100394445Y-118790921D01*
X100327230Y-118769875D01*
X100255555Y-118790921D01*
X100244900Y-118798041D01*
X100212688Y-118804448D01*
X99787312Y-118804448D01*
X99755100Y-118798041D01*
X99744445Y-118790921D01*
X99677230Y-118769875D01*
X99605555Y-118790921D01*
X99594900Y-118798041D01*
X99562688Y-118804448D01*
X99137312Y-118804448D01*
X99105100Y-118798041D01*
X99094445Y-118790921D01*
X99027230Y-118769875D01*
X98955555Y-118790921D01*
X98944900Y-118798041D01*
X98912688Y-118804448D01*
X98487312Y-118804448D01*
X98455101Y-118798041D01*
X98438231Y-118786769D01*
X98426959Y-118769899D01*
X98420552Y-118737688D01*
X98420552Y-117462312D01*
X98426959Y-117430101D01*
X98438231Y-117413231D01*
X98455101Y-117401959D01*
X98487312Y-117395552D01*
X98912688Y-117395552D01*
X98944900Y-117401959D01*
X98944900Y-117401959D01*
G37*
G36*
X90559899Y-112951959D02*
G01*
X90576769Y-112963231D01*
X90588041Y-112980101D01*
X90594448Y-113012312D01*
X90594448Y-114487688D01*
X90591999Y-114500000D01*
X90588041Y-114519899D01*
X90576769Y-114536769D01*
X90559899Y-114548041D01*
X90540000Y-114551999D01*
X90527688Y-114554448D01*
X85472312Y-114554448D01*
X85440101Y-114548041D01*
X85423231Y-114536769D01*
X85411959Y-114519899D01*
X85405552Y-114487688D01*
X85405552Y-113012312D01*
X85411959Y-112980101D01*
X85423231Y-112963231D01*
X85440101Y-112951959D01*
X85472312Y-112945552D01*
X90527688Y-112945552D01*
X90559899Y-112951959D01*
X90559899Y-112951959D01*
G37*
G36*
X114559899Y-112951959D02*
G01*
X114576769Y-112963231D01*
X114588041Y-112980101D01*
X114594448Y-113012312D01*
X114594448Y-114487688D01*
X114591999Y-114500000D01*
X114588041Y-114519899D01*
X114576769Y-114536769D01*
X114559899Y-114548041D01*
X114540000Y-114551999D01*
X114527688Y-114554448D01*
X109472312Y-114554448D01*
X109440101Y-114548041D01*
X109423231Y-114536769D01*
X109411959Y-114519899D01*
X109405552Y-114487688D01*
X109405552Y-113012312D01*
X109411959Y-112980101D01*
X109423231Y-112963231D01*
X109440101Y-112951959D01*
X109472312Y-112945552D01*
X114527688Y-112945552D01*
X114559899Y-112951959D01*
X114559899Y-112951959D01*
G37*
G36*
X90559899Y-109451959D02*
G01*
X90576769Y-109463231D01*
X90588041Y-109480101D01*
X90594448Y-109512312D01*
X90594448Y-110987688D01*
X90591999Y-111000000D01*
X90588041Y-111019899D01*
X90576769Y-111036769D01*
X90559899Y-111048041D01*
X90540000Y-111051999D01*
X90527688Y-111054448D01*
X85472312Y-111054448D01*
X85440101Y-111048041D01*
X85423231Y-111036769D01*
X85411959Y-111019899D01*
X85405552Y-110987688D01*
X85405552Y-109512312D01*
X85411959Y-109480101D01*
X85423231Y-109463231D01*
X85440101Y-109451959D01*
X85472312Y-109445552D01*
X90527688Y-109445552D01*
X90559899Y-109451959D01*
X90559899Y-109451959D01*
G37*
G36*
X114559899Y-109451959D02*
G01*
X114576769Y-109463231D01*
X114588041Y-109480101D01*
X114594448Y-109512312D01*
X114594448Y-110987688D01*
X114591999Y-111000000D01*
X114588041Y-111019899D01*
X114576769Y-111036769D01*
X114559899Y-111048041D01*
X114540000Y-111051999D01*
X114527688Y-111054448D01*
X109472312Y-111054448D01*
X109440101Y-111048041D01*
X109423231Y-111036769D01*
X109411959Y-111019899D01*
X109405552Y-110987688D01*
X109405552Y-109512312D01*
X109411959Y-109480101D01*
X109423231Y-109463231D01*
X109440101Y-109451959D01*
X109472312Y-109445552D01*
X114527688Y-109445552D01*
X114559899Y-109451959D01*
X114559899Y-109451959D01*
G37*
G36*
X100096675Y-106752627D02*
G01*
X100137905Y-106754680D01*
X100186080Y-106766468D01*
X100240954Y-106774963D01*
X100279728Y-106789383D01*
X100314176Y-106797812D01*
X100364544Y-106820925D01*
X100422037Y-106842307D01*
X100452173Y-106861138D01*
X100479107Y-106873498D01*
X100528922Y-106909097D01*
X100585880Y-106944688D01*
X100607387Y-106965168D01*
X100626749Y-106979005D01*
X100672931Y-107027585D01*
X100725790Y-107077922D01*
X100739404Y-107097511D01*
X100751782Y-107110531D01*
X100791083Y-107171866D01*
X100836052Y-107236569D01*
X100843145Y-107253119D01*
X100849683Y-107263322D01*
X100878818Y-107336349D01*
X100912162Y-107414146D01*
X100914606Y-107426051D01*
X100916928Y-107431872D01*
X100932813Y-107514748D01*
X100951010Y-107603400D01*
X100950988Y-107609580D01*
X100951056Y-107609932D01*
X100950404Y-107796704D01*
X100950335Y-107797053D01*
X100950313Y-107803237D01*
X100931491Y-107891785D01*
X100915034Y-107974522D01*
X100912671Y-107980327D01*
X100910144Y-107992215D01*
X100876246Y-108069806D01*
X100846613Y-108142599D01*
X100840009Y-108152748D01*
X100832797Y-108169257D01*
X100787357Y-108233672D01*
X100747645Y-108294707D01*
X100735180Y-108307637D01*
X100721430Y-108327129D01*
X100668221Y-108377096D01*
X100621704Y-108425349D01*
X100602248Y-108439048D01*
X100580593Y-108459384D01*
X100523380Y-108494582D01*
X100473323Y-108529828D01*
X100446302Y-108542000D01*
X100416039Y-108560618D01*
X100358399Y-108581597D01*
X100307868Y-108604360D01*
X100273362Y-108612549D01*
X100234490Y-108626697D01*
X100179568Y-108634807D01*
X100131307Y-108646260D01*
X100090057Y-108648025D01*
X100043363Y-108654920D01*
X99993741Y-108652146D01*
X99950000Y-108654017D01*
X99903403Y-108647095D01*
X99850464Y-108644135D01*
X99808057Y-108632931D01*
X99770504Y-108627352D01*
X99720566Y-108609815D01*
X99663673Y-108594783D01*
X99629600Y-108577869D01*
X99599288Y-108567224D01*
X99548557Y-108537639D01*
X99490621Y-108508879D01*
X99465245Y-108489053D01*
X99442528Y-108475805D01*
X99393930Y-108433335D01*
X99338378Y-108389933D01*
X99321292Y-108369857D01*
X99305884Y-108356392D01*
X99262628Y-108300928D01*
X99213161Y-108242804D01*
X99203277Y-108224825D01*
X99194285Y-108213295D01*
X99159661Y-108145488D01*
X99120086Y-108073501D01*
X99115749Y-108059492D01*
X99111760Y-108051679D01*
X99088983Y-107973022D01*
X99062955Y-107888941D01*
X99062095Y-107880173D01*
X99061285Y-107877375D01*
X99053295Y-107790423D01*
X99044102Y-107696663D01*
X99053949Y-107602976D01*
X99062546Y-107516079D01*
X99063376Y-107513287D01*
X99064297Y-107504521D01*
X99090920Y-107420594D01*
X99114237Y-107342129D01*
X99118280Y-107334346D01*
X99122715Y-107320365D01*
X99162811Y-107248621D01*
X99197891Y-107181090D01*
X99206956Y-107169632D01*
X99216969Y-107151716D01*
X99266849Y-107093930D01*
X99310484Y-107038776D01*
X99325984Y-107025420D01*
X99343210Y-107005464D01*
X99399069Y-106962447D01*
X99447959Y-106920321D01*
X99470768Y-106907232D01*
X99496281Y-106887584D01*
X99554401Y-106859237D01*
X99605350Y-106829999D01*
X99635746Y-106819562D01*
X99669928Y-106802891D01*
X99726921Y-106788258D01*
X99776983Y-106771069D01*
X99814572Y-106765753D01*
X99857059Y-106754844D01*
X99910020Y-106752254D01*
X99956663Y-106745657D01*
X100000388Y-106747834D01*
X100050028Y-106745406D01*
X100096675Y-106752627D01*
X100096675Y-106752627D01*
G37*
G36*
X102017381Y-107146783D02*
G01*
X102040734Y-107145314D01*
X102091992Y-107156209D01*
X102135218Y-107161670D01*
X102156974Y-107170021D01*
X102188399Y-107176701D01*
X102227154Y-107196961D01*
X102259724Y-107209464D01*
X102285993Y-107227721D01*
X102322185Y-107246642D01*
X102347727Y-107270628D01*
X102369239Y-107285579D01*
X102396135Y-107316086D01*
X102432233Y-107349985D01*
X102445865Y-107372493D01*
X102457433Y-107385615D01*
X102480289Y-107429334D01*
X102510437Y-107479114D01*
X102515164Y-107496043D01*
X102519220Y-107503802D01*
X102533047Y-107560095D01*
X102551034Y-107624518D01*
X102549333Y-107787006D01*
X102529987Y-107851082D01*
X102514997Y-107907026D01*
X102510781Y-107914695D01*
X102505699Y-107931527D01*
X102474508Y-107980676D01*
X102450747Y-108023898D01*
X102438908Y-108036772D01*
X102424808Y-108058991D01*
X102388006Y-108092128D01*
X102360478Y-108122064D01*
X102338657Y-108136562D01*
X102312620Y-108160006D01*
X102276045Y-108178162D01*
X102249394Y-108195869D01*
X102216565Y-108207688D01*
X102177399Y-108227130D01*
X102145839Y-108233150D01*
X102123916Y-108241043D01*
X102080593Y-108245597D01*
X102029108Y-108255418D01*
X102005787Y-108253460D01*
X101991284Y-108254984D01*
X101939548Y-108247897D01*
X101878673Y-108242785D01*
X101864937Y-108237677D01*
X101859150Y-108236884D01*
X101802595Y-108214492D01*
X101737177Y-108190163D01*
X101678252Y-108147352D01*
X101626441Y-108110532D01*
X101624537Y-108108326D01*
X101615044Y-108101429D01*
X101575302Y-108051287D01*
X101539300Y-108009579D01*
X101534001Y-107999179D01*
X101521272Y-107983119D01*
X101499838Y-107932129D01*
X101478754Y-107890749D01*
X101474096Y-107870892D01*
X101462771Y-107843950D01*
X101456928Y-107797696D01*
X101448299Y-107760909D01*
X101448604Y-107731808D01*
X101443850Y-107694176D01*
X101449392Y-107656647D01*
X101449697Y-107627552D01*
X101459092Y-107590961D01*
X101465904Y-107544831D01*
X101477791Y-107518132D01*
X101482864Y-107498375D01*
X101504815Y-107457436D01*
X101527307Y-107406918D01*
X101540366Y-107391132D01*
X101545883Y-107380843D01*
X101582753Y-107339895D01*
X101623535Y-107290598D01*
X101633171Y-107283901D01*
X101635122Y-107281734D01*
X101687700Y-107246002D01*
X101747500Y-107204440D01*
X101813435Y-107181479D01*
X101870424Y-107160285D01*
X101876223Y-107159614D01*
X101890067Y-107154793D01*
X101951037Y-107150957D01*
X102002909Y-107144955D01*
X102017381Y-107146783D01*
X102017381Y-107146783D01*
G37*
G36*
X97703001Y-103122771D02*
G01*
X97733288Y-103120866D01*
X97768486Y-103127580D01*
X97810389Y-103130657D01*
X97839430Y-103141113D01*
X97863836Y-103145768D01*
X97901211Y-103163355D01*
X97945984Y-103179475D01*
X97966598Y-103194125D01*
X97984082Y-103202352D01*
X98020077Y-103232130D01*
X98063457Y-103262958D01*
X98075867Y-103278283D01*
X98086486Y-103287068D01*
X98117080Y-103329177D01*
X98154151Y-103374956D01*
X98159764Y-103387926D01*
X98164601Y-103394584D01*
X98185642Y-103447726D01*
X98211386Y-103507218D01*
X98212544Y-103515675D01*
X98213524Y-103518149D01*
X98221119Y-103578272D01*
X98226000Y-103613901D01*
X98226000Y-104473264D01*
X98211197Y-104542907D01*
X98191019Y-104648683D01*
X98187260Y-104655521D01*
X98185042Y-104665955D01*
X98153997Y-104716025D01*
X98128924Y-104761633D01*
X98119491Y-104771678D01*
X98109100Y-104788437D01*
X98069928Y-104824458D01*
X98037950Y-104858511D01*
X98021638Y-104868863D01*
X98003018Y-104885985D01*
X97960608Y-104907594D01*
X97925740Y-104929722D01*
X97902111Y-104937399D01*
X97874610Y-104951412D01*
X97833430Y-104959715D01*
X97799345Y-104970790D01*
X97769053Y-104972696D01*
X97733338Y-104979897D01*
X97696999Y-104977229D01*
X97666712Y-104979134D01*
X97631514Y-104972420D01*
X97589611Y-104969343D01*
X97560570Y-104958887D01*
X97536164Y-104954232D01*
X97498789Y-104936645D01*
X97454016Y-104920525D01*
X97433402Y-104905875D01*
X97415918Y-104897648D01*
X97379921Y-104867869D01*
X97336544Y-104837042D01*
X97324134Y-104821717D01*
X97313515Y-104812932D01*
X97282921Y-104770823D01*
X97245850Y-104725044D01*
X97240237Y-104712074D01*
X97235400Y-104705416D01*
X97214359Y-104652274D01*
X97188615Y-104592782D01*
X97187456Y-104584325D01*
X97186477Y-104581851D01*
X97178884Y-104521747D01*
X97174000Y-104486099D01*
X97174000Y-103626737D01*
X97188803Y-103557094D01*
X97208981Y-103451318D01*
X97212740Y-103444480D01*
X97214958Y-103434046D01*
X97246000Y-103383980D01*
X97271074Y-103338370D01*
X97280508Y-103328324D01*
X97290900Y-103311563D01*
X97330080Y-103275535D01*
X97362053Y-103241487D01*
X97378362Y-103231137D01*
X97396982Y-103214015D01*
X97439391Y-103192406D01*
X97474260Y-103170278D01*
X97497889Y-103162601D01*
X97525390Y-103148588D01*
X97566570Y-103140285D01*
X97600655Y-103129210D01*
X97630947Y-103127304D01*
X97666662Y-103120103D01*
X97703001Y-103122771D01*
X97703001Y-103122771D01*
G37*
G36*
X102303001Y-103122771D02*
G01*
X102333288Y-103120866D01*
X102368486Y-103127580D01*
X102410389Y-103130657D01*
X102439430Y-103141113D01*
X102463836Y-103145768D01*
X102501211Y-103163355D01*
X102545984Y-103179475D01*
X102566598Y-103194125D01*
X102584082Y-103202352D01*
X102620077Y-103232130D01*
X102663457Y-103262958D01*
X102675867Y-103278283D01*
X102686486Y-103287068D01*
X102717080Y-103329177D01*
X102754151Y-103374956D01*
X102759764Y-103387926D01*
X102764601Y-103394584D01*
X102785642Y-103447726D01*
X102811386Y-103507218D01*
X102812544Y-103515675D01*
X102813524Y-103518149D01*
X102821119Y-103578272D01*
X102826000Y-103613901D01*
X102826000Y-104473264D01*
X102811197Y-104542907D01*
X102791019Y-104648683D01*
X102787260Y-104655521D01*
X102785042Y-104665955D01*
X102753997Y-104716025D01*
X102728924Y-104761633D01*
X102719491Y-104771678D01*
X102709100Y-104788437D01*
X102669928Y-104824458D01*
X102637950Y-104858511D01*
X102621638Y-104868863D01*
X102603018Y-104885985D01*
X102560608Y-104907594D01*
X102525740Y-104929722D01*
X102502111Y-104937399D01*
X102474610Y-104951412D01*
X102433430Y-104959715D01*
X102399345Y-104970790D01*
X102369053Y-104972696D01*
X102333338Y-104979897D01*
X102296999Y-104977229D01*
X102266712Y-104979134D01*
X102231514Y-104972420D01*
X102189611Y-104969343D01*
X102160570Y-104958887D01*
X102136164Y-104954232D01*
X102098789Y-104936645D01*
X102054016Y-104920525D01*
X102033402Y-104905875D01*
X102015918Y-104897648D01*
X101979921Y-104867869D01*
X101936544Y-104837042D01*
X101924134Y-104821717D01*
X101913515Y-104812932D01*
X101882921Y-104770823D01*
X101845850Y-104725044D01*
X101840237Y-104712074D01*
X101835400Y-104705416D01*
X101814359Y-104652274D01*
X101788615Y-104592782D01*
X101787456Y-104584325D01*
X101786477Y-104581851D01*
X101778884Y-104521747D01*
X101774000Y-104486099D01*
X101774000Y-103626737D01*
X101788803Y-103557094D01*
X101808981Y-103451318D01*
X101812740Y-103444480D01*
X101814958Y-103434046D01*
X101846000Y-103383980D01*
X101871074Y-103338370D01*
X101880508Y-103328324D01*
X101890900Y-103311563D01*
X101930080Y-103275535D01*
X101962053Y-103241487D01*
X101978362Y-103231137D01*
X101996982Y-103214015D01*
X102039391Y-103192406D01*
X102074260Y-103170278D01*
X102097889Y-103162601D01*
X102125390Y-103148588D01*
X102166570Y-103140285D01*
X102200655Y-103129210D01*
X102230947Y-103127304D01*
X102266662Y-103120103D01*
X102303001Y-103122771D01*
X102303001Y-103122771D01*
G37*
G36*
X100003001Y-103122771D02*
G01*
X100033288Y-103120866D01*
X100068486Y-103127580D01*
X100110389Y-103130657D01*
X100139430Y-103141113D01*
X100163836Y-103145768D01*
X100201211Y-103163355D01*
X100245984Y-103179475D01*
X100266598Y-103194125D01*
X100284082Y-103202352D01*
X100320077Y-103232130D01*
X100363457Y-103262958D01*
X100375867Y-103278283D01*
X100386486Y-103287068D01*
X100417080Y-103329177D01*
X100454151Y-103374956D01*
X100459764Y-103387926D01*
X100464601Y-103394584D01*
X100485642Y-103447726D01*
X100511386Y-103507218D01*
X100512544Y-103515675D01*
X100513524Y-103518149D01*
X100521119Y-103578272D01*
X100526000Y-103613901D01*
X100526000Y-104473264D01*
X100511197Y-104542907D01*
X100491019Y-104648683D01*
X100487260Y-104655521D01*
X100485042Y-104665955D01*
X100453997Y-104716025D01*
X100428924Y-104761633D01*
X100419491Y-104771678D01*
X100409100Y-104788437D01*
X100369928Y-104824458D01*
X100337950Y-104858511D01*
X100321638Y-104868863D01*
X100303018Y-104885985D01*
X100260608Y-104907594D01*
X100225740Y-104929722D01*
X100202111Y-104937399D01*
X100174610Y-104951412D01*
X100133430Y-104959715D01*
X100099345Y-104970790D01*
X100069053Y-104972696D01*
X100033338Y-104979897D01*
X99996999Y-104977229D01*
X99966712Y-104979134D01*
X99931514Y-104972420D01*
X99889611Y-104969343D01*
X99860570Y-104958887D01*
X99836164Y-104954232D01*
X99798789Y-104936645D01*
X99754016Y-104920525D01*
X99733402Y-104905875D01*
X99715918Y-104897648D01*
X99679921Y-104867869D01*
X99636544Y-104837042D01*
X99624134Y-104821717D01*
X99613515Y-104812932D01*
X99582921Y-104770823D01*
X99545850Y-104725044D01*
X99540237Y-104712074D01*
X99535400Y-104705416D01*
X99514359Y-104652274D01*
X99488615Y-104592782D01*
X99487456Y-104584325D01*
X99486477Y-104581851D01*
X99478884Y-104521747D01*
X99474000Y-104486099D01*
X99474000Y-103626737D01*
X99488803Y-103557094D01*
X99508981Y-103451318D01*
X99512740Y-103444480D01*
X99514958Y-103434046D01*
X99546000Y-103383980D01*
X99571074Y-103338370D01*
X99580508Y-103328324D01*
X99590900Y-103311563D01*
X99630080Y-103275535D01*
X99662053Y-103241487D01*
X99678362Y-103231137D01*
X99696982Y-103214015D01*
X99739391Y-103192406D01*
X99774260Y-103170278D01*
X99797889Y-103162601D01*
X99825390Y-103148588D01*
X99866570Y-103140285D01*
X99900655Y-103129210D01*
X99930947Y-103127304D01*
X99966662Y-103120103D01*
X100003001Y-103122771D01*
X100003001Y-103122771D01*
G37*
G36*
X114559899Y-100951959D02*
G01*
X114576769Y-100963231D01*
X114588041Y-100980101D01*
X114594448Y-101012312D01*
X114594448Y-102487688D01*
X114591999Y-102500000D01*
X114588041Y-102519899D01*
X114576769Y-102536769D01*
X114559899Y-102548041D01*
X114540000Y-102551999D01*
X114527688Y-102554448D01*
X109472312Y-102554448D01*
X109440101Y-102548041D01*
X109423231Y-102536769D01*
X109411959Y-102519899D01*
X109405552Y-102487688D01*
X109405552Y-101012312D01*
X109411959Y-100980101D01*
X109423231Y-100963231D01*
X109440101Y-100951959D01*
X109472312Y-100945552D01*
X114527688Y-100945552D01*
X114559899Y-100951959D01*
X114559899Y-100951959D01*
G37*
G36*
X90559899Y-100951959D02*
G01*
X90576769Y-100963231D01*
X90588041Y-100980101D01*
X90594448Y-101012312D01*
X90594448Y-102487688D01*
X90591999Y-102500000D01*
X90588041Y-102519899D01*
X90576769Y-102536769D01*
X90559899Y-102548041D01*
X90540000Y-102551999D01*
X90527688Y-102554448D01*
X85472312Y-102554448D01*
X85440101Y-102548041D01*
X85423231Y-102536769D01*
X85411959Y-102519899D01*
X85405552Y-102487688D01*
X85405552Y-101012312D01*
X85411959Y-100980101D01*
X85423231Y-100963231D01*
X85440101Y-100951959D01*
X85472312Y-100945552D01*
X90527688Y-100945552D01*
X90559899Y-100951959D01*
X90559899Y-100951959D01*
G37*
G36*
X90559899Y-97451959D02*
G01*
X90576769Y-97463231D01*
X90588041Y-97480101D01*
X90594448Y-97512312D01*
X90594448Y-98987688D01*
X90591999Y-99000000D01*
X90588041Y-99019899D01*
X90576769Y-99036769D01*
X90559899Y-99048041D01*
X90540000Y-99051999D01*
X90527688Y-99054448D01*
X85472312Y-99054448D01*
X85440101Y-99048041D01*
X85423231Y-99036769D01*
X85411959Y-99019899D01*
X85405552Y-98987688D01*
X85405552Y-97512312D01*
X85411959Y-97480101D01*
X85423231Y-97463231D01*
X85440101Y-97451959D01*
X85472312Y-97445552D01*
X90527688Y-97445552D01*
X90559899Y-97451959D01*
X90559899Y-97451959D01*
G37*
G36*
X114559899Y-97451959D02*
G01*
X114576769Y-97463231D01*
X114588041Y-97480101D01*
X114594448Y-97512312D01*
X114594448Y-98987688D01*
X114591999Y-99000000D01*
X114588041Y-99019899D01*
X114576769Y-99036769D01*
X114559899Y-99048041D01*
X114540000Y-99051999D01*
X114527688Y-99054448D01*
X109472312Y-99054448D01*
X109440101Y-99048041D01*
X109423231Y-99036769D01*
X109411959Y-99019899D01*
X109405552Y-98987688D01*
X109405552Y-97512312D01*
X109411959Y-97480101D01*
X109423231Y-97463231D01*
X109440101Y-97451959D01*
X109472312Y-97445552D01*
X114527688Y-97445552D01*
X114559899Y-97451959D01*
X114559899Y-97451959D01*
G37*
G36*
X102303001Y-95022771D02*
G01*
X102333288Y-95020866D01*
X102368486Y-95027580D01*
X102410389Y-95030657D01*
X102439430Y-95041113D01*
X102463836Y-95045768D01*
X102501211Y-95063355D01*
X102545984Y-95079475D01*
X102566598Y-95094125D01*
X102584082Y-95102352D01*
X102620077Y-95132130D01*
X102663457Y-95162958D01*
X102675867Y-95178283D01*
X102686486Y-95187068D01*
X102717080Y-95229177D01*
X102754151Y-95274956D01*
X102759764Y-95287926D01*
X102764601Y-95294584D01*
X102785642Y-95347726D01*
X102811386Y-95407218D01*
X102812544Y-95415675D01*
X102813524Y-95418149D01*
X102821119Y-95478272D01*
X102826000Y-95513901D01*
X102826000Y-96373264D01*
X102811197Y-96442907D01*
X102791019Y-96548683D01*
X102787260Y-96555521D01*
X102785042Y-96565955D01*
X102753997Y-96616025D01*
X102728924Y-96661633D01*
X102719491Y-96671678D01*
X102709100Y-96688437D01*
X102669928Y-96724458D01*
X102637950Y-96758511D01*
X102621638Y-96768863D01*
X102603018Y-96785985D01*
X102560608Y-96807594D01*
X102525740Y-96829722D01*
X102502111Y-96837399D01*
X102474610Y-96851412D01*
X102433430Y-96859715D01*
X102399345Y-96870790D01*
X102369053Y-96872696D01*
X102333338Y-96879897D01*
X102296999Y-96877229D01*
X102266712Y-96879134D01*
X102231514Y-96872420D01*
X102189611Y-96869343D01*
X102160570Y-96858887D01*
X102136164Y-96854232D01*
X102098789Y-96836645D01*
X102054016Y-96820525D01*
X102033402Y-96805875D01*
X102015918Y-96797648D01*
X101979921Y-96767869D01*
X101936544Y-96737042D01*
X101924134Y-96721717D01*
X101913515Y-96712932D01*
X101882921Y-96670823D01*
X101845850Y-96625044D01*
X101840237Y-96612074D01*
X101835400Y-96605416D01*
X101814359Y-96552274D01*
X101788615Y-96492782D01*
X101787456Y-96484325D01*
X101786477Y-96481851D01*
X101778884Y-96421747D01*
X101774000Y-96386099D01*
X101774000Y-95526737D01*
X101788803Y-95457094D01*
X101808981Y-95351318D01*
X101812740Y-95344480D01*
X101814958Y-95334046D01*
X101846000Y-95283980D01*
X101871074Y-95238370D01*
X101880508Y-95228324D01*
X101890900Y-95211563D01*
X101930080Y-95175535D01*
X101962053Y-95141487D01*
X101978362Y-95131137D01*
X101996982Y-95114015D01*
X102039391Y-95092406D01*
X102074260Y-95070278D01*
X102097889Y-95062601D01*
X102125390Y-95048588D01*
X102166570Y-95040285D01*
X102200655Y-95029210D01*
X102230947Y-95027304D01*
X102266662Y-95020103D01*
X102303001Y-95022771D01*
X102303001Y-95022771D01*
G37*
G36*
X97703001Y-95022771D02*
G01*
X97733288Y-95020866D01*
X97768486Y-95027580D01*
X97810389Y-95030657D01*
X97839430Y-95041113D01*
X97863836Y-95045768D01*
X97901211Y-95063355D01*
X97945984Y-95079475D01*
X97966598Y-95094125D01*
X97984082Y-95102352D01*
X98020077Y-95132130D01*
X98063457Y-95162958D01*
X98075867Y-95178283D01*
X98086486Y-95187068D01*
X98117080Y-95229177D01*
X98154151Y-95274956D01*
X98159764Y-95287926D01*
X98164601Y-95294584D01*
X98185642Y-95347726D01*
X98211386Y-95407218D01*
X98212544Y-95415675D01*
X98213524Y-95418149D01*
X98221119Y-95478272D01*
X98226000Y-95513901D01*
X98226000Y-96373264D01*
X98211197Y-96442907D01*
X98191019Y-96548683D01*
X98187260Y-96555521D01*
X98185042Y-96565955D01*
X98153997Y-96616025D01*
X98128924Y-96661633D01*
X98119491Y-96671678D01*
X98109100Y-96688437D01*
X98069928Y-96724458D01*
X98037950Y-96758511D01*
X98021638Y-96768863D01*
X98003018Y-96785985D01*
X97960608Y-96807594D01*
X97925740Y-96829722D01*
X97902111Y-96837399D01*
X97874610Y-96851412D01*
X97833430Y-96859715D01*
X97799345Y-96870790D01*
X97769053Y-96872696D01*
X97733338Y-96879897D01*
X97696999Y-96877229D01*
X97666712Y-96879134D01*
X97631514Y-96872420D01*
X97589611Y-96869343D01*
X97560570Y-96858887D01*
X97536164Y-96854232D01*
X97498789Y-96836645D01*
X97454016Y-96820525D01*
X97433402Y-96805875D01*
X97415918Y-96797648D01*
X97379921Y-96767869D01*
X97336544Y-96737042D01*
X97324134Y-96721717D01*
X97313515Y-96712932D01*
X97282921Y-96670823D01*
X97245850Y-96625044D01*
X97240237Y-96612074D01*
X97235400Y-96605416D01*
X97214359Y-96552274D01*
X97188615Y-96492782D01*
X97187456Y-96484325D01*
X97186477Y-96481851D01*
X97178884Y-96421747D01*
X97174000Y-96386099D01*
X97174000Y-95526737D01*
X97188803Y-95457094D01*
X97208981Y-95351318D01*
X97212740Y-95344480D01*
X97214958Y-95334046D01*
X97246000Y-95283980D01*
X97271074Y-95238370D01*
X97280508Y-95228324D01*
X97290900Y-95211563D01*
X97330080Y-95175535D01*
X97362053Y-95141487D01*
X97378362Y-95131137D01*
X97396982Y-95114015D01*
X97439391Y-95092406D01*
X97474260Y-95070278D01*
X97497889Y-95062601D01*
X97525390Y-95048588D01*
X97566570Y-95040285D01*
X97600655Y-95029210D01*
X97630947Y-95027304D01*
X97666662Y-95020103D01*
X97703001Y-95022771D01*
X97703001Y-95022771D01*
G37*
G36*
X100021681Y-95149074D02*
G01*
X100069565Y-95149325D01*
X100087939Y-95153940D01*
X100115635Y-95155974D01*
X100160860Y-95172256D01*
X100198910Y-95181813D01*
X100223349Y-95194753D01*
X100257675Y-95207111D01*
X100289782Y-95229928D01*
X100316776Y-95244221D01*
X100343904Y-95268390D01*
X100380731Y-95294562D01*
X100400034Y-95318400D01*
X100416351Y-95332937D01*
X100441846Y-95370033D01*
X100475736Y-95411884D01*
X100484453Y-95432029D01*
X100491890Y-95442849D01*
X100510858Y-95493044D01*
X100535692Y-95550432D01*
X100537482Y-95563503D01*
X100539030Y-95567598D01*
X100546504Y-95629366D01*
X100551000Y-95662185D01*
X100551000Y-96231432D01*
X100537494Y-96338343D01*
X100513926Y-96398792D01*
X100508096Y-96426219D01*
X100494993Y-96447352D01*
X100489168Y-96462292D01*
X100459976Y-96503828D01*
X100428544Y-96554522D01*
X100416680Y-96565431D01*
X100412484Y-96571402D01*
X100367731Y-96610442D01*
X100317419Y-96656707D01*
X100251097Y-96690500D01*
X100193476Y-96720240D01*
X100192061Y-96720580D01*
X100182909Y-96725243D01*
X100118760Y-96738178D01*
X100063796Y-96751374D01*
X100053583Y-96751320D01*
X100034923Y-96755083D01*
X99978319Y-96750926D01*
X99930435Y-96750675D01*
X99912061Y-96746060D01*
X99884365Y-96744026D01*
X99839140Y-96727744D01*
X99801090Y-96718187D01*
X99776651Y-96705247D01*
X99742325Y-96692889D01*
X99710219Y-96670072D01*
X99683224Y-96655779D01*
X99656096Y-96631609D01*
X99619270Y-96605438D01*
X99599965Y-96581599D01*
X99583652Y-96567064D01*
X99558159Y-96529972D01*
X99524265Y-96488116D01*
X99515548Y-96467973D01*
X99508109Y-96457149D01*
X99489138Y-96406946D01*
X99464308Y-96349568D01*
X99462518Y-96336497D01*
X99460970Y-96332402D01*
X99453496Y-96270634D01*
X99449000Y-96237815D01*
X99449000Y-95668569D01*
X99462506Y-95561658D01*
X99486074Y-95501209D01*
X99491904Y-95473782D01*
X99505007Y-95452649D01*
X99510832Y-95437709D01*
X99540021Y-95396177D01*
X99571456Y-95345478D01*
X99583322Y-95334567D01*
X99587516Y-95328599D01*
X99632257Y-95289568D01*
X99682581Y-95243293D01*
X99748903Y-95209500D01*
X99806524Y-95179760D01*
X99807939Y-95179420D01*
X99817091Y-95174757D01*
X99881240Y-95161822D01*
X99936204Y-95148626D01*
X99946417Y-95148680D01*
X99965077Y-95144917D01*
X100021681Y-95149074D01*
X100021681Y-95149074D01*
G37*
G36*
X100096675Y-91352627D02*
G01*
X100137905Y-91354680D01*
X100186080Y-91366468D01*
X100240954Y-91374963D01*
X100279728Y-91389383D01*
X100314176Y-91397812D01*
X100364544Y-91420925D01*
X100422037Y-91442307D01*
X100452173Y-91461138D01*
X100479107Y-91473498D01*
X100528922Y-91509097D01*
X100585880Y-91544688D01*
X100607387Y-91565168D01*
X100626749Y-91579005D01*
X100672931Y-91627585D01*
X100725790Y-91677922D01*
X100739404Y-91697511D01*
X100751782Y-91710531D01*
X100791083Y-91771866D01*
X100836052Y-91836569D01*
X100843145Y-91853119D01*
X100849683Y-91863322D01*
X100878818Y-91936349D01*
X100912162Y-92014146D01*
X100914606Y-92026051D01*
X100916928Y-92031872D01*
X100932813Y-92114748D01*
X100951010Y-92203400D01*
X100950988Y-92209580D01*
X100951056Y-92209932D01*
X100950404Y-92396704D01*
X100950335Y-92397053D01*
X100950313Y-92403237D01*
X100931491Y-92491785D01*
X100915034Y-92574522D01*
X100912671Y-92580327D01*
X100910144Y-92592215D01*
X100876246Y-92669806D01*
X100846613Y-92742599D01*
X100840009Y-92752748D01*
X100832797Y-92769257D01*
X100787357Y-92833672D01*
X100747645Y-92894707D01*
X100735180Y-92907637D01*
X100721430Y-92927129D01*
X100668221Y-92977096D01*
X100621704Y-93025349D01*
X100602248Y-93039048D01*
X100580593Y-93059384D01*
X100523380Y-93094582D01*
X100473323Y-93129828D01*
X100446302Y-93142000D01*
X100416039Y-93160618D01*
X100358399Y-93181597D01*
X100307868Y-93204360D01*
X100273362Y-93212549D01*
X100234490Y-93226697D01*
X100179568Y-93234807D01*
X100131307Y-93246260D01*
X100090057Y-93248025D01*
X100043363Y-93254920D01*
X99993741Y-93252146D01*
X99950000Y-93254017D01*
X99903403Y-93247095D01*
X99850464Y-93244135D01*
X99808057Y-93232931D01*
X99770504Y-93227352D01*
X99720566Y-93209815D01*
X99663673Y-93194783D01*
X99629600Y-93177869D01*
X99599288Y-93167224D01*
X99548557Y-93137639D01*
X99490621Y-93108879D01*
X99465245Y-93089053D01*
X99442528Y-93075805D01*
X99393930Y-93033335D01*
X99338378Y-92989933D01*
X99321292Y-92969857D01*
X99305884Y-92956392D01*
X99262628Y-92900928D01*
X99213161Y-92842804D01*
X99203277Y-92824825D01*
X99194285Y-92813295D01*
X99159661Y-92745488D01*
X99120086Y-92673501D01*
X99115749Y-92659492D01*
X99111760Y-92651679D01*
X99088983Y-92573022D01*
X99062955Y-92488941D01*
X99062095Y-92480173D01*
X99061285Y-92477375D01*
X99053295Y-92390423D01*
X99044102Y-92296663D01*
X99053949Y-92202976D01*
X99062546Y-92116079D01*
X99063376Y-92113287D01*
X99064297Y-92104521D01*
X99090920Y-92020594D01*
X99114237Y-91942129D01*
X99118280Y-91934346D01*
X99122715Y-91920365D01*
X99162811Y-91848621D01*
X99197891Y-91781090D01*
X99206956Y-91769632D01*
X99216969Y-91751716D01*
X99266849Y-91693930D01*
X99310484Y-91638776D01*
X99325984Y-91625420D01*
X99343210Y-91605464D01*
X99399069Y-91562447D01*
X99447959Y-91520321D01*
X99470768Y-91507232D01*
X99496281Y-91487584D01*
X99554401Y-91459237D01*
X99605350Y-91429999D01*
X99635746Y-91419562D01*
X99669928Y-91402891D01*
X99726921Y-91388258D01*
X99776983Y-91371069D01*
X99814572Y-91365753D01*
X99857059Y-91354844D01*
X99910020Y-91352254D01*
X99956663Y-91345657D01*
X100000388Y-91347834D01*
X100050028Y-91345406D01*
X100096675Y-91352627D01*
X100096675Y-91352627D01*
G37*
G36*
X102017381Y-91746783D02*
G01*
X102040734Y-91745314D01*
X102091992Y-91756209D01*
X102135218Y-91761670D01*
X102156974Y-91770021D01*
X102188399Y-91776701D01*
X102227154Y-91796961D01*
X102259724Y-91809464D01*
X102285993Y-91827721D01*
X102322185Y-91846642D01*
X102347727Y-91870628D01*
X102369239Y-91885579D01*
X102396135Y-91916086D01*
X102432233Y-91949985D01*
X102445865Y-91972493D01*
X102457433Y-91985615D01*
X102480289Y-92029334D01*
X102510437Y-92079114D01*
X102515164Y-92096043D01*
X102519220Y-92103802D01*
X102533047Y-92160095D01*
X102551034Y-92224518D01*
X102549333Y-92387006D01*
X102529987Y-92451082D01*
X102514997Y-92507026D01*
X102510781Y-92514695D01*
X102505699Y-92531527D01*
X102474508Y-92580676D01*
X102450747Y-92623898D01*
X102438908Y-92636772D01*
X102424808Y-92658991D01*
X102388006Y-92692128D01*
X102360478Y-92722064D01*
X102338657Y-92736562D01*
X102312620Y-92760006D01*
X102276045Y-92778162D01*
X102249394Y-92795869D01*
X102216565Y-92807688D01*
X102177399Y-92827130D01*
X102145839Y-92833150D01*
X102123916Y-92841043D01*
X102080593Y-92845597D01*
X102029108Y-92855418D01*
X102005787Y-92853460D01*
X101991284Y-92854984D01*
X101939548Y-92847897D01*
X101878673Y-92842785D01*
X101864937Y-92837677D01*
X101859150Y-92836884D01*
X101802595Y-92814492D01*
X101737177Y-92790163D01*
X101678252Y-92747352D01*
X101626441Y-92710532D01*
X101624537Y-92708326D01*
X101615044Y-92701429D01*
X101575302Y-92651287D01*
X101539300Y-92609579D01*
X101534001Y-92599179D01*
X101521272Y-92583119D01*
X101499838Y-92532129D01*
X101478754Y-92490749D01*
X101474096Y-92470892D01*
X101462771Y-92443950D01*
X101456928Y-92397696D01*
X101448299Y-92360909D01*
X101448604Y-92331808D01*
X101443850Y-92294176D01*
X101449392Y-92256647D01*
X101449697Y-92227552D01*
X101459092Y-92190961D01*
X101465904Y-92144831D01*
X101477791Y-92118132D01*
X101482864Y-92098375D01*
X101504815Y-92057436D01*
X101527307Y-92006918D01*
X101540366Y-91991132D01*
X101545883Y-91980843D01*
X101582753Y-91939895D01*
X101623535Y-91890598D01*
X101633171Y-91883901D01*
X101635122Y-91881734D01*
X101687700Y-91846002D01*
X101747500Y-91804440D01*
X101813435Y-91781479D01*
X101870424Y-91760285D01*
X101876223Y-91759614D01*
X101890067Y-91754793D01*
X101951037Y-91750957D01*
X102002909Y-91744955D01*
X102017381Y-91746783D01*
X102017381Y-91746783D01*
G37*
G36*
X90559899Y-88951959D02*
G01*
X90576769Y-88963231D01*
X90588041Y-88980101D01*
X90594448Y-89012312D01*
X90594448Y-90487688D01*
X90591999Y-90500000D01*
X90588041Y-90519899D01*
X90576769Y-90536769D01*
X90559899Y-90548041D01*
X90540000Y-90551999D01*
X90527688Y-90554448D01*
X85472312Y-90554448D01*
X85440101Y-90548041D01*
X85423231Y-90536769D01*
X85411959Y-90519899D01*
X85405552Y-90487688D01*
X85405552Y-89012312D01*
X85411959Y-88980101D01*
X85423231Y-88963231D01*
X85440101Y-88951959D01*
X85472312Y-88945552D01*
X90527688Y-88945552D01*
X90559899Y-88951959D01*
X90559899Y-88951959D01*
G37*
G36*
X114559899Y-88951959D02*
G01*
X114576769Y-88963231D01*
X114588041Y-88980101D01*
X114594448Y-89012312D01*
X114594448Y-90487688D01*
X114591999Y-90500000D01*
X114588041Y-90519899D01*
X114576769Y-90536769D01*
X114559899Y-90548041D01*
X114540000Y-90551999D01*
X114527688Y-90554448D01*
X109472312Y-90554448D01*
X109440101Y-90548041D01*
X109423231Y-90536769D01*
X109411959Y-90519899D01*
X109405552Y-90487688D01*
X109405552Y-89012312D01*
X109411959Y-88980101D01*
X109423231Y-88963231D01*
X109440101Y-88951959D01*
X109472312Y-88945552D01*
X114527688Y-88945552D01*
X114559899Y-88951959D01*
X114559899Y-88951959D01*
G37*
G36*
X97001231Y-88473001D02*
G01*
X97001964Y-88473001D01*
X97004829Y-88473571D01*
X97087918Y-88486731D01*
X97098760Y-88492255D01*
X97107215Y-88493937D01*
X97123768Y-88504998D01*
X97164054Y-88525524D01*
X97183316Y-88544786D01*
X97196443Y-88553557D01*
X97205214Y-88566684D01*
X97224476Y-88585946D01*
X97245002Y-88626232D01*
X97256063Y-88642785D01*
X97257745Y-88651240D01*
X97263269Y-88662082D01*
X97276429Y-88745171D01*
X97276999Y-88748036D01*
X97276999Y-88748769D01*
X97278194Y-88756314D01*
X97278194Y-89243686D01*
X97276999Y-89251231D01*
X97276999Y-89251964D01*
X97276429Y-89254829D01*
X97263269Y-89337918D01*
X97257745Y-89348760D01*
X97256063Y-89357215D01*
X97245002Y-89373768D01*
X97224476Y-89414054D01*
X97205214Y-89433316D01*
X97196443Y-89446443D01*
X97183316Y-89455214D01*
X97164054Y-89474476D01*
X97123768Y-89495002D01*
X97107215Y-89506063D01*
X97098760Y-89507745D01*
X97087918Y-89513269D01*
X97004829Y-89526429D01*
X97001964Y-89526999D01*
X97001231Y-89526999D01*
X96993686Y-89528194D01*
X96581314Y-89528194D01*
X96573769Y-89526999D01*
X96573036Y-89526999D01*
X96570171Y-89526429D01*
X96487082Y-89513269D01*
X96476240Y-89507745D01*
X96467785Y-89506063D01*
X96451232Y-89495002D01*
X96410946Y-89474476D01*
X96391684Y-89455214D01*
X96378557Y-89446443D01*
X96369786Y-89433316D01*
X96350524Y-89414054D01*
X96329998Y-89373768D01*
X96318937Y-89357215D01*
X96317255Y-89348760D01*
X96311731Y-89337918D01*
X96298571Y-89254829D01*
X96298001Y-89251964D01*
X96298001Y-89251231D01*
X96296806Y-89243686D01*
X96296806Y-88756314D01*
X96298001Y-88748769D01*
X96298001Y-88748036D01*
X96298571Y-88745171D01*
X96311731Y-88662082D01*
X96317255Y-88651240D01*
X96318937Y-88642785D01*
X96329998Y-88626232D01*
X96350524Y-88585946D01*
X96369786Y-88566684D01*
X96378557Y-88553557D01*
X96391684Y-88544786D01*
X96410946Y-88525524D01*
X96451232Y-88504998D01*
X96467785Y-88493937D01*
X96476240Y-88492255D01*
X96487082Y-88486731D01*
X96570171Y-88473571D01*
X96573036Y-88473001D01*
X96573769Y-88473001D01*
X96581314Y-88471806D01*
X96993686Y-88471806D01*
X97001231Y-88473001D01*
X97001231Y-88473001D01*
G37*
G36*
X95426231Y-88473001D02*
G01*
X95426964Y-88473001D01*
X95429829Y-88473571D01*
X95512918Y-88486731D01*
X95523760Y-88492255D01*
X95532215Y-88493937D01*
X95548768Y-88504998D01*
X95589054Y-88525524D01*
X95608316Y-88544786D01*
X95621443Y-88553557D01*
X95630214Y-88566684D01*
X95649476Y-88585946D01*
X95670002Y-88626232D01*
X95681063Y-88642785D01*
X95682745Y-88651240D01*
X95688269Y-88662082D01*
X95701429Y-88745171D01*
X95701999Y-88748036D01*
X95701999Y-88748769D01*
X95703194Y-88756314D01*
X95703194Y-89243686D01*
X95701999Y-89251231D01*
X95701999Y-89251964D01*
X95701429Y-89254829D01*
X95688269Y-89337918D01*
X95682745Y-89348760D01*
X95681063Y-89357215D01*
X95670002Y-89373768D01*
X95649476Y-89414054D01*
X95630214Y-89433316D01*
X95621443Y-89446443D01*
X95608316Y-89455214D01*
X95589054Y-89474476D01*
X95548768Y-89495002D01*
X95532215Y-89506063D01*
X95523760Y-89507745D01*
X95512918Y-89513269D01*
X95429829Y-89526429D01*
X95426964Y-89526999D01*
X95426231Y-89526999D01*
X95418686Y-89528194D01*
X95006314Y-89528194D01*
X94998769Y-89526999D01*
X94998036Y-89526999D01*
X94995171Y-89526429D01*
X94912082Y-89513269D01*
X94901240Y-89507745D01*
X94892785Y-89506063D01*
X94876232Y-89495002D01*
X94835946Y-89474476D01*
X94816684Y-89455214D01*
X94803557Y-89446443D01*
X94794786Y-89433316D01*
X94775524Y-89414054D01*
X94754998Y-89373768D01*
X94743937Y-89357215D01*
X94742255Y-89348760D01*
X94736731Y-89337918D01*
X94723571Y-89254829D01*
X94723001Y-89251964D01*
X94723001Y-89251231D01*
X94721806Y-89243686D01*
X94721806Y-88756314D01*
X94723001Y-88748769D01*
X94723001Y-88748036D01*
X94723571Y-88745171D01*
X94736731Y-88662082D01*
X94742255Y-88651240D01*
X94743937Y-88642785D01*
X94754998Y-88626232D01*
X94775524Y-88585946D01*
X94794786Y-88566684D01*
X94803557Y-88553557D01*
X94816684Y-88544786D01*
X94835946Y-88525524D01*
X94876232Y-88504998D01*
X94892785Y-88493937D01*
X94901240Y-88492255D01*
X94912082Y-88486731D01*
X94995171Y-88473571D01*
X94998036Y-88473001D01*
X94998769Y-88473001D01*
X95006314Y-88471806D01*
X95418686Y-88471806D01*
X95426231Y-88473001D01*
X95426231Y-88473001D01*
G37*
G36*
X114559899Y-85451959D02*
G01*
X114576769Y-85463231D01*
X114588041Y-85480101D01*
X114594448Y-85512312D01*
X114594448Y-86987688D01*
X114591999Y-87000000D01*
X114588041Y-87019899D01*
X114576769Y-87036769D01*
X114559899Y-87048041D01*
X114540000Y-87051999D01*
X114527688Y-87054448D01*
X109472312Y-87054448D01*
X109440101Y-87048041D01*
X109423231Y-87036769D01*
X109411959Y-87019899D01*
X109405552Y-86987688D01*
X109405552Y-85512312D01*
X109411959Y-85480101D01*
X109423231Y-85463231D01*
X109440101Y-85451959D01*
X109472312Y-85445552D01*
X114527688Y-85445552D01*
X114559899Y-85451959D01*
X114559899Y-85451959D01*
G37*
G36*
X90559899Y-85451959D02*
G01*
X90576769Y-85463231D01*
X90588041Y-85480101D01*
X90594448Y-85512312D01*
X90594448Y-86987688D01*
X90591999Y-87000000D01*
X90588041Y-87019899D01*
X90576769Y-87036769D01*
X90559899Y-87048041D01*
X90540000Y-87051999D01*
X90527688Y-87054448D01*
X85472312Y-87054448D01*
X85440101Y-87048041D01*
X85423231Y-87036769D01*
X85411959Y-87019899D01*
X85405552Y-86987688D01*
X85405552Y-85512312D01*
X85411959Y-85480101D01*
X85423231Y-85463231D01*
X85440101Y-85451959D01*
X85472312Y-85445552D01*
X90527688Y-85445552D01*
X90559899Y-85451959D01*
X90559899Y-85451959D01*
G37*
G36*
X96709899Y-82901959D02*
G01*
X96726769Y-82913231D01*
X96738041Y-82930101D01*
X96744448Y-82962312D01*
X96744448Y-86087688D01*
X96741999Y-86100000D01*
X96738041Y-86119899D01*
X96726769Y-86136769D01*
X96709899Y-86148041D01*
X96690000Y-86151999D01*
X96677688Y-86154448D01*
X95702312Y-86154448D01*
X95670101Y-86148041D01*
X95653231Y-86136769D01*
X95641959Y-86119899D01*
X95635552Y-86087688D01*
X95635552Y-82962312D01*
X95641959Y-82930101D01*
X95653231Y-82913231D01*
X95670101Y-82901959D01*
X95702312Y-82895552D01*
X96677688Y-82895552D01*
X96709899Y-82901959D01*
X96709899Y-82901959D01*
G37*
G36*
X99249899Y-82901959D02*
G01*
X99266769Y-82913231D01*
X99278041Y-82930101D01*
X99284448Y-82962312D01*
X99284448Y-86087688D01*
X99281999Y-86100000D01*
X99278041Y-86119899D01*
X99266769Y-86136769D01*
X99249899Y-86148041D01*
X99230000Y-86151999D01*
X99217688Y-86154448D01*
X98242312Y-86154448D01*
X98210101Y-86148041D01*
X98193231Y-86136769D01*
X98181959Y-86119899D01*
X98175552Y-86087688D01*
X98175552Y-82962312D01*
X98181959Y-82930101D01*
X98193231Y-82913231D01*
X98210101Y-82901959D01*
X98242312Y-82895552D01*
X99217688Y-82895552D01*
X99249899Y-82901959D01*
X99249899Y-82901959D01*
G37*
G36*
X101789899Y-82901959D02*
G01*
X101806769Y-82913231D01*
X101818041Y-82930101D01*
X101824448Y-82962312D01*
X101824448Y-86087688D01*
X101821999Y-86100000D01*
X101818041Y-86119899D01*
X101806769Y-86136769D01*
X101789899Y-86148041D01*
X101770000Y-86151999D01*
X101757688Y-86154448D01*
X100782312Y-86154448D01*
X100750101Y-86148041D01*
X100733231Y-86136769D01*
X100721959Y-86119899D01*
X100715552Y-86087688D01*
X100715552Y-82962312D01*
X100721959Y-82930101D01*
X100733231Y-82913231D01*
X100750101Y-82901959D01*
X100782312Y-82895552D01*
X101757688Y-82895552D01*
X101789899Y-82901959D01*
X101789899Y-82901959D01*
G37*
G36*
X104329899Y-82901959D02*
G01*
X104346769Y-82913231D01*
X104358041Y-82930101D01*
X104364448Y-82962312D01*
X104364448Y-86087688D01*
X104361999Y-86100000D01*
X104358041Y-86119899D01*
X104346769Y-86136769D01*
X104329899Y-86148041D01*
X104310000Y-86151999D01*
X104297688Y-86154448D01*
X103322312Y-86154448D01*
X103290101Y-86148041D01*
X103273231Y-86136769D01*
X103261959Y-86119899D01*
X103255552Y-86087688D01*
X103255552Y-82962312D01*
X103261959Y-82930101D01*
X103273231Y-82913231D01*
X103290101Y-82901959D01*
X103322312Y-82895552D01*
X104297688Y-82895552D01*
X104329899Y-82901959D01*
X104329899Y-82901959D01*
G37*
G36*
X96709899Y-77851959D02*
G01*
X96726769Y-77863231D01*
X96738041Y-77880101D01*
X96744448Y-77912312D01*
X96744448Y-81037688D01*
X96741999Y-81050000D01*
X96738041Y-81069899D01*
X96726769Y-81086769D01*
X96709899Y-81098041D01*
X96690000Y-81101999D01*
X96677688Y-81104448D01*
X95702312Y-81104448D01*
X95670101Y-81098041D01*
X95653231Y-81086769D01*
X95641959Y-81069899D01*
X95635552Y-81037688D01*
X95635552Y-77912312D01*
X95641959Y-77880101D01*
X95653231Y-77863231D01*
X95670101Y-77851959D01*
X95702312Y-77845552D01*
X96677688Y-77845552D01*
X96709899Y-77851959D01*
X96709899Y-77851959D01*
G37*
G36*
X99249899Y-77851959D02*
G01*
X99266769Y-77863231D01*
X99278041Y-77880101D01*
X99284448Y-77912312D01*
X99284448Y-81037688D01*
X99281999Y-81050000D01*
X99278041Y-81069899D01*
X99266769Y-81086769D01*
X99249899Y-81098041D01*
X99230000Y-81101999D01*
X99217688Y-81104448D01*
X98242312Y-81104448D01*
X98210101Y-81098041D01*
X98193231Y-81086769D01*
X98181959Y-81069899D01*
X98175552Y-81037688D01*
X98175552Y-77912312D01*
X98181959Y-77880101D01*
X98193231Y-77863231D01*
X98210101Y-77851959D01*
X98242312Y-77845552D01*
X99217688Y-77845552D01*
X99249899Y-77851959D01*
X99249899Y-77851959D01*
G37*
G36*
X101789899Y-77851959D02*
G01*
X101806769Y-77863231D01*
X101818041Y-77880101D01*
X101824448Y-77912312D01*
X101824448Y-81037688D01*
X101821999Y-81050000D01*
X101818041Y-81069899D01*
X101806769Y-81086769D01*
X101789899Y-81098041D01*
X101770000Y-81101999D01*
X101757688Y-81104448D01*
X100782312Y-81104448D01*
X100750101Y-81098041D01*
X100733231Y-81086769D01*
X100721959Y-81069899D01*
X100715552Y-81037688D01*
X100715552Y-77912312D01*
X100721959Y-77880101D01*
X100733231Y-77863231D01*
X100750101Y-77851959D01*
X100782312Y-77845552D01*
X101757688Y-77845552D01*
X101789899Y-77851959D01*
X101789899Y-77851959D01*
G37*
G36*
X104329899Y-77851959D02*
G01*
X104346769Y-77863231D01*
X104358041Y-77880101D01*
X104364448Y-77912312D01*
X104364448Y-81037688D01*
X104361999Y-81050000D01*
X104358041Y-81069899D01*
X104346769Y-81086769D01*
X104329899Y-81098041D01*
X104310000Y-81101999D01*
X104297688Y-81104448D01*
X103322312Y-81104448D01*
X103290101Y-81098041D01*
X103273231Y-81086769D01*
X103261959Y-81069899D01*
X103255552Y-81037688D01*
X103255552Y-77912312D01*
X103261959Y-77880101D01*
X103273231Y-77863231D01*
X103290101Y-77851959D01*
X103322312Y-77845552D01*
X104297688Y-77845552D01*
X104329899Y-77851959D01*
X104329899Y-77851959D01*
G37*
G36*
X90559899Y-76951959D02*
G01*
X90576769Y-76963231D01*
X90588041Y-76980101D01*
X90594448Y-77012312D01*
X90594448Y-78487688D01*
X90591999Y-78500000D01*
X90588041Y-78519899D01*
X90576769Y-78536769D01*
X90559899Y-78548041D01*
X90540000Y-78551999D01*
X90527688Y-78554448D01*
X85472312Y-78554448D01*
X85440101Y-78548041D01*
X85423231Y-78536769D01*
X85411959Y-78519899D01*
X85405552Y-78487688D01*
X85405552Y-77012312D01*
X85411959Y-76980101D01*
X85423231Y-76963231D01*
X85440101Y-76951959D01*
X85472312Y-76945552D01*
X90527688Y-76945552D01*
X90559899Y-76951959D01*
X90559899Y-76951959D01*
G37*
G36*
X114559899Y-76951959D02*
G01*
X114576769Y-76963231D01*
X114588041Y-76980101D01*
X114594448Y-77012312D01*
X114594448Y-78487688D01*
X114591999Y-78500000D01*
X114588041Y-78519899D01*
X114576769Y-78536769D01*
X114559899Y-78548041D01*
X114540000Y-78551999D01*
X114527688Y-78554448D01*
X109472312Y-78554448D01*
X109440101Y-78548041D01*
X109423231Y-78536769D01*
X109411959Y-78519899D01*
X109405552Y-78487688D01*
X109405552Y-77012312D01*
X109411959Y-76980101D01*
X109423231Y-76963231D01*
X109440101Y-76951959D01*
X109472312Y-76945552D01*
X114527688Y-76945552D01*
X114559899Y-76951959D01*
X114559899Y-76951959D01*
G37*
M02*
