M48
; DRILL file {KiCad 6.0.0-unknown-70ca025~86~ubuntu16.04.1} date Wed 17 Jul 2019 04:17:56 AM UTC
; FORMAT={-:-/ absolute / inch / decimal}
; #@! TF.CreationDate,2019-07-17T04:17:56+00:00
; #@! TF.GenerationSoftware,Kicad,Pcbnew,6.0.0-unknown-70ca025~86~ubuntu16.04.1
FMAT,2
INCH
T1C0.0100
T2C0.0157
T3C0.0217
T4C0.0236
T5C0.0335
T6C0.0315
T7C0.0394
T8C0.0709
%
G90
G05
T1
X3.4055Y-3.061
X3.4055Y-3.3957
X3.4055Y-3.5335
X3.4055Y-3.8681
X3.4055Y-4.0059
X3.4055Y-4.3406
X3.4055Y-4.4783
X3.4055Y-4.813
X3.4646Y-3.061
X3.4646Y-3.3957
X3.4646Y-3.5335
X3.4646Y-3.8681
X3.4646Y-4.0059
X3.4646Y-4.3406
X3.4646Y-4.4783
X3.4646Y-4.813
X3.5236Y-3.061
X3.5236Y-3.3957
X3.5236Y-3.5335
X3.5236Y-3.8681
X3.5236Y-4.0059
X3.5236Y-4.3406
X3.5236Y-4.4783
X3.5236Y-4.813
X3.5827Y-3.061
X3.5827Y-3.3957
X3.5827Y-3.5335
X3.5827Y-3.8681
X3.5827Y-4.0059
X3.5827Y-4.3406
X3.5827Y-4.4783
X3.5827Y-4.813
X3.622Y-3.878
X3.6516Y-3.9272
X3.6811Y-3.878
X3.6811Y-3.9567
X3.7205Y-3.878
X3.7205Y-3.9961
X3.7795Y-3.8189
X3.7795Y-4.0551
X3.8681Y-4.5965
X3.937Y-3.8878
X3.937Y-3.9862
X4.0945Y-3.8189
X4.0945Y-4.0551
X4.1535Y-3.878
X4.1535Y-3.9961
X4.1929Y-3.878
X4.1929Y-3.9961
X4.252Y-3.9173
X4.252Y-3.9567
X4.2913Y-3.061
X4.2913Y-3.3957
X4.2913Y-3.5335
X4.2913Y-3.8681
X4.2913Y-4.0059
X4.2913Y-4.3406
X4.2913Y-4.4783
X4.2913Y-4.813
X4.3504Y-3.061
X4.3504Y-3.3957
X4.3504Y-3.5335
X4.3504Y-3.8681
X4.3504Y-4.0059
X4.3504Y-4.3406
X4.3504Y-4.4783
X4.3504Y-4.813
X4.4094Y-3.061
X4.4094Y-3.3957
X4.4094Y-3.5335
X4.4094Y-3.8681
X4.4094Y-4.0059
X4.4094Y-4.3406
X4.4094Y-4.4783
X4.4094Y-4.813
X4.4685Y-3.061
X4.4685Y-3.3957
X4.4685Y-3.5335
X4.4685Y-3.8681
X4.4685Y-4.0059
X4.4685Y-4.3406
X4.4685Y-4.4783
X4.4685Y-4.813
T2
X3.8878Y-3.2283
X3.937Y-4.7244
T6
X3.8386Y-4.6929
X4.0354Y-4.6929
T7
X4.0157Y-3.6339
X4.0157Y-4.2402
T8
X3.937Y-3.6339
X3.937Y-4.2402
T3
G00X3.7844Y-4.814
M15
G01X3.7844Y-4.7884
M16
G05
G00X4.0896Y-4.814
M15
G01X4.0896Y-4.7884
M16
G05
G00X3.8465Y-3.7933
M15
G01X3.8465Y-3.7618
M16
G05
G00X3.8465Y-4.1122
M15
G01X3.8465Y-4.0807
M16
G05
G00X3.937Y-4.1122
M15
G01X3.937Y-4.0807
M16
G05
G00X4.0276Y-3.7933
M15
G01X4.0276Y-3.7618
M16
G05
G00X4.0276Y-4.1122
M15
G01X4.0276Y-4.0807
M16
G05
T4
G00X3.937Y-3.7874
M15
G01X3.937Y-3.7677
M16
G05
T5
G00X3.7904Y-4.6624
M15
G01X3.7904Y-4.6407
M16
G05
G00X4.0837Y-4.6624
M15
G01X4.0837Y-4.6407
M16
G05
T0
M30
