G04 #@! TF.GenerationSoftware,KiCad,Pcbnew,6.0.0-unknown-70ca025~86~ubuntu16.04.1*
G04 #@! TF.CreationDate,2019-07-17T04:15:05+00:00*
G04 #@! TF.ProjectId,usb-type-c-breakout,7573622d-7479-4706-952d-632d62726561,rev?*
G04 #@! TF.SameCoordinates,Original*
G04 #@! TF.FileFunction,Copper,L3,Inr*
G04 #@! TF.FilePolarity,Positive*
%FSLAX46Y46*%
G04 Gerber Fmt 4.6, Leading zero omitted, Abs format (unit mm)*
G04 Created by KiCad (PCBNEW 6.0.0-unknown-70ca025~86~ubuntu16.04.1) date 2019-07-17 04:15:05*
%MOMM*%
%LPD*%
G04 APERTURE LIST*
%ADD10O,0.950000X1.750000*%
%ADD11O,1.000000X1.500000*%
%ADD12O,1.150000X1.800000*%
%ADD13O,1.450000X2.000000*%
%ADD14C,0.508000*%
%ADD15C,0.800000*%
%ADD16C,0.254000*%
G04 APERTURE END LIST*
D10*
X102300000Y-104050000D03*
X97700000Y-104050000D03*
X102300000Y-95950000D03*
X97700000Y-95950000D03*
D11*
X100000000Y-95950000D03*
D10*
X100000000Y-104050000D03*
D12*
X96125000Y-121950000D03*
X103875000Y-121950000D03*
D13*
X96275000Y-118150000D03*
X103725000Y-118150000D03*
D14*
X110500000Y-122250000D03*
X112000000Y-122250000D03*
X113500000Y-122250000D03*
X113500000Y-113750000D03*
X112000000Y-113750000D03*
X110500000Y-113750000D03*
X110500000Y-110250000D03*
X112000000Y-110250000D03*
X113500000Y-110250000D03*
X113500000Y-101750000D03*
X112000000Y-101750000D03*
X110500000Y-101750000D03*
X113500000Y-98250000D03*
X112000000Y-98250000D03*
X110500000Y-98250000D03*
X110500000Y-89750000D03*
X112000000Y-89750000D03*
X113500000Y-89750000D03*
X113500000Y-86250000D03*
X110500000Y-86250000D03*
X112000000Y-86250000D03*
X113500000Y-77750000D03*
X112000000Y-77750000D03*
X110500000Y-77750000D03*
X86500000Y-122250000D03*
X89500000Y-122250000D03*
X88000000Y-122250000D03*
X86500000Y-113750000D03*
X88000000Y-113750000D03*
X89500000Y-113750000D03*
X89500000Y-110250000D03*
X88000000Y-110250000D03*
X86500000Y-110250000D03*
X86500000Y-101750000D03*
X88000000Y-101750000D03*
X89500000Y-101750000D03*
X89500000Y-98250000D03*
X88000000Y-98250000D03*
X86500000Y-98250000D03*
X86500000Y-89750000D03*
X88000000Y-89750000D03*
X89500000Y-89750000D03*
X89500000Y-86250000D03*
X88000000Y-86250000D03*
X86500000Y-86250000D03*
X89500000Y-77750000D03*
X88000000Y-77750000D03*
X86500000Y-77750000D03*
X104000000Y-103000000D03*
X96000000Y-97000000D03*
X96000000Y-103000000D03*
X104000000Y-97000000D03*
D15*
X100000000Y-120000000D03*
X98750000Y-82000000D03*
D14*
X98250000Y-116750000D03*
X92000000Y-98500000D03*
X92750000Y-99750000D03*
X109000000Y-77750000D03*
X109000000Y-86250000D03*
X109000000Y-89750000D03*
X109000000Y-98250000D03*
X109000000Y-101750000D03*
X109000000Y-110250000D03*
X109000000Y-113750000D03*
X109000000Y-122250000D03*
X91000000Y-122250000D03*
X91000000Y-113750000D03*
X91000000Y-110250000D03*
X91000000Y-101750000D03*
X91000000Y-98250000D03*
X91000000Y-89750000D03*
X91000000Y-86250000D03*
X91000000Y-77750000D03*
X106500000Y-101500000D03*
X108000000Y-100500000D03*
X108000000Y-99500000D03*
X106500000Y-98500000D03*
X93500000Y-100500000D03*
X93500000Y-98500000D03*
X105500000Y-101500000D03*
X105500000Y-98500000D03*
X94500000Y-101500000D03*
X94500000Y-98500000D03*
X100000000Y-101250000D03*
X100000000Y-98750000D03*
D16*
G36*
X114369001Y-123369000D02*
G01*
X104392312Y-123369000D01*
X104469883Y-123333731D01*
X104490797Y-123321705D01*
X104659352Y-123202140D01*
X104677613Y-123186377D01*
X104820519Y-123037096D01*
X104835471Y-123018164D01*
X104947569Y-122844553D01*
X104958671Y-122823136D01*
X105035919Y-122631461D01*
X105043811Y-122602212D01*
X105083686Y-122327198D01*
X105085000Y-122308974D01*
X105085000Y-122204000D01*
X105064839Y-122135339D01*
X105010758Y-122088477D01*
X104958000Y-122077000D01*
X102792000Y-122077000D01*
X102723339Y-122097161D01*
X102676477Y-122151242D01*
X102665000Y-122204000D01*
X102665000Y-122326629D01*
X102665574Y-122338691D01*
X102680276Y-122492783D01*
X102684838Y-122516472D01*
X102743012Y-122714771D01*
X102751971Y-122737170D01*
X102846594Y-122920891D01*
X102859627Y-122941192D01*
X102987283Y-123103706D01*
X103003919Y-123121176D01*
X103160002Y-123256618D01*
X103179642Y-123270627D01*
X103349685Y-123369000D01*
X96642312Y-123369000D01*
X96719883Y-123333731D01*
X96740797Y-123321705D01*
X96909352Y-123202140D01*
X96927613Y-123186377D01*
X97070519Y-123037096D01*
X97085471Y-123018164D01*
X97197569Y-122844553D01*
X97208671Y-122823136D01*
X97285919Y-122631461D01*
X97293811Y-122602212D01*
X97333686Y-122327198D01*
X97335000Y-122308974D01*
X97335000Y-122204000D01*
X97314839Y-122135339D01*
X97260758Y-122088477D01*
X97208000Y-122077000D01*
X95042000Y-122077000D01*
X94973339Y-122097161D01*
X94926477Y-122151242D01*
X94915000Y-122204000D01*
X94915000Y-122326629D01*
X94915574Y-122338691D01*
X94930276Y-122492783D01*
X94934838Y-122516472D01*
X94993012Y-122714771D01*
X95001971Y-122737170D01*
X95096594Y-122920891D01*
X95109627Y-122941192D01*
X95237283Y-123103706D01*
X95253919Y-123121176D01*
X95410002Y-123256618D01*
X95429642Y-123270627D01*
X95599685Y-123369000D01*
X85631000Y-123369000D01*
X85631000Y-121591026D01*
X94915000Y-121591026D01*
X94915000Y-121696000D01*
X94935161Y-121764661D01*
X94989242Y-121811523D01*
X95042000Y-121823000D01*
X95871000Y-121823000D01*
X95939661Y-121802839D01*
X95986523Y-121748758D01*
X95998000Y-121696000D01*
X95998000Y-120572199D01*
X95996619Y-120567495D01*
X96252000Y-120567495D01*
X96252000Y-121696000D01*
X96272161Y-121764661D01*
X96326242Y-121811523D01*
X96379000Y-121823000D01*
X97208000Y-121823000D01*
X97276661Y-121802839D01*
X97323523Y-121748758D01*
X97335000Y-121696000D01*
X97335000Y-121591026D01*
X102665000Y-121591026D01*
X102665000Y-121696000D01*
X102685161Y-121764661D01*
X102739242Y-121811523D01*
X102792000Y-121823000D01*
X103621000Y-121823000D01*
X103689661Y-121802839D01*
X103736523Y-121748758D01*
X103748000Y-121696000D01*
X103748000Y-120572199D01*
X103746619Y-120567495D01*
X104002000Y-120567495D01*
X104002000Y-121696000D01*
X104022161Y-121764661D01*
X104076242Y-121811523D01*
X104129000Y-121823000D01*
X104958000Y-121823000D01*
X105026661Y-121802839D01*
X105073523Y-121748758D01*
X105085000Y-121696000D01*
X105085000Y-121573371D01*
X105084426Y-121561309D01*
X105069724Y-121407217D01*
X105065162Y-121383528D01*
X105006988Y-121185228D01*
X104998029Y-121162829D01*
X104903406Y-120979109D01*
X104890373Y-120958808D01*
X104762717Y-120796294D01*
X104746081Y-120778824D01*
X104589998Y-120643382D01*
X104570358Y-120629373D01*
X104391479Y-120525888D01*
X104369544Y-120515846D01*
X104174323Y-120448054D01*
X104150887Y-120442340D01*
X104147225Y-120441809D01*
X104076381Y-120451909D01*
X104022243Y-120498706D01*
X104002000Y-120567495D01*
X103746619Y-120567495D01*
X103727839Y-120503538D01*
X103673758Y-120456676D01*
X103591244Y-120448734D01*
X103491051Y-120472881D01*
X103468242Y-120480735D01*
X103280118Y-120566269D01*
X103259204Y-120578295D01*
X103090649Y-120697860D01*
X103072388Y-120713623D01*
X102929482Y-120862904D01*
X102914530Y-120881836D01*
X102802432Y-121055447D01*
X102791330Y-121076864D01*
X102714082Y-121268539D01*
X102706190Y-121297788D01*
X102666314Y-121572802D01*
X102665000Y-121591026D01*
X97335000Y-121591026D01*
X97335000Y-121573371D01*
X97334426Y-121561309D01*
X97319724Y-121407217D01*
X97315162Y-121383528D01*
X97256988Y-121185228D01*
X97248029Y-121162829D01*
X97153406Y-120979109D01*
X97140373Y-120958808D01*
X97012717Y-120796294D01*
X96996081Y-120778824D01*
X96839998Y-120643382D01*
X96820358Y-120629373D01*
X96641479Y-120525888D01*
X96619544Y-120515846D01*
X96424323Y-120448054D01*
X96400887Y-120442340D01*
X96397225Y-120441809D01*
X96326381Y-120451909D01*
X96272243Y-120498706D01*
X96252000Y-120567495D01*
X95996619Y-120567495D01*
X95977839Y-120503538D01*
X95923758Y-120456676D01*
X95841244Y-120448734D01*
X95741051Y-120472881D01*
X95718242Y-120480735D01*
X95530118Y-120566269D01*
X95509204Y-120578295D01*
X95340649Y-120697860D01*
X95322388Y-120713623D01*
X95179482Y-120862904D01*
X95164530Y-120881836D01*
X95052432Y-121055447D01*
X95041330Y-121076864D01*
X94964082Y-121268539D01*
X94956190Y-121297788D01*
X94916314Y-121572802D01*
X94915000Y-121591026D01*
X85631000Y-121591026D01*
X85631000Y-118404000D01*
X94915000Y-118404000D01*
X94915000Y-118480831D01*
X94915503Y-118492121D01*
X94930086Y-118655517D01*
X94934084Y-118677739D01*
X94992162Y-118890037D01*
X95000033Y-118911200D01*
X95094788Y-119109859D01*
X95106281Y-119129293D01*
X95234718Y-119308033D01*
X95249472Y-119325126D01*
X95407531Y-119478295D01*
X95425078Y-119492504D01*
X95607763Y-119615264D01*
X95627550Y-119626142D01*
X95829087Y-119714610D01*
X95850486Y-119721812D01*
X95991352Y-119755631D01*
X96062823Y-119752056D01*
X96121015Y-119710408D01*
X96148000Y-119632140D01*
X96148000Y-118404000D01*
X96402000Y-118404000D01*
X96402000Y-119636340D01*
X96422161Y-119705001D01*
X96476242Y-119751863D01*
X96544249Y-119762421D01*
X96547639Y-119762011D01*
X96569733Y-119757316D01*
X96780102Y-119692598D01*
X96801007Y-119684067D01*
X96862169Y-119652499D01*
X96884850Y-119688238D01*
X96905142Y-119712767D01*
X97025596Y-119825881D01*
X97051351Y-119844593D01*
X97196150Y-119924197D01*
X97233536Y-119937656D01*
X97448959Y-119978750D01*
X97472756Y-119981000D01*
X97541138Y-119981000D01*
X97557055Y-119979999D01*
X97679853Y-119964486D01*
X97710688Y-119956569D01*
X97864323Y-119895741D01*
X97892220Y-119880404D01*
X98025900Y-119783279D01*
X98049106Y-119761487D01*
X98154433Y-119634168D01*
X98171491Y-119607290D01*
X98241847Y-119457778D01*
X98251685Y-119427500D01*
X98282647Y-119265188D01*
X98284645Y-119233417D01*
X98280441Y-119166583D01*
X101715355Y-119166583D01*
X101725730Y-119331495D01*
X101731695Y-119362767D01*
X101782757Y-119519918D01*
X101796311Y-119548722D01*
X101884850Y-119688238D01*
X101905142Y-119712767D01*
X102025596Y-119825881D01*
X102051351Y-119844593D01*
X102196150Y-119924197D01*
X102233536Y-119937656D01*
X102448959Y-119978750D01*
X102472756Y-119981000D01*
X102541138Y-119981000D01*
X102557055Y-119979999D01*
X102679853Y-119964486D01*
X102710688Y-119956569D01*
X102864323Y-119895741D01*
X102892220Y-119880404D01*
X103025900Y-119783279D01*
X103049106Y-119761487D01*
X103138822Y-119653038D01*
X103279087Y-119714610D01*
X103300486Y-119721812D01*
X103441352Y-119755631D01*
X103512823Y-119752056D01*
X103571015Y-119710408D01*
X103598000Y-119632140D01*
X103598000Y-118404000D01*
X103852000Y-118404000D01*
X103852000Y-119636340D01*
X103872161Y-119705001D01*
X103926242Y-119751863D01*
X103994249Y-119762421D01*
X103997639Y-119762011D01*
X104019733Y-119757316D01*
X104230102Y-119692598D01*
X104251007Y-119684066D01*
X104446591Y-119583118D01*
X104465655Y-119571020D01*
X104640273Y-119437032D01*
X104656895Y-119421748D01*
X104805024Y-119258955D01*
X104818674Y-119240971D01*
X104935635Y-119054521D01*
X104945886Y-119034402D01*
X105027980Y-118830185D01*
X105035783Y-118801369D01*
X105083638Y-118477298D01*
X105085000Y-118458745D01*
X105085000Y-118404000D01*
X105064839Y-118335339D01*
X105010758Y-118288477D01*
X104958000Y-118277000D01*
X103979000Y-118277000D01*
X103910339Y-118297161D01*
X103863477Y-118351242D01*
X103852000Y-118404000D01*
X103598000Y-118404000D01*
X103577839Y-118335339D01*
X103523758Y-118288477D01*
X103471000Y-118277000D01*
X102492000Y-118277000D01*
X102423339Y-118297161D01*
X102376477Y-118351242D01*
X102365000Y-118404000D01*
X102365000Y-118429848D01*
X102320147Y-118435514D01*
X102289312Y-118443431D01*
X102135677Y-118504259D01*
X102107780Y-118519596D01*
X101974100Y-118616721D01*
X101950894Y-118638513D01*
X101845567Y-118765832D01*
X101828509Y-118792710D01*
X101758153Y-118942222D01*
X101748315Y-118972500D01*
X101717353Y-119134812D01*
X101715355Y-119166583D01*
X98280441Y-119166583D01*
X98274270Y-119068505D01*
X98268305Y-119037233D01*
X98217243Y-118880082D01*
X98203689Y-118851278D01*
X98115150Y-118711762D01*
X98094858Y-118687233D01*
X97974404Y-118574119D01*
X97948649Y-118555407D01*
X97803850Y-118475803D01*
X97766464Y-118462344D01*
X97635000Y-118437266D01*
X97635000Y-118404000D01*
X97614839Y-118335339D01*
X97560758Y-118288477D01*
X97508000Y-118277000D01*
X96529000Y-118277000D01*
X96460339Y-118297161D01*
X96413477Y-118351242D01*
X96402000Y-118404000D01*
X96148000Y-118404000D01*
X96127839Y-118335339D01*
X96073758Y-118288477D01*
X96021000Y-118277000D01*
X95042000Y-118277000D01*
X94973339Y-118297161D01*
X94926477Y-118351242D01*
X94915000Y-118404000D01*
X85631000Y-118404000D01*
X85631000Y-117841255D01*
X94915000Y-117841255D01*
X94915000Y-117896000D01*
X94935161Y-117964661D01*
X94989242Y-118011523D01*
X95042000Y-118023000D01*
X96021000Y-118023000D01*
X96089661Y-118002839D01*
X96136523Y-117948758D01*
X96148000Y-117896000D01*
X96148000Y-116667860D01*
X96402000Y-116667860D01*
X96402000Y-117896000D01*
X96422161Y-117964661D01*
X96476242Y-118011523D01*
X96529000Y-118023000D01*
X97508000Y-118023000D01*
X97576661Y-118002839D01*
X97623523Y-117948758D01*
X97635000Y-117896000D01*
X97635000Y-117841255D01*
X102365000Y-117841255D01*
X102365000Y-117896000D01*
X102385161Y-117964661D01*
X102439242Y-118011523D01*
X102492000Y-118023000D01*
X103471000Y-118023000D01*
X103539661Y-118002839D01*
X103586523Y-117948758D01*
X103598000Y-117896000D01*
X103598000Y-116667860D01*
X103852000Y-116667860D01*
X103852000Y-117896000D01*
X103872161Y-117964661D01*
X103926242Y-118011523D01*
X103979000Y-118023000D01*
X104958000Y-118023000D01*
X105026661Y-118002839D01*
X105073523Y-117948758D01*
X105085000Y-117896000D01*
X105085000Y-117819169D01*
X105084497Y-117807879D01*
X105069914Y-117644483D01*
X105065916Y-117622261D01*
X105007838Y-117409963D01*
X104999968Y-117388801D01*
X104905213Y-117190141D01*
X104893719Y-117170705D01*
X104765282Y-116991966D01*
X104750528Y-116974874D01*
X104592469Y-116821705D01*
X104574922Y-116807496D01*
X104392237Y-116684736D01*
X104372450Y-116673858D01*
X104170913Y-116585390D01*
X104149514Y-116578188D01*
X104008648Y-116544369D01*
X103937177Y-116547944D01*
X103878985Y-116589592D01*
X103852000Y-116667860D01*
X103598000Y-116667860D01*
X103598000Y-116663660D01*
X103577839Y-116594999D01*
X103523758Y-116548137D01*
X103455751Y-116537579D01*
X103452361Y-116537989D01*
X103430267Y-116542684D01*
X103219898Y-116607402D01*
X103198993Y-116615934D01*
X103003409Y-116716882D01*
X102984344Y-116728980D01*
X102809727Y-116862968D01*
X102793106Y-116878252D01*
X102644977Y-117041045D01*
X102631327Y-117059028D01*
X102514365Y-117245478D01*
X102504114Y-117265598D01*
X102422020Y-117469815D01*
X102414217Y-117498631D01*
X102366362Y-117822702D01*
X102365000Y-117841255D01*
X97635000Y-117841255D01*
X97635000Y-117819169D01*
X97634497Y-117807879D01*
X97619914Y-117644483D01*
X97615916Y-117622261D01*
X97557838Y-117409963D01*
X97549968Y-117388801D01*
X97455213Y-117190141D01*
X97443719Y-117170705D01*
X97315282Y-116991966D01*
X97300528Y-116974874D01*
X97142469Y-116821705D01*
X97124922Y-116807496D01*
X96942237Y-116684736D01*
X96922450Y-116673858D01*
X96720913Y-116585390D01*
X96699514Y-116578188D01*
X96558648Y-116544369D01*
X96487177Y-116547944D01*
X96428985Y-116589592D01*
X96402000Y-116667860D01*
X96148000Y-116667860D01*
X96148000Y-116663660D01*
X96127839Y-116594999D01*
X96073758Y-116548137D01*
X96005751Y-116537579D01*
X96002361Y-116537989D01*
X95980267Y-116542684D01*
X95769898Y-116607402D01*
X95748993Y-116615934D01*
X95553409Y-116716882D01*
X95534344Y-116728980D01*
X95359727Y-116862968D01*
X95343106Y-116878252D01*
X95194977Y-117041045D01*
X95181327Y-117059028D01*
X95064365Y-117245478D01*
X95054114Y-117265598D01*
X94972020Y-117469815D01*
X94964217Y-117498631D01*
X94916362Y-117822702D01*
X94915000Y-117841255D01*
X85631000Y-117841255D01*
X85631000Y-107771354D01*
X98716519Y-107771354D01*
X98718019Y-107794546D01*
X98751014Y-108004054D01*
X98756716Y-108026586D01*
X98827339Y-108226573D01*
X98837050Y-108247688D01*
X98942935Y-108431456D01*
X98956332Y-108450447D01*
X99093932Y-108611842D01*
X99110566Y-108628075D01*
X99275275Y-108761692D01*
X99294589Y-108774621D01*
X99480889Y-108875984D01*
X99502234Y-108885177D01*
X99703887Y-108950893D01*
X99726552Y-108956042D01*
X99936804Y-108983908D01*
X99960026Y-108984841D01*
X100171835Y-108973926D01*
X100194839Y-108970611D01*
X100401112Y-108921280D01*
X100423126Y-108913828D01*
X100616956Y-108827732D01*
X100637245Y-108816393D01*
X100812138Y-108696416D01*
X100830019Y-108681571D01*
X100980121Y-108531732D01*
X100994998Y-108513876D01*
X101115280Y-108339191D01*
X101126654Y-108318923D01*
X101213088Y-108125245D01*
X101217551Y-108112135D01*
X101306581Y-108250548D01*
X101325251Y-108273277D01*
X101451833Y-108395302D01*
X101475231Y-108413126D01*
X101626489Y-108502759D01*
X101653361Y-108514724D01*
X101821183Y-108567155D01*
X101850085Y-108572616D01*
X102025466Y-108585034D01*
X102054850Y-108583700D01*
X102228385Y-108555438D01*
X102256674Y-108547379D01*
X102419053Y-108479953D01*
X102444729Y-108465603D01*
X102587241Y-108362631D01*
X102608928Y-108342759D01*
X102723929Y-108209763D01*
X102740462Y-108185436D01*
X102821784Y-108029552D01*
X102832277Y-108002072D01*
X102875555Y-107831661D01*
X102879458Y-107801509D01*
X102881096Y-107613857D01*
X102877720Y-107583640D01*
X102837422Y-107412499D01*
X102827410Y-107384841D01*
X102748822Y-107227561D01*
X102732716Y-107202948D01*
X102620053Y-107067966D01*
X102598717Y-107047719D01*
X102458024Y-106942275D01*
X102432601Y-106927478D01*
X102271423Y-106857229D01*
X102243280Y-106848679D01*
X102070265Y-106817393D01*
X102040909Y-106815546D01*
X101865337Y-106824901D01*
X101836343Y-106829857D01*
X101667632Y-106879351D01*
X101640556Y-106890844D01*
X101487757Y-106977823D01*
X101464051Y-106995236D01*
X101335359Y-107115033D01*
X101316295Y-107137434D01*
X101218614Y-107283624D01*
X101215030Y-107290627D01*
X101158475Y-107142911D01*
X101148214Y-107122057D01*
X101037555Y-106941124D01*
X101023666Y-106922490D01*
X100881888Y-106764752D01*
X100864834Y-106748961D01*
X100696684Y-106619702D01*
X100677040Y-106607283D01*
X100488150Y-106510831D01*
X100466570Y-106502199D01*
X100263266Y-106441785D01*
X100240476Y-106437231D01*
X100029567Y-106414877D01*
X100006327Y-106414553D01*
X99794876Y-106431009D01*
X99771967Y-106434925D01*
X99567056Y-106489639D01*
X99545244Y-106497664D01*
X99353735Y-106588804D01*
X99333751Y-106600670D01*
X99162057Y-106725184D01*
X99144570Y-106740493D01*
X98998443Y-106894210D01*
X98984038Y-106912449D01*
X98868370Y-107090222D01*
X98857531Y-107110781D01*
X98776197Y-107306656D01*
X98769285Y-107328846D01*
X98725008Y-107536264D01*
X98722256Y-107559342D01*
X98716519Y-107771354D01*
X85631000Y-107771354D01*
X85631000Y-104304000D01*
X96590000Y-104304000D01*
X96590000Y-104499904D01*
X96590650Y-104512739D01*
X96605763Y-104661514D01*
X96610925Y-104686657D01*
X96670644Y-104877220D01*
X96680755Y-104900813D01*
X96777572Y-105075475D01*
X96792221Y-105096552D01*
X96922181Y-105248180D01*
X96940770Y-105265882D01*
X97098565Y-105388280D01*
X97120333Y-105401882D01*
X97299517Y-105490051D01*
X97323575Y-105498998D01*
X97413987Y-105522549D01*
X97485513Y-105520347D01*
X97544494Y-105479824D01*
X97573000Y-105399650D01*
X97573000Y-104304000D01*
X97827000Y-104304000D01*
X97827000Y-105403982D01*
X97847161Y-105472643D01*
X97901242Y-105519505D01*
X97997853Y-105523171D01*
X98176994Y-105457260D01*
X98200064Y-105446007D01*
X98369789Y-105340773D01*
X98390126Y-105325112D01*
X98535223Y-105187900D01*
X98551995Y-105168469D01*
X98666539Y-105004883D01*
X98679062Y-104982477D01*
X98758373Y-104799200D01*
X98767323Y-104768191D01*
X98808505Y-104502172D01*
X98810000Y-104482743D01*
X98810000Y-104304000D01*
X98890000Y-104304000D01*
X98890000Y-104499904D01*
X98890650Y-104512739D01*
X98905763Y-104661514D01*
X98910925Y-104686657D01*
X98970644Y-104877220D01*
X98980755Y-104900813D01*
X99077572Y-105075475D01*
X99092221Y-105096552D01*
X99222181Y-105248180D01*
X99240770Y-105265882D01*
X99398565Y-105388280D01*
X99420333Y-105401882D01*
X99599517Y-105490051D01*
X99623575Y-105498998D01*
X99713987Y-105522549D01*
X99785513Y-105520347D01*
X99844494Y-105479824D01*
X99873000Y-105399650D01*
X99873000Y-104304000D01*
X100127000Y-104304000D01*
X100127000Y-105403982D01*
X100147161Y-105472643D01*
X100201242Y-105519505D01*
X100297853Y-105523171D01*
X100476994Y-105457260D01*
X100500064Y-105446007D01*
X100669789Y-105340773D01*
X100690126Y-105325112D01*
X100835223Y-105187900D01*
X100851995Y-105168469D01*
X100966539Y-105004883D01*
X100979062Y-104982477D01*
X101058373Y-104799200D01*
X101067323Y-104768191D01*
X101108505Y-104502172D01*
X101110000Y-104482743D01*
X101110000Y-104304000D01*
X101190000Y-104304000D01*
X101190000Y-104499904D01*
X101190650Y-104512739D01*
X101205763Y-104661514D01*
X101210925Y-104686657D01*
X101270644Y-104877220D01*
X101280755Y-104900813D01*
X101377572Y-105075475D01*
X101392221Y-105096552D01*
X101522181Y-105248180D01*
X101540770Y-105265882D01*
X101698565Y-105388280D01*
X101720333Y-105401882D01*
X101899517Y-105490051D01*
X101923575Y-105498998D01*
X102013987Y-105522549D01*
X102085513Y-105520347D01*
X102144494Y-105479824D01*
X102173000Y-105399650D01*
X102173000Y-104304000D01*
X102427000Y-104304000D01*
X102427000Y-105403982D01*
X102447161Y-105472643D01*
X102501242Y-105519505D01*
X102597853Y-105523171D01*
X102776994Y-105457260D01*
X102800064Y-105446007D01*
X102969789Y-105340773D01*
X102990126Y-105325112D01*
X103135223Y-105187900D01*
X103151995Y-105168469D01*
X103266539Y-105004883D01*
X103279062Y-104982477D01*
X103358373Y-104799200D01*
X103367323Y-104768191D01*
X103408505Y-104502172D01*
X103410000Y-104482743D01*
X103410000Y-104304000D01*
X103389839Y-104235339D01*
X103335758Y-104188477D01*
X103283000Y-104177000D01*
X102554000Y-104177000D01*
X102485339Y-104197161D01*
X102438477Y-104251242D01*
X102427000Y-104304000D01*
X102173000Y-104304000D01*
X102152839Y-104235339D01*
X102098758Y-104188477D01*
X102046000Y-104177000D01*
X101317000Y-104177000D01*
X101248339Y-104197161D01*
X101201477Y-104251242D01*
X101190000Y-104304000D01*
X101110000Y-104304000D01*
X101089839Y-104235339D01*
X101035758Y-104188477D01*
X100983000Y-104177000D01*
X100254000Y-104177000D01*
X100185339Y-104197161D01*
X100138477Y-104251242D01*
X100127000Y-104304000D01*
X99873000Y-104304000D01*
X99852839Y-104235339D01*
X99798758Y-104188477D01*
X99746000Y-104177000D01*
X99017000Y-104177000D01*
X98948339Y-104197161D01*
X98901477Y-104251242D01*
X98890000Y-104304000D01*
X98810000Y-104304000D01*
X98789839Y-104235339D01*
X98735758Y-104188477D01*
X98683000Y-104177000D01*
X97954000Y-104177000D01*
X97885339Y-104197161D01*
X97838477Y-104251242D01*
X97827000Y-104304000D01*
X97573000Y-104304000D01*
X97552839Y-104235339D01*
X97498758Y-104188477D01*
X97446000Y-104177000D01*
X96717000Y-104177000D01*
X96648339Y-104197161D01*
X96601477Y-104251242D01*
X96590000Y-104304000D01*
X85631000Y-104304000D01*
X85631000Y-103617257D01*
X96590000Y-103617257D01*
X96590000Y-103796000D01*
X96610161Y-103864661D01*
X96664242Y-103911523D01*
X96717000Y-103923000D01*
X97446000Y-103923000D01*
X97514661Y-103902839D01*
X97561523Y-103848758D01*
X97573000Y-103796000D01*
X97573000Y-102700350D01*
X97827000Y-102700350D01*
X97827000Y-103796000D01*
X97847161Y-103864661D01*
X97901242Y-103911523D01*
X97954000Y-103923000D01*
X98683000Y-103923000D01*
X98751661Y-103902839D01*
X98798523Y-103848758D01*
X98810000Y-103796000D01*
X98810000Y-103617257D01*
X98890000Y-103617257D01*
X98890000Y-103796000D01*
X98910161Y-103864661D01*
X98964242Y-103911523D01*
X99017000Y-103923000D01*
X99746000Y-103923000D01*
X99814661Y-103902839D01*
X99861523Y-103848758D01*
X99873000Y-103796000D01*
X99873000Y-102700350D01*
X100127000Y-102700350D01*
X100127000Y-103796000D01*
X100147161Y-103864661D01*
X100201242Y-103911523D01*
X100254000Y-103923000D01*
X100983000Y-103923000D01*
X101051661Y-103902839D01*
X101098523Y-103848758D01*
X101110000Y-103796000D01*
X101110000Y-103617257D01*
X101190000Y-103617257D01*
X101190000Y-103796000D01*
X101210161Y-103864661D01*
X101264242Y-103911523D01*
X101317000Y-103923000D01*
X102046000Y-103923000D01*
X102114661Y-103902839D01*
X102161523Y-103848758D01*
X102173000Y-103796000D01*
X102173000Y-102700350D01*
X102427000Y-102700350D01*
X102427000Y-103796000D01*
X102447161Y-103864661D01*
X102501242Y-103911523D01*
X102554000Y-103923000D01*
X103283000Y-103923000D01*
X103351661Y-103902839D01*
X103398523Y-103848758D01*
X103410000Y-103796000D01*
X103410000Y-103600096D01*
X103409350Y-103587262D01*
X103394238Y-103438487D01*
X103389076Y-103413343D01*
X103329357Y-103222780D01*
X103319246Y-103199187D01*
X103222429Y-103024525D01*
X103207780Y-103003448D01*
X103077820Y-102851820D01*
X103059231Y-102834118D01*
X102901435Y-102711720D01*
X102879667Y-102698118D01*
X102700483Y-102609949D01*
X102676425Y-102601002D01*
X102586013Y-102577451D01*
X102514487Y-102579653D01*
X102455506Y-102620176D01*
X102427000Y-102700350D01*
X102173000Y-102700350D01*
X102173000Y-102696018D01*
X102152839Y-102627357D01*
X102098758Y-102580495D01*
X102002147Y-102576829D01*
X101823006Y-102642740D01*
X101799936Y-102653993D01*
X101630211Y-102759227D01*
X101609874Y-102774888D01*
X101464777Y-102912100D01*
X101448004Y-102931531D01*
X101333460Y-103095118D01*
X101320938Y-103117524D01*
X101241627Y-103300801D01*
X101232677Y-103331810D01*
X101191495Y-103597828D01*
X101190000Y-103617257D01*
X101110000Y-103617257D01*
X101110000Y-103600096D01*
X101109350Y-103587262D01*
X101094238Y-103438487D01*
X101089076Y-103413343D01*
X101029357Y-103222780D01*
X101019246Y-103199187D01*
X100922429Y-103024525D01*
X100907780Y-103003448D01*
X100777820Y-102851820D01*
X100759231Y-102834118D01*
X100601435Y-102711720D01*
X100579667Y-102698118D01*
X100400483Y-102609949D01*
X100376425Y-102601002D01*
X100286013Y-102577451D01*
X100214487Y-102579653D01*
X100155506Y-102620176D01*
X100127000Y-102700350D01*
X99873000Y-102700350D01*
X99873000Y-102696018D01*
X99852839Y-102627357D01*
X99798758Y-102580495D01*
X99702147Y-102576829D01*
X99523006Y-102642740D01*
X99499936Y-102653993D01*
X99330211Y-102759227D01*
X99309874Y-102774888D01*
X99164777Y-102912100D01*
X99148004Y-102931531D01*
X99033460Y-103095118D01*
X99020938Y-103117524D01*
X98941627Y-103300801D01*
X98932677Y-103331810D01*
X98891495Y-103597828D01*
X98890000Y-103617257D01*
X98810000Y-103617257D01*
X98810000Y-103600096D01*
X98809350Y-103587262D01*
X98794238Y-103438487D01*
X98789076Y-103413343D01*
X98729357Y-103222780D01*
X98719246Y-103199187D01*
X98622429Y-103024525D01*
X98607780Y-103003448D01*
X98477820Y-102851820D01*
X98459231Y-102834118D01*
X98301435Y-102711720D01*
X98279667Y-102698118D01*
X98100483Y-102609949D01*
X98076425Y-102601002D01*
X97986013Y-102577451D01*
X97914487Y-102579653D01*
X97855506Y-102620176D01*
X97827000Y-102700350D01*
X97573000Y-102700350D01*
X97573000Y-102696018D01*
X97552839Y-102627357D01*
X97498758Y-102580495D01*
X97402147Y-102576829D01*
X97223006Y-102642740D01*
X97199936Y-102653993D01*
X97030211Y-102759227D01*
X97009874Y-102774888D01*
X96864777Y-102912100D01*
X96848004Y-102931531D01*
X96733460Y-103095118D01*
X96720938Y-103117524D01*
X96641627Y-103300801D01*
X96632677Y-103331810D01*
X96591495Y-103597828D01*
X96590000Y-103617257D01*
X85631000Y-103617257D01*
X85631000Y-101160426D01*
X99365001Y-101160426D01*
X99365001Y-101339574D01*
X99372660Y-101383010D01*
X99433932Y-101551354D01*
X99455985Y-101589552D01*
X99571139Y-101726787D01*
X99604927Y-101755138D01*
X99760074Y-101844712D01*
X99801520Y-101859798D01*
X99977946Y-101890907D01*
X100022054Y-101890907D01*
X100198480Y-101859798D01*
X100239926Y-101844712D01*
X100395073Y-101755138D01*
X100428861Y-101726787D01*
X100544015Y-101589552D01*
X100566068Y-101551354D01*
X100617361Y-101410426D01*
X105865001Y-101410426D01*
X105865001Y-101589574D01*
X105872660Y-101633010D01*
X105933932Y-101801354D01*
X105955985Y-101839552D01*
X106071139Y-101976787D01*
X106104927Y-102005138D01*
X106260074Y-102094712D01*
X106301520Y-102109798D01*
X106477946Y-102140907D01*
X106522054Y-102140907D01*
X106698480Y-102109798D01*
X106739926Y-102094712D01*
X106895073Y-102005138D01*
X106928861Y-101976787D01*
X107044015Y-101839552D01*
X107066068Y-101801354D01*
X107127340Y-101633010D01*
X107134999Y-101589574D01*
X107134999Y-101410426D01*
X107127340Y-101366990D01*
X107066068Y-101198646D01*
X107044015Y-101160448D01*
X106928861Y-101023213D01*
X106895073Y-100994862D01*
X106739926Y-100905288D01*
X106698480Y-100890202D01*
X106522054Y-100859093D01*
X106477946Y-100859093D01*
X106301520Y-100890202D01*
X106260074Y-100905288D01*
X106104927Y-100994862D01*
X106071139Y-101023213D01*
X105955985Y-101160448D01*
X105933932Y-101198646D01*
X105872660Y-101366990D01*
X105865001Y-101410426D01*
X100617361Y-101410426D01*
X100627340Y-101383010D01*
X100634999Y-101339574D01*
X100634999Y-101160426D01*
X100627340Y-101116990D01*
X100566068Y-100948646D01*
X100544015Y-100910448D01*
X100428861Y-100773213D01*
X100395073Y-100744862D01*
X100239926Y-100655288D01*
X100198480Y-100640202D01*
X100022054Y-100609093D01*
X99977946Y-100609093D01*
X99801520Y-100640202D01*
X99760074Y-100655288D01*
X99604927Y-100744862D01*
X99571139Y-100773213D01*
X99455985Y-100910448D01*
X99433932Y-100948646D01*
X99372660Y-101116990D01*
X99365001Y-101160426D01*
X85631000Y-101160426D01*
X85631000Y-99660426D01*
X92115001Y-99660426D01*
X92115001Y-99839574D01*
X92122660Y-99883010D01*
X92183932Y-100051354D01*
X92205985Y-100089552D01*
X92321139Y-100226787D01*
X92354927Y-100255138D01*
X92510074Y-100344712D01*
X92551520Y-100359798D01*
X92727946Y-100390907D01*
X92772054Y-100390907D01*
X92871536Y-100373365D01*
X92865001Y-100410426D01*
X92865001Y-100589574D01*
X92872660Y-100633010D01*
X92933932Y-100801354D01*
X92955985Y-100839552D01*
X93071139Y-100976787D01*
X93104927Y-101005138D01*
X93260074Y-101094712D01*
X93301520Y-101109798D01*
X93477946Y-101140907D01*
X93522054Y-101140907D01*
X93698480Y-101109798D01*
X93739926Y-101094712D01*
X93895073Y-101005138D01*
X93928861Y-100976787D01*
X94044015Y-100839552D01*
X94066068Y-100801354D01*
X94127340Y-100633010D01*
X94134999Y-100589574D01*
X94134999Y-100410426D01*
X94127340Y-100366990D01*
X94066068Y-100198646D01*
X94044015Y-100160448D01*
X93928861Y-100023213D01*
X93895073Y-99994862D01*
X93739926Y-99905288D01*
X93698480Y-99890202D01*
X93522054Y-99859093D01*
X93477946Y-99859093D01*
X93378464Y-99876635D01*
X93384999Y-99839574D01*
X93384999Y-99660426D01*
X93377340Y-99616990D01*
X93316068Y-99448646D01*
X93294015Y-99410448D01*
X93293997Y-99410426D01*
X107365001Y-99410426D01*
X107365001Y-99589574D01*
X107372660Y-99633010D01*
X107433932Y-99801354D01*
X107455985Y-99839552D01*
X107571139Y-99976787D01*
X107598804Y-100000000D01*
X107571139Y-100023213D01*
X107455985Y-100160448D01*
X107433932Y-100198646D01*
X107372660Y-100366990D01*
X107365001Y-100410426D01*
X107365001Y-100589574D01*
X107372660Y-100633010D01*
X107433932Y-100801354D01*
X107455985Y-100839552D01*
X107571139Y-100976787D01*
X107604927Y-101005138D01*
X107760074Y-101094712D01*
X107801520Y-101109798D01*
X107977946Y-101140907D01*
X108022054Y-101140907D01*
X108198480Y-101109798D01*
X108239926Y-101094712D01*
X108395073Y-101005138D01*
X108428861Y-100976787D01*
X108544015Y-100839552D01*
X108566068Y-100801354D01*
X108627340Y-100633010D01*
X108634999Y-100589574D01*
X108634999Y-100410426D01*
X108627340Y-100366990D01*
X108566068Y-100198646D01*
X108544015Y-100160448D01*
X108428861Y-100023213D01*
X108401196Y-100000000D01*
X108428861Y-99976787D01*
X108544015Y-99839552D01*
X108566068Y-99801354D01*
X108627340Y-99633010D01*
X108634999Y-99589574D01*
X108634999Y-99410426D01*
X108627340Y-99366990D01*
X108566068Y-99198646D01*
X108544015Y-99160448D01*
X108428861Y-99023213D01*
X108395073Y-98994862D01*
X108239926Y-98905288D01*
X108198480Y-98890202D01*
X108022054Y-98859093D01*
X107977946Y-98859093D01*
X107801520Y-98890202D01*
X107760074Y-98905288D01*
X107604927Y-98994862D01*
X107571139Y-99023213D01*
X107455985Y-99160448D01*
X107433932Y-99198646D01*
X107372660Y-99366990D01*
X107365001Y-99410426D01*
X93293997Y-99410426D01*
X93178861Y-99273213D01*
X93145073Y-99244862D01*
X92989926Y-99155288D01*
X92948480Y-99140202D01*
X92772054Y-99109093D01*
X92727946Y-99109093D01*
X92551520Y-99140202D01*
X92510074Y-99155288D01*
X92354927Y-99244862D01*
X92321139Y-99273213D01*
X92205985Y-99410448D01*
X92183932Y-99448646D01*
X92122660Y-99616990D01*
X92115001Y-99660426D01*
X85631000Y-99660426D01*
X85631000Y-98410426D01*
X91365001Y-98410426D01*
X91365001Y-98589574D01*
X91372660Y-98633010D01*
X91433932Y-98801354D01*
X91455985Y-98839552D01*
X91571139Y-98976787D01*
X91604927Y-99005138D01*
X91760074Y-99094712D01*
X91801520Y-99109798D01*
X91977946Y-99140907D01*
X92022054Y-99140907D01*
X92198480Y-99109798D01*
X92239926Y-99094712D01*
X92395073Y-99005138D01*
X92428861Y-98976787D01*
X92544015Y-98839552D01*
X92566068Y-98801354D01*
X92627340Y-98633010D01*
X92634999Y-98589574D01*
X92634999Y-98410426D01*
X92865001Y-98410426D01*
X92865001Y-98589574D01*
X92872660Y-98633010D01*
X92933932Y-98801354D01*
X92955985Y-98839552D01*
X93071139Y-98976787D01*
X93104927Y-99005138D01*
X93260074Y-99094712D01*
X93301520Y-99109798D01*
X93477946Y-99140907D01*
X93522054Y-99140907D01*
X93698480Y-99109798D01*
X93739926Y-99094712D01*
X93895073Y-99005138D01*
X93928861Y-98976787D01*
X94044015Y-98839552D01*
X94066068Y-98801354D01*
X94117361Y-98660426D01*
X99365001Y-98660426D01*
X99365001Y-98839574D01*
X99372660Y-98883010D01*
X99433932Y-99051354D01*
X99455985Y-99089552D01*
X99571139Y-99226787D01*
X99604927Y-99255138D01*
X99760074Y-99344712D01*
X99801520Y-99359798D01*
X99977946Y-99390907D01*
X100022054Y-99390907D01*
X100198480Y-99359798D01*
X100239926Y-99344712D01*
X100395073Y-99255138D01*
X100428861Y-99226787D01*
X100544015Y-99089552D01*
X100566068Y-99051354D01*
X100627340Y-98883010D01*
X100634999Y-98839574D01*
X100634999Y-98660426D01*
X100627340Y-98616990D01*
X100566068Y-98448646D01*
X100544015Y-98410448D01*
X100543997Y-98410426D01*
X105865001Y-98410426D01*
X105865001Y-98589574D01*
X105872660Y-98633010D01*
X105933932Y-98801354D01*
X105955985Y-98839552D01*
X106071139Y-98976787D01*
X106104927Y-99005138D01*
X106260074Y-99094712D01*
X106301520Y-99109798D01*
X106477946Y-99140907D01*
X106522054Y-99140907D01*
X106698480Y-99109798D01*
X106739926Y-99094712D01*
X106895073Y-99005138D01*
X106928861Y-98976787D01*
X107044015Y-98839552D01*
X107066068Y-98801354D01*
X107127340Y-98633010D01*
X107134999Y-98589574D01*
X107134999Y-98410426D01*
X107127340Y-98366990D01*
X107066068Y-98198646D01*
X107044015Y-98160448D01*
X106928861Y-98023213D01*
X106895073Y-97994862D01*
X106739926Y-97905288D01*
X106698480Y-97890202D01*
X106522054Y-97859093D01*
X106477946Y-97859093D01*
X106301520Y-97890202D01*
X106260074Y-97905288D01*
X106104927Y-97994862D01*
X106071139Y-98023213D01*
X105955985Y-98160448D01*
X105933932Y-98198646D01*
X105872660Y-98366990D01*
X105865001Y-98410426D01*
X100543997Y-98410426D01*
X100428861Y-98273213D01*
X100395073Y-98244862D01*
X100239926Y-98155288D01*
X100198480Y-98140202D01*
X100022054Y-98109093D01*
X99977946Y-98109093D01*
X99801520Y-98140202D01*
X99760074Y-98155288D01*
X99604927Y-98244862D01*
X99571139Y-98273213D01*
X99455985Y-98410448D01*
X99433932Y-98448646D01*
X99372660Y-98616990D01*
X99365001Y-98660426D01*
X94117361Y-98660426D01*
X94127340Y-98633010D01*
X94134999Y-98589574D01*
X94134999Y-98410426D01*
X94127340Y-98366990D01*
X94066068Y-98198646D01*
X94044015Y-98160448D01*
X93928861Y-98023213D01*
X93895073Y-97994862D01*
X93739926Y-97905288D01*
X93698480Y-97890202D01*
X93522054Y-97859093D01*
X93477946Y-97859093D01*
X93301520Y-97890202D01*
X93260074Y-97905288D01*
X93104927Y-97994862D01*
X93071139Y-98023213D01*
X92955985Y-98160448D01*
X92933932Y-98198646D01*
X92872660Y-98366990D01*
X92865001Y-98410426D01*
X92634999Y-98410426D01*
X92627340Y-98366990D01*
X92566068Y-98198646D01*
X92544015Y-98160448D01*
X92428861Y-98023213D01*
X92395073Y-97994862D01*
X92239926Y-97905288D01*
X92198480Y-97890202D01*
X92022054Y-97859093D01*
X91977946Y-97859093D01*
X91801520Y-97890202D01*
X91760074Y-97905288D01*
X91604927Y-97994862D01*
X91571139Y-98023213D01*
X91455985Y-98160448D01*
X91433932Y-98198646D01*
X91372660Y-98366990D01*
X91365001Y-98410426D01*
X85631000Y-98410426D01*
X85631000Y-96204000D01*
X96590000Y-96204000D01*
X96590000Y-96399904D01*
X96590650Y-96412739D01*
X96605763Y-96561514D01*
X96610925Y-96586657D01*
X96670644Y-96777220D01*
X96680755Y-96800813D01*
X96777572Y-96975475D01*
X96792221Y-96996552D01*
X96922181Y-97148180D01*
X96940770Y-97165882D01*
X97098565Y-97288280D01*
X97120333Y-97301882D01*
X97299517Y-97390051D01*
X97323575Y-97398998D01*
X97413987Y-97422549D01*
X97485513Y-97420347D01*
X97544494Y-97379824D01*
X97573000Y-97299650D01*
X97573000Y-96204000D01*
X97827000Y-96204000D01*
X97827000Y-97303982D01*
X97847161Y-97372643D01*
X97901242Y-97419505D01*
X97997853Y-97423171D01*
X98176994Y-97357260D01*
X98200064Y-97346007D01*
X98369789Y-97240773D01*
X98390126Y-97225112D01*
X98535223Y-97087900D01*
X98551995Y-97068469D01*
X98666539Y-96904883D01*
X98679062Y-96882477D01*
X98758373Y-96699200D01*
X98767323Y-96668191D01*
X98808505Y-96402172D01*
X98810000Y-96382743D01*
X98810000Y-96204000D01*
X98865000Y-96204000D01*
X98865000Y-96249740D01*
X98865606Y-96262133D01*
X98880019Y-96409129D01*
X98884834Y-96433443D01*
X98941970Y-96622684D01*
X98951415Y-96645600D01*
X99044220Y-96820141D01*
X99057936Y-96840786D01*
X99182875Y-96993976D01*
X99200340Y-97011563D01*
X99352654Y-97137568D01*
X99373203Y-97151428D01*
X99547091Y-97245449D01*
X99569940Y-97255054D01*
X99708445Y-97297928D01*
X99779998Y-97298973D01*
X99840756Y-97261167D01*
X99873000Y-97176608D01*
X99873000Y-96204000D01*
X100127000Y-96204000D01*
X100127000Y-97176039D01*
X100147161Y-97244700D01*
X100201242Y-97291562D01*
X100289857Y-97297872D01*
X100415287Y-97260956D01*
X100438269Y-97251671D01*
X100613453Y-97160087D01*
X100634192Y-97146515D01*
X100788251Y-97022649D01*
X100805961Y-97005307D01*
X100933026Y-96853876D01*
X100947029Y-96833425D01*
X101042262Y-96660198D01*
X101052026Y-96637416D01*
X101111798Y-96448989D01*
X101117047Y-96423863D01*
X101134304Y-96259675D01*
X101135000Y-96246400D01*
X101135000Y-96204000D01*
X101190000Y-96204000D01*
X101190000Y-96399904D01*
X101190650Y-96412739D01*
X101205763Y-96561514D01*
X101210925Y-96586657D01*
X101270644Y-96777220D01*
X101280755Y-96800813D01*
X101377572Y-96975475D01*
X101392221Y-96996552D01*
X101522181Y-97148180D01*
X101540770Y-97165882D01*
X101698565Y-97288280D01*
X101720333Y-97301882D01*
X101899517Y-97390051D01*
X101923575Y-97398998D01*
X102013987Y-97422549D01*
X102085513Y-97420347D01*
X102144494Y-97379824D01*
X102173000Y-97299650D01*
X102173000Y-96204000D01*
X102427000Y-96204000D01*
X102427000Y-97303982D01*
X102447161Y-97372643D01*
X102501242Y-97419505D01*
X102597853Y-97423171D01*
X102776994Y-97357260D01*
X102800064Y-97346007D01*
X102969789Y-97240773D01*
X102990126Y-97225112D01*
X103135223Y-97087900D01*
X103151995Y-97068469D01*
X103266539Y-96904883D01*
X103279062Y-96882477D01*
X103358373Y-96699200D01*
X103367323Y-96668191D01*
X103408505Y-96402172D01*
X103410000Y-96382743D01*
X103410000Y-96204000D01*
X103389839Y-96135339D01*
X103335758Y-96088477D01*
X103283000Y-96077000D01*
X102554000Y-96077000D01*
X102485339Y-96097161D01*
X102438477Y-96151242D01*
X102427000Y-96204000D01*
X102173000Y-96204000D01*
X102152839Y-96135339D01*
X102098758Y-96088477D01*
X102046000Y-96077000D01*
X101317000Y-96077000D01*
X101248339Y-96097161D01*
X101201477Y-96151242D01*
X101190000Y-96204000D01*
X101135000Y-96204000D01*
X101114839Y-96135339D01*
X101060758Y-96088477D01*
X101008000Y-96077000D01*
X100254000Y-96077000D01*
X100185339Y-96097161D01*
X100138477Y-96151242D01*
X100127000Y-96204000D01*
X99873000Y-96204000D01*
X99852839Y-96135339D01*
X99798758Y-96088477D01*
X99746000Y-96077000D01*
X98992000Y-96077000D01*
X98923339Y-96097161D01*
X98876477Y-96151242D01*
X98865000Y-96204000D01*
X98810000Y-96204000D01*
X98789839Y-96135339D01*
X98735758Y-96088477D01*
X98683000Y-96077000D01*
X97954000Y-96077000D01*
X97885339Y-96097161D01*
X97838477Y-96151242D01*
X97827000Y-96204000D01*
X97573000Y-96204000D01*
X97552839Y-96135339D01*
X97498758Y-96088477D01*
X97446000Y-96077000D01*
X96717000Y-96077000D01*
X96648339Y-96097161D01*
X96601477Y-96151242D01*
X96590000Y-96204000D01*
X85631000Y-96204000D01*
X85631000Y-95517257D01*
X96590000Y-95517257D01*
X96590000Y-95696000D01*
X96610161Y-95764661D01*
X96664242Y-95811523D01*
X96717000Y-95823000D01*
X97446000Y-95823000D01*
X97514661Y-95802839D01*
X97561523Y-95748758D01*
X97573000Y-95696000D01*
X97573000Y-94600350D01*
X97827000Y-94600350D01*
X97827000Y-95696000D01*
X97847161Y-95764661D01*
X97901242Y-95811523D01*
X97954000Y-95823000D01*
X98683000Y-95823000D01*
X98751661Y-95802839D01*
X98798523Y-95748758D01*
X98810000Y-95696000D01*
X98810000Y-95653600D01*
X98865000Y-95653600D01*
X98865000Y-95696000D01*
X98885161Y-95764661D01*
X98939242Y-95811523D01*
X98992000Y-95823000D01*
X99746000Y-95823000D01*
X99814661Y-95802839D01*
X99861523Y-95748758D01*
X99873000Y-95696000D01*
X99873000Y-94723961D01*
X99872833Y-94723392D01*
X100127000Y-94723392D01*
X100127000Y-95696000D01*
X100147161Y-95764661D01*
X100201242Y-95811523D01*
X100254000Y-95823000D01*
X101008000Y-95823000D01*
X101076661Y-95802839D01*
X101123523Y-95748758D01*
X101135000Y-95696000D01*
X101135000Y-95650260D01*
X101134394Y-95637867D01*
X101122569Y-95517257D01*
X101190000Y-95517257D01*
X101190000Y-95696000D01*
X101210161Y-95764661D01*
X101264242Y-95811523D01*
X101317000Y-95823000D01*
X102046000Y-95823000D01*
X102114661Y-95802839D01*
X102161523Y-95748758D01*
X102173000Y-95696000D01*
X102173000Y-94600350D01*
X102427000Y-94600350D01*
X102427000Y-95696000D01*
X102447161Y-95764661D01*
X102501242Y-95811523D01*
X102554000Y-95823000D01*
X103283000Y-95823000D01*
X103351661Y-95802839D01*
X103398523Y-95748758D01*
X103410000Y-95696000D01*
X103410000Y-95500096D01*
X103409350Y-95487262D01*
X103394238Y-95338487D01*
X103389076Y-95313343D01*
X103329357Y-95122780D01*
X103319246Y-95099187D01*
X103222429Y-94924525D01*
X103207780Y-94903448D01*
X103077820Y-94751820D01*
X103059231Y-94734118D01*
X102901435Y-94611720D01*
X102879667Y-94598118D01*
X102700483Y-94509949D01*
X102676425Y-94501002D01*
X102586013Y-94477451D01*
X102514487Y-94479653D01*
X102455506Y-94520176D01*
X102427000Y-94600350D01*
X102173000Y-94600350D01*
X102173000Y-94596018D01*
X102152839Y-94527357D01*
X102098758Y-94480495D01*
X102002147Y-94476829D01*
X101823006Y-94542740D01*
X101799936Y-94553993D01*
X101630211Y-94659227D01*
X101609874Y-94674888D01*
X101464777Y-94812100D01*
X101448004Y-94831531D01*
X101333460Y-94995118D01*
X101320938Y-95017524D01*
X101241627Y-95200801D01*
X101232677Y-95231810D01*
X101191495Y-95497828D01*
X101190000Y-95517257D01*
X101122569Y-95517257D01*
X101119981Y-95490871D01*
X101115166Y-95466557D01*
X101058030Y-95277316D01*
X101048586Y-95254401D01*
X100955782Y-95079860D01*
X100942065Y-95059214D01*
X100817126Y-94906024D01*
X100799661Y-94888437D01*
X100647347Y-94762432D01*
X100626798Y-94748572D01*
X100452909Y-94654551D01*
X100430060Y-94644946D01*
X100291555Y-94602072D01*
X100220002Y-94601027D01*
X100159244Y-94638833D01*
X100127000Y-94723392D01*
X99872833Y-94723392D01*
X99852839Y-94655300D01*
X99798758Y-94608438D01*
X99710143Y-94602128D01*
X99584713Y-94639044D01*
X99561731Y-94648329D01*
X99386547Y-94739913D01*
X99365808Y-94753485D01*
X99211749Y-94877351D01*
X99194039Y-94894693D01*
X99066974Y-95046124D01*
X99052971Y-95066575D01*
X98957738Y-95239803D01*
X98947974Y-95262585D01*
X98888202Y-95451011D01*
X98882953Y-95476137D01*
X98865696Y-95640325D01*
X98865000Y-95653600D01*
X98810000Y-95653600D01*
X98810000Y-95500096D01*
X98809350Y-95487262D01*
X98794238Y-95338487D01*
X98789076Y-95313343D01*
X98729357Y-95122780D01*
X98719246Y-95099187D01*
X98622429Y-94924525D01*
X98607780Y-94903448D01*
X98477820Y-94751820D01*
X98459231Y-94734118D01*
X98301435Y-94611720D01*
X98279667Y-94598118D01*
X98100483Y-94509949D01*
X98076425Y-94501002D01*
X97986013Y-94477451D01*
X97914487Y-94479653D01*
X97855506Y-94520176D01*
X97827000Y-94600350D01*
X97573000Y-94600350D01*
X97573000Y-94596018D01*
X97552839Y-94527357D01*
X97498758Y-94480495D01*
X97402147Y-94476829D01*
X97223006Y-94542740D01*
X97199936Y-94553993D01*
X97030211Y-94659227D01*
X97009874Y-94674888D01*
X96864777Y-94812100D01*
X96848004Y-94831531D01*
X96733460Y-94995118D01*
X96720938Y-95017524D01*
X96641627Y-95200801D01*
X96632677Y-95231810D01*
X96591495Y-95497828D01*
X96590000Y-95517257D01*
X85631000Y-95517257D01*
X85631000Y-92371354D01*
X98716519Y-92371354D01*
X98718019Y-92394546D01*
X98751014Y-92604054D01*
X98756716Y-92626586D01*
X98827339Y-92826573D01*
X98837050Y-92847688D01*
X98942935Y-93031456D01*
X98956332Y-93050447D01*
X99093932Y-93211842D01*
X99110566Y-93228075D01*
X99275275Y-93361692D01*
X99294589Y-93374621D01*
X99480889Y-93475984D01*
X99502234Y-93485177D01*
X99703887Y-93550893D01*
X99726552Y-93556042D01*
X99936804Y-93583908D01*
X99960026Y-93584841D01*
X100171835Y-93573926D01*
X100194839Y-93570611D01*
X100401112Y-93521280D01*
X100423126Y-93513828D01*
X100616956Y-93427732D01*
X100637245Y-93416393D01*
X100812138Y-93296416D01*
X100830019Y-93281571D01*
X100980121Y-93131732D01*
X100994998Y-93113876D01*
X101115280Y-92939191D01*
X101126654Y-92918923D01*
X101213088Y-92725245D01*
X101217551Y-92712135D01*
X101306581Y-92850548D01*
X101325251Y-92873277D01*
X101451833Y-92995302D01*
X101475231Y-93013126D01*
X101626489Y-93102759D01*
X101653361Y-93114724D01*
X101821183Y-93167155D01*
X101850085Y-93172616D01*
X102025466Y-93185034D01*
X102054850Y-93183700D01*
X102228385Y-93155438D01*
X102256674Y-93147379D01*
X102419053Y-93079953D01*
X102444729Y-93065603D01*
X102587241Y-92962631D01*
X102608928Y-92942759D01*
X102723929Y-92809763D01*
X102740462Y-92785436D01*
X102821784Y-92629552D01*
X102832277Y-92602072D01*
X102875555Y-92431661D01*
X102879458Y-92401509D01*
X102881096Y-92213857D01*
X102877720Y-92183640D01*
X102837422Y-92012499D01*
X102827410Y-91984841D01*
X102748822Y-91827561D01*
X102732716Y-91802948D01*
X102620053Y-91667966D01*
X102598717Y-91647719D01*
X102458024Y-91542275D01*
X102432601Y-91527478D01*
X102271423Y-91457229D01*
X102243280Y-91448679D01*
X102070265Y-91417393D01*
X102040909Y-91415546D01*
X101865337Y-91424901D01*
X101836343Y-91429857D01*
X101667632Y-91479351D01*
X101640556Y-91490844D01*
X101487757Y-91577823D01*
X101464051Y-91595236D01*
X101335359Y-91715033D01*
X101316295Y-91737434D01*
X101218614Y-91883624D01*
X101215030Y-91890627D01*
X101158475Y-91742911D01*
X101148214Y-91722057D01*
X101037555Y-91541124D01*
X101023666Y-91522490D01*
X100881888Y-91364752D01*
X100864834Y-91348961D01*
X100696684Y-91219702D01*
X100677040Y-91207283D01*
X100488150Y-91110831D01*
X100466570Y-91102199D01*
X100263266Y-91041785D01*
X100240476Y-91037231D01*
X100029567Y-91014877D01*
X100006327Y-91014553D01*
X99794876Y-91031009D01*
X99771967Y-91034925D01*
X99567056Y-91089639D01*
X99545244Y-91097664D01*
X99353735Y-91188804D01*
X99333751Y-91200670D01*
X99162057Y-91325184D01*
X99144570Y-91340493D01*
X98998443Y-91494210D01*
X98984038Y-91512449D01*
X98868370Y-91690222D01*
X98857531Y-91710781D01*
X98776197Y-91906656D01*
X98769285Y-91928846D01*
X98725008Y-92136264D01*
X98722256Y-92159342D01*
X98716519Y-92371354D01*
X85631000Y-92371354D01*
X85631000Y-76631000D01*
X114369000Y-76631000D01*
X114369001Y-123369000D01*
X114369001Y-123369000D01*
G37*
X114369001Y-123369000D02*
X104392312Y-123369000D01*
X104469883Y-123333731D01*
X104490797Y-123321705D01*
X104659352Y-123202140D01*
X104677613Y-123186377D01*
X104820519Y-123037096D01*
X104835471Y-123018164D01*
X104947569Y-122844553D01*
X104958671Y-122823136D01*
X105035919Y-122631461D01*
X105043811Y-122602212D01*
X105083686Y-122327198D01*
X105085000Y-122308974D01*
X105085000Y-122204000D01*
X105064839Y-122135339D01*
X105010758Y-122088477D01*
X104958000Y-122077000D01*
X102792000Y-122077000D01*
X102723339Y-122097161D01*
X102676477Y-122151242D01*
X102665000Y-122204000D01*
X102665000Y-122326629D01*
X102665574Y-122338691D01*
X102680276Y-122492783D01*
X102684838Y-122516472D01*
X102743012Y-122714771D01*
X102751971Y-122737170D01*
X102846594Y-122920891D01*
X102859627Y-122941192D01*
X102987283Y-123103706D01*
X103003919Y-123121176D01*
X103160002Y-123256618D01*
X103179642Y-123270627D01*
X103349685Y-123369000D01*
X96642312Y-123369000D01*
X96719883Y-123333731D01*
X96740797Y-123321705D01*
X96909352Y-123202140D01*
X96927613Y-123186377D01*
X97070519Y-123037096D01*
X97085471Y-123018164D01*
X97197569Y-122844553D01*
X97208671Y-122823136D01*
X97285919Y-122631461D01*
X97293811Y-122602212D01*
X97333686Y-122327198D01*
X97335000Y-122308974D01*
X97335000Y-122204000D01*
X97314839Y-122135339D01*
X97260758Y-122088477D01*
X97208000Y-122077000D01*
X95042000Y-122077000D01*
X94973339Y-122097161D01*
X94926477Y-122151242D01*
X94915000Y-122204000D01*
X94915000Y-122326629D01*
X94915574Y-122338691D01*
X94930276Y-122492783D01*
X94934838Y-122516472D01*
X94993012Y-122714771D01*
X95001971Y-122737170D01*
X95096594Y-122920891D01*
X95109627Y-122941192D01*
X95237283Y-123103706D01*
X95253919Y-123121176D01*
X95410002Y-123256618D01*
X95429642Y-123270627D01*
X95599685Y-123369000D01*
X85631000Y-123369000D01*
X85631000Y-121591026D01*
X94915000Y-121591026D01*
X94915000Y-121696000D01*
X94935161Y-121764661D01*
X94989242Y-121811523D01*
X95042000Y-121823000D01*
X95871000Y-121823000D01*
X95939661Y-121802839D01*
X95986523Y-121748758D01*
X95998000Y-121696000D01*
X95998000Y-120572199D01*
X95996619Y-120567495D01*
X96252000Y-120567495D01*
X96252000Y-121696000D01*
X96272161Y-121764661D01*
X96326242Y-121811523D01*
X96379000Y-121823000D01*
X97208000Y-121823000D01*
X97276661Y-121802839D01*
X97323523Y-121748758D01*
X97335000Y-121696000D01*
X97335000Y-121591026D01*
X102665000Y-121591026D01*
X102665000Y-121696000D01*
X102685161Y-121764661D01*
X102739242Y-121811523D01*
X102792000Y-121823000D01*
X103621000Y-121823000D01*
X103689661Y-121802839D01*
X103736523Y-121748758D01*
X103748000Y-121696000D01*
X103748000Y-120572199D01*
X103746619Y-120567495D01*
X104002000Y-120567495D01*
X104002000Y-121696000D01*
X104022161Y-121764661D01*
X104076242Y-121811523D01*
X104129000Y-121823000D01*
X104958000Y-121823000D01*
X105026661Y-121802839D01*
X105073523Y-121748758D01*
X105085000Y-121696000D01*
X105085000Y-121573371D01*
X105084426Y-121561309D01*
X105069724Y-121407217D01*
X105065162Y-121383528D01*
X105006988Y-121185228D01*
X104998029Y-121162829D01*
X104903406Y-120979109D01*
X104890373Y-120958808D01*
X104762717Y-120796294D01*
X104746081Y-120778824D01*
X104589998Y-120643382D01*
X104570358Y-120629373D01*
X104391479Y-120525888D01*
X104369544Y-120515846D01*
X104174323Y-120448054D01*
X104150887Y-120442340D01*
X104147225Y-120441809D01*
X104076381Y-120451909D01*
X104022243Y-120498706D01*
X104002000Y-120567495D01*
X103746619Y-120567495D01*
X103727839Y-120503538D01*
X103673758Y-120456676D01*
X103591244Y-120448734D01*
X103491051Y-120472881D01*
X103468242Y-120480735D01*
X103280118Y-120566269D01*
X103259204Y-120578295D01*
X103090649Y-120697860D01*
X103072388Y-120713623D01*
X102929482Y-120862904D01*
X102914530Y-120881836D01*
X102802432Y-121055447D01*
X102791330Y-121076864D01*
X102714082Y-121268539D01*
X102706190Y-121297788D01*
X102666314Y-121572802D01*
X102665000Y-121591026D01*
X97335000Y-121591026D01*
X97335000Y-121573371D01*
X97334426Y-121561309D01*
X97319724Y-121407217D01*
X97315162Y-121383528D01*
X97256988Y-121185228D01*
X97248029Y-121162829D01*
X97153406Y-120979109D01*
X97140373Y-120958808D01*
X97012717Y-120796294D01*
X96996081Y-120778824D01*
X96839998Y-120643382D01*
X96820358Y-120629373D01*
X96641479Y-120525888D01*
X96619544Y-120515846D01*
X96424323Y-120448054D01*
X96400887Y-120442340D01*
X96397225Y-120441809D01*
X96326381Y-120451909D01*
X96272243Y-120498706D01*
X96252000Y-120567495D01*
X95996619Y-120567495D01*
X95977839Y-120503538D01*
X95923758Y-120456676D01*
X95841244Y-120448734D01*
X95741051Y-120472881D01*
X95718242Y-120480735D01*
X95530118Y-120566269D01*
X95509204Y-120578295D01*
X95340649Y-120697860D01*
X95322388Y-120713623D01*
X95179482Y-120862904D01*
X95164530Y-120881836D01*
X95052432Y-121055447D01*
X95041330Y-121076864D01*
X94964082Y-121268539D01*
X94956190Y-121297788D01*
X94916314Y-121572802D01*
X94915000Y-121591026D01*
X85631000Y-121591026D01*
X85631000Y-118404000D01*
X94915000Y-118404000D01*
X94915000Y-118480831D01*
X94915503Y-118492121D01*
X94930086Y-118655517D01*
X94934084Y-118677739D01*
X94992162Y-118890037D01*
X95000033Y-118911200D01*
X95094788Y-119109859D01*
X95106281Y-119129293D01*
X95234718Y-119308033D01*
X95249472Y-119325126D01*
X95407531Y-119478295D01*
X95425078Y-119492504D01*
X95607763Y-119615264D01*
X95627550Y-119626142D01*
X95829087Y-119714610D01*
X95850486Y-119721812D01*
X95991352Y-119755631D01*
X96062823Y-119752056D01*
X96121015Y-119710408D01*
X96148000Y-119632140D01*
X96148000Y-118404000D01*
X96402000Y-118404000D01*
X96402000Y-119636340D01*
X96422161Y-119705001D01*
X96476242Y-119751863D01*
X96544249Y-119762421D01*
X96547639Y-119762011D01*
X96569733Y-119757316D01*
X96780102Y-119692598D01*
X96801007Y-119684067D01*
X96862169Y-119652499D01*
X96884850Y-119688238D01*
X96905142Y-119712767D01*
X97025596Y-119825881D01*
X97051351Y-119844593D01*
X97196150Y-119924197D01*
X97233536Y-119937656D01*
X97448959Y-119978750D01*
X97472756Y-119981000D01*
X97541138Y-119981000D01*
X97557055Y-119979999D01*
X97679853Y-119964486D01*
X97710688Y-119956569D01*
X97864323Y-119895741D01*
X97892220Y-119880404D01*
X98025900Y-119783279D01*
X98049106Y-119761487D01*
X98154433Y-119634168D01*
X98171491Y-119607290D01*
X98241847Y-119457778D01*
X98251685Y-119427500D01*
X98282647Y-119265188D01*
X98284645Y-119233417D01*
X98280441Y-119166583D01*
X101715355Y-119166583D01*
X101725730Y-119331495D01*
X101731695Y-119362767D01*
X101782757Y-119519918D01*
X101796311Y-119548722D01*
X101884850Y-119688238D01*
X101905142Y-119712767D01*
X102025596Y-119825881D01*
X102051351Y-119844593D01*
X102196150Y-119924197D01*
X102233536Y-119937656D01*
X102448959Y-119978750D01*
X102472756Y-119981000D01*
X102541138Y-119981000D01*
X102557055Y-119979999D01*
X102679853Y-119964486D01*
X102710688Y-119956569D01*
X102864323Y-119895741D01*
X102892220Y-119880404D01*
X103025900Y-119783279D01*
X103049106Y-119761487D01*
X103138822Y-119653038D01*
X103279087Y-119714610D01*
X103300486Y-119721812D01*
X103441352Y-119755631D01*
X103512823Y-119752056D01*
X103571015Y-119710408D01*
X103598000Y-119632140D01*
X103598000Y-118404000D01*
X103852000Y-118404000D01*
X103852000Y-119636340D01*
X103872161Y-119705001D01*
X103926242Y-119751863D01*
X103994249Y-119762421D01*
X103997639Y-119762011D01*
X104019733Y-119757316D01*
X104230102Y-119692598D01*
X104251007Y-119684066D01*
X104446591Y-119583118D01*
X104465655Y-119571020D01*
X104640273Y-119437032D01*
X104656895Y-119421748D01*
X104805024Y-119258955D01*
X104818674Y-119240971D01*
X104935635Y-119054521D01*
X104945886Y-119034402D01*
X105027980Y-118830185D01*
X105035783Y-118801369D01*
X105083638Y-118477298D01*
X105085000Y-118458745D01*
X105085000Y-118404000D01*
X105064839Y-118335339D01*
X105010758Y-118288477D01*
X104958000Y-118277000D01*
X103979000Y-118277000D01*
X103910339Y-118297161D01*
X103863477Y-118351242D01*
X103852000Y-118404000D01*
X103598000Y-118404000D01*
X103577839Y-118335339D01*
X103523758Y-118288477D01*
X103471000Y-118277000D01*
X102492000Y-118277000D01*
X102423339Y-118297161D01*
X102376477Y-118351242D01*
X102365000Y-118404000D01*
X102365000Y-118429848D01*
X102320147Y-118435514D01*
X102289312Y-118443431D01*
X102135677Y-118504259D01*
X102107780Y-118519596D01*
X101974100Y-118616721D01*
X101950894Y-118638513D01*
X101845567Y-118765832D01*
X101828509Y-118792710D01*
X101758153Y-118942222D01*
X101748315Y-118972500D01*
X101717353Y-119134812D01*
X101715355Y-119166583D01*
X98280441Y-119166583D01*
X98274270Y-119068505D01*
X98268305Y-119037233D01*
X98217243Y-118880082D01*
X98203689Y-118851278D01*
X98115150Y-118711762D01*
X98094858Y-118687233D01*
X97974404Y-118574119D01*
X97948649Y-118555407D01*
X97803850Y-118475803D01*
X97766464Y-118462344D01*
X97635000Y-118437266D01*
X97635000Y-118404000D01*
X97614839Y-118335339D01*
X97560758Y-118288477D01*
X97508000Y-118277000D01*
X96529000Y-118277000D01*
X96460339Y-118297161D01*
X96413477Y-118351242D01*
X96402000Y-118404000D01*
X96148000Y-118404000D01*
X96127839Y-118335339D01*
X96073758Y-118288477D01*
X96021000Y-118277000D01*
X95042000Y-118277000D01*
X94973339Y-118297161D01*
X94926477Y-118351242D01*
X94915000Y-118404000D01*
X85631000Y-118404000D01*
X85631000Y-117841255D01*
X94915000Y-117841255D01*
X94915000Y-117896000D01*
X94935161Y-117964661D01*
X94989242Y-118011523D01*
X95042000Y-118023000D01*
X96021000Y-118023000D01*
X96089661Y-118002839D01*
X96136523Y-117948758D01*
X96148000Y-117896000D01*
X96148000Y-116667860D01*
X96402000Y-116667860D01*
X96402000Y-117896000D01*
X96422161Y-117964661D01*
X96476242Y-118011523D01*
X96529000Y-118023000D01*
X97508000Y-118023000D01*
X97576661Y-118002839D01*
X97623523Y-117948758D01*
X97635000Y-117896000D01*
X97635000Y-117841255D01*
X102365000Y-117841255D01*
X102365000Y-117896000D01*
X102385161Y-117964661D01*
X102439242Y-118011523D01*
X102492000Y-118023000D01*
X103471000Y-118023000D01*
X103539661Y-118002839D01*
X103586523Y-117948758D01*
X103598000Y-117896000D01*
X103598000Y-116667860D01*
X103852000Y-116667860D01*
X103852000Y-117896000D01*
X103872161Y-117964661D01*
X103926242Y-118011523D01*
X103979000Y-118023000D01*
X104958000Y-118023000D01*
X105026661Y-118002839D01*
X105073523Y-117948758D01*
X105085000Y-117896000D01*
X105085000Y-117819169D01*
X105084497Y-117807879D01*
X105069914Y-117644483D01*
X105065916Y-117622261D01*
X105007838Y-117409963D01*
X104999968Y-117388801D01*
X104905213Y-117190141D01*
X104893719Y-117170705D01*
X104765282Y-116991966D01*
X104750528Y-116974874D01*
X104592469Y-116821705D01*
X104574922Y-116807496D01*
X104392237Y-116684736D01*
X104372450Y-116673858D01*
X104170913Y-116585390D01*
X104149514Y-116578188D01*
X104008648Y-116544369D01*
X103937177Y-116547944D01*
X103878985Y-116589592D01*
X103852000Y-116667860D01*
X103598000Y-116667860D01*
X103598000Y-116663660D01*
X103577839Y-116594999D01*
X103523758Y-116548137D01*
X103455751Y-116537579D01*
X103452361Y-116537989D01*
X103430267Y-116542684D01*
X103219898Y-116607402D01*
X103198993Y-116615934D01*
X103003409Y-116716882D01*
X102984344Y-116728980D01*
X102809727Y-116862968D01*
X102793106Y-116878252D01*
X102644977Y-117041045D01*
X102631327Y-117059028D01*
X102514365Y-117245478D01*
X102504114Y-117265598D01*
X102422020Y-117469815D01*
X102414217Y-117498631D01*
X102366362Y-117822702D01*
X102365000Y-117841255D01*
X97635000Y-117841255D01*
X97635000Y-117819169D01*
X97634497Y-117807879D01*
X97619914Y-117644483D01*
X97615916Y-117622261D01*
X97557838Y-117409963D01*
X97549968Y-117388801D01*
X97455213Y-117190141D01*
X97443719Y-117170705D01*
X97315282Y-116991966D01*
X97300528Y-116974874D01*
X97142469Y-116821705D01*
X97124922Y-116807496D01*
X96942237Y-116684736D01*
X96922450Y-116673858D01*
X96720913Y-116585390D01*
X96699514Y-116578188D01*
X96558648Y-116544369D01*
X96487177Y-116547944D01*
X96428985Y-116589592D01*
X96402000Y-116667860D01*
X96148000Y-116667860D01*
X96148000Y-116663660D01*
X96127839Y-116594999D01*
X96073758Y-116548137D01*
X96005751Y-116537579D01*
X96002361Y-116537989D01*
X95980267Y-116542684D01*
X95769898Y-116607402D01*
X95748993Y-116615934D01*
X95553409Y-116716882D01*
X95534344Y-116728980D01*
X95359727Y-116862968D01*
X95343106Y-116878252D01*
X95194977Y-117041045D01*
X95181327Y-117059028D01*
X95064365Y-117245478D01*
X95054114Y-117265598D01*
X94972020Y-117469815D01*
X94964217Y-117498631D01*
X94916362Y-117822702D01*
X94915000Y-117841255D01*
X85631000Y-117841255D01*
X85631000Y-107771354D01*
X98716519Y-107771354D01*
X98718019Y-107794546D01*
X98751014Y-108004054D01*
X98756716Y-108026586D01*
X98827339Y-108226573D01*
X98837050Y-108247688D01*
X98942935Y-108431456D01*
X98956332Y-108450447D01*
X99093932Y-108611842D01*
X99110566Y-108628075D01*
X99275275Y-108761692D01*
X99294589Y-108774621D01*
X99480889Y-108875984D01*
X99502234Y-108885177D01*
X99703887Y-108950893D01*
X99726552Y-108956042D01*
X99936804Y-108983908D01*
X99960026Y-108984841D01*
X100171835Y-108973926D01*
X100194839Y-108970611D01*
X100401112Y-108921280D01*
X100423126Y-108913828D01*
X100616956Y-108827732D01*
X100637245Y-108816393D01*
X100812138Y-108696416D01*
X100830019Y-108681571D01*
X100980121Y-108531732D01*
X100994998Y-108513876D01*
X101115280Y-108339191D01*
X101126654Y-108318923D01*
X101213088Y-108125245D01*
X101217551Y-108112135D01*
X101306581Y-108250548D01*
X101325251Y-108273277D01*
X101451833Y-108395302D01*
X101475231Y-108413126D01*
X101626489Y-108502759D01*
X101653361Y-108514724D01*
X101821183Y-108567155D01*
X101850085Y-108572616D01*
X102025466Y-108585034D01*
X102054850Y-108583700D01*
X102228385Y-108555438D01*
X102256674Y-108547379D01*
X102419053Y-108479953D01*
X102444729Y-108465603D01*
X102587241Y-108362631D01*
X102608928Y-108342759D01*
X102723929Y-108209763D01*
X102740462Y-108185436D01*
X102821784Y-108029552D01*
X102832277Y-108002072D01*
X102875555Y-107831661D01*
X102879458Y-107801509D01*
X102881096Y-107613857D01*
X102877720Y-107583640D01*
X102837422Y-107412499D01*
X102827410Y-107384841D01*
X102748822Y-107227561D01*
X102732716Y-107202948D01*
X102620053Y-107067966D01*
X102598717Y-107047719D01*
X102458024Y-106942275D01*
X102432601Y-106927478D01*
X102271423Y-106857229D01*
X102243280Y-106848679D01*
X102070265Y-106817393D01*
X102040909Y-106815546D01*
X101865337Y-106824901D01*
X101836343Y-106829857D01*
X101667632Y-106879351D01*
X101640556Y-106890844D01*
X101487757Y-106977823D01*
X101464051Y-106995236D01*
X101335359Y-107115033D01*
X101316295Y-107137434D01*
X101218614Y-107283624D01*
X101215030Y-107290627D01*
X101158475Y-107142911D01*
X101148214Y-107122057D01*
X101037555Y-106941124D01*
X101023666Y-106922490D01*
X100881888Y-106764752D01*
X100864834Y-106748961D01*
X100696684Y-106619702D01*
X100677040Y-106607283D01*
X100488150Y-106510831D01*
X100466570Y-106502199D01*
X100263266Y-106441785D01*
X100240476Y-106437231D01*
X100029567Y-106414877D01*
X100006327Y-106414553D01*
X99794876Y-106431009D01*
X99771967Y-106434925D01*
X99567056Y-106489639D01*
X99545244Y-106497664D01*
X99353735Y-106588804D01*
X99333751Y-106600670D01*
X99162057Y-106725184D01*
X99144570Y-106740493D01*
X98998443Y-106894210D01*
X98984038Y-106912449D01*
X98868370Y-107090222D01*
X98857531Y-107110781D01*
X98776197Y-107306656D01*
X98769285Y-107328846D01*
X98725008Y-107536264D01*
X98722256Y-107559342D01*
X98716519Y-107771354D01*
X85631000Y-107771354D01*
X85631000Y-104304000D01*
X96590000Y-104304000D01*
X96590000Y-104499904D01*
X96590650Y-104512739D01*
X96605763Y-104661514D01*
X96610925Y-104686657D01*
X96670644Y-104877220D01*
X96680755Y-104900813D01*
X96777572Y-105075475D01*
X96792221Y-105096552D01*
X96922181Y-105248180D01*
X96940770Y-105265882D01*
X97098565Y-105388280D01*
X97120333Y-105401882D01*
X97299517Y-105490051D01*
X97323575Y-105498998D01*
X97413987Y-105522549D01*
X97485513Y-105520347D01*
X97544494Y-105479824D01*
X97573000Y-105399650D01*
X97573000Y-104304000D01*
X97827000Y-104304000D01*
X97827000Y-105403982D01*
X97847161Y-105472643D01*
X97901242Y-105519505D01*
X97997853Y-105523171D01*
X98176994Y-105457260D01*
X98200064Y-105446007D01*
X98369789Y-105340773D01*
X98390126Y-105325112D01*
X98535223Y-105187900D01*
X98551995Y-105168469D01*
X98666539Y-105004883D01*
X98679062Y-104982477D01*
X98758373Y-104799200D01*
X98767323Y-104768191D01*
X98808505Y-104502172D01*
X98810000Y-104482743D01*
X98810000Y-104304000D01*
X98890000Y-104304000D01*
X98890000Y-104499904D01*
X98890650Y-104512739D01*
X98905763Y-104661514D01*
X98910925Y-104686657D01*
X98970644Y-104877220D01*
X98980755Y-104900813D01*
X99077572Y-105075475D01*
X99092221Y-105096552D01*
X99222181Y-105248180D01*
X99240770Y-105265882D01*
X99398565Y-105388280D01*
X99420333Y-105401882D01*
X99599517Y-105490051D01*
X99623575Y-105498998D01*
X99713987Y-105522549D01*
X99785513Y-105520347D01*
X99844494Y-105479824D01*
X99873000Y-105399650D01*
X99873000Y-104304000D01*
X100127000Y-104304000D01*
X100127000Y-105403982D01*
X100147161Y-105472643D01*
X100201242Y-105519505D01*
X100297853Y-105523171D01*
X100476994Y-105457260D01*
X100500064Y-105446007D01*
X100669789Y-105340773D01*
X100690126Y-105325112D01*
X100835223Y-105187900D01*
X100851995Y-105168469D01*
X100966539Y-105004883D01*
X100979062Y-104982477D01*
X101058373Y-104799200D01*
X101067323Y-104768191D01*
X101108505Y-104502172D01*
X101110000Y-104482743D01*
X101110000Y-104304000D01*
X101190000Y-104304000D01*
X101190000Y-104499904D01*
X101190650Y-104512739D01*
X101205763Y-104661514D01*
X101210925Y-104686657D01*
X101270644Y-104877220D01*
X101280755Y-104900813D01*
X101377572Y-105075475D01*
X101392221Y-105096552D01*
X101522181Y-105248180D01*
X101540770Y-105265882D01*
X101698565Y-105388280D01*
X101720333Y-105401882D01*
X101899517Y-105490051D01*
X101923575Y-105498998D01*
X102013987Y-105522549D01*
X102085513Y-105520347D01*
X102144494Y-105479824D01*
X102173000Y-105399650D01*
X102173000Y-104304000D01*
X102427000Y-104304000D01*
X102427000Y-105403982D01*
X102447161Y-105472643D01*
X102501242Y-105519505D01*
X102597853Y-105523171D01*
X102776994Y-105457260D01*
X102800064Y-105446007D01*
X102969789Y-105340773D01*
X102990126Y-105325112D01*
X103135223Y-105187900D01*
X103151995Y-105168469D01*
X103266539Y-105004883D01*
X103279062Y-104982477D01*
X103358373Y-104799200D01*
X103367323Y-104768191D01*
X103408505Y-104502172D01*
X103410000Y-104482743D01*
X103410000Y-104304000D01*
X103389839Y-104235339D01*
X103335758Y-104188477D01*
X103283000Y-104177000D01*
X102554000Y-104177000D01*
X102485339Y-104197161D01*
X102438477Y-104251242D01*
X102427000Y-104304000D01*
X102173000Y-104304000D01*
X102152839Y-104235339D01*
X102098758Y-104188477D01*
X102046000Y-104177000D01*
X101317000Y-104177000D01*
X101248339Y-104197161D01*
X101201477Y-104251242D01*
X101190000Y-104304000D01*
X101110000Y-104304000D01*
X101089839Y-104235339D01*
X101035758Y-104188477D01*
X100983000Y-104177000D01*
X100254000Y-104177000D01*
X100185339Y-104197161D01*
X100138477Y-104251242D01*
X100127000Y-104304000D01*
X99873000Y-104304000D01*
X99852839Y-104235339D01*
X99798758Y-104188477D01*
X99746000Y-104177000D01*
X99017000Y-104177000D01*
X98948339Y-104197161D01*
X98901477Y-104251242D01*
X98890000Y-104304000D01*
X98810000Y-104304000D01*
X98789839Y-104235339D01*
X98735758Y-104188477D01*
X98683000Y-104177000D01*
X97954000Y-104177000D01*
X97885339Y-104197161D01*
X97838477Y-104251242D01*
X97827000Y-104304000D01*
X97573000Y-104304000D01*
X97552839Y-104235339D01*
X97498758Y-104188477D01*
X97446000Y-104177000D01*
X96717000Y-104177000D01*
X96648339Y-104197161D01*
X96601477Y-104251242D01*
X96590000Y-104304000D01*
X85631000Y-104304000D01*
X85631000Y-103617257D01*
X96590000Y-103617257D01*
X96590000Y-103796000D01*
X96610161Y-103864661D01*
X96664242Y-103911523D01*
X96717000Y-103923000D01*
X97446000Y-103923000D01*
X97514661Y-103902839D01*
X97561523Y-103848758D01*
X97573000Y-103796000D01*
X97573000Y-102700350D01*
X97827000Y-102700350D01*
X97827000Y-103796000D01*
X97847161Y-103864661D01*
X97901242Y-103911523D01*
X97954000Y-103923000D01*
X98683000Y-103923000D01*
X98751661Y-103902839D01*
X98798523Y-103848758D01*
X98810000Y-103796000D01*
X98810000Y-103617257D01*
X98890000Y-103617257D01*
X98890000Y-103796000D01*
X98910161Y-103864661D01*
X98964242Y-103911523D01*
X99017000Y-103923000D01*
X99746000Y-103923000D01*
X99814661Y-103902839D01*
X99861523Y-103848758D01*
X99873000Y-103796000D01*
X99873000Y-102700350D01*
X100127000Y-102700350D01*
X100127000Y-103796000D01*
X100147161Y-103864661D01*
X100201242Y-103911523D01*
X100254000Y-103923000D01*
X100983000Y-103923000D01*
X101051661Y-103902839D01*
X101098523Y-103848758D01*
X101110000Y-103796000D01*
X101110000Y-103617257D01*
X101190000Y-103617257D01*
X101190000Y-103796000D01*
X101210161Y-103864661D01*
X101264242Y-103911523D01*
X101317000Y-103923000D01*
X102046000Y-103923000D01*
X102114661Y-103902839D01*
X102161523Y-103848758D01*
X102173000Y-103796000D01*
X102173000Y-102700350D01*
X102427000Y-102700350D01*
X102427000Y-103796000D01*
X102447161Y-103864661D01*
X102501242Y-103911523D01*
X102554000Y-103923000D01*
X103283000Y-103923000D01*
X103351661Y-103902839D01*
X103398523Y-103848758D01*
X103410000Y-103796000D01*
X103410000Y-103600096D01*
X103409350Y-103587262D01*
X103394238Y-103438487D01*
X103389076Y-103413343D01*
X103329357Y-103222780D01*
X103319246Y-103199187D01*
X103222429Y-103024525D01*
X103207780Y-103003448D01*
X103077820Y-102851820D01*
X103059231Y-102834118D01*
X102901435Y-102711720D01*
X102879667Y-102698118D01*
X102700483Y-102609949D01*
X102676425Y-102601002D01*
X102586013Y-102577451D01*
X102514487Y-102579653D01*
X102455506Y-102620176D01*
X102427000Y-102700350D01*
X102173000Y-102700350D01*
X102173000Y-102696018D01*
X102152839Y-102627357D01*
X102098758Y-102580495D01*
X102002147Y-102576829D01*
X101823006Y-102642740D01*
X101799936Y-102653993D01*
X101630211Y-102759227D01*
X101609874Y-102774888D01*
X101464777Y-102912100D01*
X101448004Y-102931531D01*
X101333460Y-103095118D01*
X101320938Y-103117524D01*
X101241627Y-103300801D01*
X101232677Y-103331810D01*
X101191495Y-103597828D01*
X101190000Y-103617257D01*
X101110000Y-103617257D01*
X101110000Y-103600096D01*
X101109350Y-103587262D01*
X101094238Y-103438487D01*
X101089076Y-103413343D01*
X101029357Y-103222780D01*
X101019246Y-103199187D01*
X100922429Y-103024525D01*
X100907780Y-103003448D01*
X100777820Y-102851820D01*
X100759231Y-102834118D01*
X100601435Y-102711720D01*
X100579667Y-102698118D01*
X100400483Y-102609949D01*
X100376425Y-102601002D01*
X100286013Y-102577451D01*
X100214487Y-102579653D01*
X100155506Y-102620176D01*
X100127000Y-102700350D01*
X99873000Y-102700350D01*
X99873000Y-102696018D01*
X99852839Y-102627357D01*
X99798758Y-102580495D01*
X99702147Y-102576829D01*
X99523006Y-102642740D01*
X99499936Y-102653993D01*
X99330211Y-102759227D01*
X99309874Y-102774888D01*
X99164777Y-102912100D01*
X99148004Y-102931531D01*
X99033460Y-103095118D01*
X99020938Y-103117524D01*
X98941627Y-103300801D01*
X98932677Y-103331810D01*
X98891495Y-103597828D01*
X98890000Y-103617257D01*
X98810000Y-103617257D01*
X98810000Y-103600096D01*
X98809350Y-103587262D01*
X98794238Y-103438487D01*
X98789076Y-103413343D01*
X98729357Y-103222780D01*
X98719246Y-103199187D01*
X98622429Y-103024525D01*
X98607780Y-103003448D01*
X98477820Y-102851820D01*
X98459231Y-102834118D01*
X98301435Y-102711720D01*
X98279667Y-102698118D01*
X98100483Y-102609949D01*
X98076425Y-102601002D01*
X97986013Y-102577451D01*
X97914487Y-102579653D01*
X97855506Y-102620176D01*
X97827000Y-102700350D01*
X97573000Y-102700350D01*
X97573000Y-102696018D01*
X97552839Y-102627357D01*
X97498758Y-102580495D01*
X97402147Y-102576829D01*
X97223006Y-102642740D01*
X97199936Y-102653993D01*
X97030211Y-102759227D01*
X97009874Y-102774888D01*
X96864777Y-102912100D01*
X96848004Y-102931531D01*
X96733460Y-103095118D01*
X96720938Y-103117524D01*
X96641627Y-103300801D01*
X96632677Y-103331810D01*
X96591495Y-103597828D01*
X96590000Y-103617257D01*
X85631000Y-103617257D01*
X85631000Y-101160426D01*
X99365001Y-101160426D01*
X99365001Y-101339574D01*
X99372660Y-101383010D01*
X99433932Y-101551354D01*
X99455985Y-101589552D01*
X99571139Y-101726787D01*
X99604927Y-101755138D01*
X99760074Y-101844712D01*
X99801520Y-101859798D01*
X99977946Y-101890907D01*
X100022054Y-101890907D01*
X100198480Y-101859798D01*
X100239926Y-101844712D01*
X100395073Y-101755138D01*
X100428861Y-101726787D01*
X100544015Y-101589552D01*
X100566068Y-101551354D01*
X100617361Y-101410426D01*
X105865001Y-101410426D01*
X105865001Y-101589574D01*
X105872660Y-101633010D01*
X105933932Y-101801354D01*
X105955985Y-101839552D01*
X106071139Y-101976787D01*
X106104927Y-102005138D01*
X106260074Y-102094712D01*
X106301520Y-102109798D01*
X106477946Y-102140907D01*
X106522054Y-102140907D01*
X106698480Y-102109798D01*
X106739926Y-102094712D01*
X106895073Y-102005138D01*
X106928861Y-101976787D01*
X107044015Y-101839552D01*
X107066068Y-101801354D01*
X107127340Y-101633010D01*
X107134999Y-101589574D01*
X107134999Y-101410426D01*
X107127340Y-101366990D01*
X107066068Y-101198646D01*
X107044015Y-101160448D01*
X106928861Y-101023213D01*
X106895073Y-100994862D01*
X106739926Y-100905288D01*
X106698480Y-100890202D01*
X106522054Y-100859093D01*
X106477946Y-100859093D01*
X106301520Y-100890202D01*
X106260074Y-100905288D01*
X106104927Y-100994862D01*
X106071139Y-101023213D01*
X105955985Y-101160448D01*
X105933932Y-101198646D01*
X105872660Y-101366990D01*
X105865001Y-101410426D01*
X100617361Y-101410426D01*
X100627340Y-101383010D01*
X100634999Y-101339574D01*
X100634999Y-101160426D01*
X100627340Y-101116990D01*
X100566068Y-100948646D01*
X100544015Y-100910448D01*
X100428861Y-100773213D01*
X100395073Y-100744862D01*
X100239926Y-100655288D01*
X100198480Y-100640202D01*
X100022054Y-100609093D01*
X99977946Y-100609093D01*
X99801520Y-100640202D01*
X99760074Y-100655288D01*
X99604927Y-100744862D01*
X99571139Y-100773213D01*
X99455985Y-100910448D01*
X99433932Y-100948646D01*
X99372660Y-101116990D01*
X99365001Y-101160426D01*
X85631000Y-101160426D01*
X85631000Y-99660426D01*
X92115001Y-99660426D01*
X92115001Y-99839574D01*
X92122660Y-99883010D01*
X92183932Y-100051354D01*
X92205985Y-100089552D01*
X92321139Y-100226787D01*
X92354927Y-100255138D01*
X92510074Y-100344712D01*
X92551520Y-100359798D01*
X92727946Y-100390907D01*
X92772054Y-100390907D01*
X92871536Y-100373365D01*
X92865001Y-100410426D01*
X92865001Y-100589574D01*
X92872660Y-100633010D01*
X92933932Y-100801354D01*
X92955985Y-100839552D01*
X93071139Y-100976787D01*
X93104927Y-101005138D01*
X93260074Y-101094712D01*
X93301520Y-101109798D01*
X93477946Y-101140907D01*
X93522054Y-101140907D01*
X93698480Y-101109798D01*
X93739926Y-101094712D01*
X93895073Y-101005138D01*
X93928861Y-100976787D01*
X94044015Y-100839552D01*
X94066068Y-100801354D01*
X94127340Y-100633010D01*
X94134999Y-100589574D01*
X94134999Y-100410426D01*
X94127340Y-100366990D01*
X94066068Y-100198646D01*
X94044015Y-100160448D01*
X93928861Y-100023213D01*
X93895073Y-99994862D01*
X93739926Y-99905288D01*
X93698480Y-99890202D01*
X93522054Y-99859093D01*
X93477946Y-99859093D01*
X93378464Y-99876635D01*
X93384999Y-99839574D01*
X93384999Y-99660426D01*
X93377340Y-99616990D01*
X93316068Y-99448646D01*
X93294015Y-99410448D01*
X93293997Y-99410426D01*
X107365001Y-99410426D01*
X107365001Y-99589574D01*
X107372660Y-99633010D01*
X107433932Y-99801354D01*
X107455985Y-99839552D01*
X107571139Y-99976787D01*
X107598804Y-100000000D01*
X107571139Y-100023213D01*
X107455985Y-100160448D01*
X107433932Y-100198646D01*
X107372660Y-100366990D01*
X107365001Y-100410426D01*
X107365001Y-100589574D01*
X107372660Y-100633010D01*
X107433932Y-100801354D01*
X107455985Y-100839552D01*
X107571139Y-100976787D01*
X107604927Y-101005138D01*
X107760074Y-101094712D01*
X107801520Y-101109798D01*
X107977946Y-101140907D01*
X108022054Y-101140907D01*
X108198480Y-101109798D01*
X108239926Y-101094712D01*
X108395073Y-101005138D01*
X108428861Y-100976787D01*
X108544015Y-100839552D01*
X108566068Y-100801354D01*
X108627340Y-100633010D01*
X108634999Y-100589574D01*
X108634999Y-100410426D01*
X108627340Y-100366990D01*
X108566068Y-100198646D01*
X108544015Y-100160448D01*
X108428861Y-100023213D01*
X108401196Y-100000000D01*
X108428861Y-99976787D01*
X108544015Y-99839552D01*
X108566068Y-99801354D01*
X108627340Y-99633010D01*
X108634999Y-99589574D01*
X108634999Y-99410426D01*
X108627340Y-99366990D01*
X108566068Y-99198646D01*
X108544015Y-99160448D01*
X108428861Y-99023213D01*
X108395073Y-98994862D01*
X108239926Y-98905288D01*
X108198480Y-98890202D01*
X108022054Y-98859093D01*
X107977946Y-98859093D01*
X107801520Y-98890202D01*
X107760074Y-98905288D01*
X107604927Y-98994862D01*
X107571139Y-99023213D01*
X107455985Y-99160448D01*
X107433932Y-99198646D01*
X107372660Y-99366990D01*
X107365001Y-99410426D01*
X93293997Y-99410426D01*
X93178861Y-99273213D01*
X93145073Y-99244862D01*
X92989926Y-99155288D01*
X92948480Y-99140202D01*
X92772054Y-99109093D01*
X92727946Y-99109093D01*
X92551520Y-99140202D01*
X92510074Y-99155288D01*
X92354927Y-99244862D01*
X92321139Y-99273213D01*
X92205985Y-99410448D01*
X92183932Y-99448646D01*
X92122660Y-99616990D01*
X92115001Y-99660426D01*
X85631000Y-99660426D01*
X85631000Y-98410426D01*
X91365001Y-98410426D01*
X91365001Y-98589574D01*
X91372660Y-98633010D01*
X91433932Y-98801354D01*
X91455985Y-98839552D01*
X91571139Y-98976787D01*
X91604927Y-99005138D01*
X91760074Y-99094712D01*
X91801520Y-99109798D01*
X91977946Y-99140907D01*
X92022054Y-99140907D01*
X92198480Y-99109798D01*
X92239926Y-99094712D01*
X92395073Y-99005138D01*
X92428861Y-98976787D01*
X92544015Y-98839552D01*
X92566068Y-98801354D01*
X92627340Y-98633010D01*
X92634999Y-98589574D01*
X92634999Y-98410426D01*
X92865001Y-98410426D01*
X92865001Y-98589574D01*
X92872660Y-98633010D01*
X92933932Y-98801354D01*
X92955985Y-98839552D01*
X93071139Y-98976787D01*
X93104927Y-99005138D01*
X93260074Y-99094712D01*
X93301520Y-99109798D01*
X93477946Y-99140907D01*
X93522054Y-99140907D01*
X93698480Y-99109798D01*
X93739926Y-99094712D01*
X93895073Y-99005138D01*
X93928861Y-98976787D01*
X94044015Y-98839552D01*
X94066068Y-98801354D01*
X94117361Y-98660426D01*
X99365001Y-98660426D01*
X99365001Y-98839574D01*
X99372660Y-98883010D01*
X99433932Y-99051354D01*
X99455985Y-99089552D01*
X99571139Y-99226787D01*
X99604927Y-99255138D01*
X99760074Y-99344712D01*
X99801520Y-99359798D01*
X99977946Y-99390907D01*
X100022054Y-99390907D01*
X100198480Y-99359798D01*
X100239926Y-99344712D01*
X100395073Y-99255138D01*
X100428861Y-99226787D01*
X100544015Y-99089552D01*
X100566068Y-99051354D01*
X100627340Y-98883010D01*
X100634999Y-98839574D01*
X100634999Y-98660426D01*
X100627340Y-98616990D01*
X100566068Y-98448646D01*
X100544015Y-98410448D01*
X100543997Y-98410426D01*
X105865001Y-98410426D01*
X105865001Y-98589574D01*
X105872660Y-98633010D01*
X105933932Y-98801354D01*
X105955985Y-98839552D01*
X106071139Y-98976787D01*
X106104927Y-99005138D01*
X106260074Y-99094712D01*
X106301520Y-99109798D01*
X106477946Y-99140907D01*
X106522054Y-99140907D01*
X106698480Y-99109798D01*
X106739926Y-99094712D01*
X106895073Y-99005138D01*
X106928861Y-98976787D01*
X107044015Y-98839552D01*
X107066068Y-98801354D01*
X107127340Y-98633010D01*
X107134999Y-98589574D01*
X107134999Y-98410426D01*
X107127340Y-98366990D01*
X107066068Y-98198646D01*
X107044015Y-98160448D01*
X106928861Y-98023213D01*
X106895073Y-97994862D01*
X106739926Y-97905288D01*
X106698480Y-97890202D01*
X106522054Y-97859093D01*
X106477946Y-97859093D01*
X106301520Y-97890202D01*
X106260074Y-97905288D01*
X106104927Y-97994862D01*
X106071139Y-98023213D01*
X105955985Y-98160448D01*
X105933932Y-98198646D01*
X105872660Y-98366990D01*
X105865001Y-98410426D01*
X100543997Y-98410426D01*
X100428861Y-98273213D01*
X100395073Y-98244862D01*
X100239926Y-98155288D01*
X100198480Y-98140202D01*
X100022054Y-98109093D01*
X99977946Y-98109093D01*
X99801520Y-98140202D01*
X99760074Y-98155288D01*
X99604927Y-98244862D01*
X99571139Y-98273213D01*
X99455985Y-98410448D01*
X99433932Y-98448646D01*
X99372660Y-98616990D01*
X99365001Y-98660426D01*
X94117361Y-98660426D01*
X94127340Y-98633010D01*
X94134999Y-98589574D01*
X94134999Y-98410426D01*
X94127340Y-98366990D01*
X94066068Y-98198646D01*
X94044015Y-98160448D01*
X93928861Y-98023213D01*
X93895073Y-97994862D01*
X93739926Y-97905288D01*
X93698480Y-97890202D01*
X93522054Y-97859093D01*
X93477946Y-97859093D01*
X93301520Y-97890202D01*
X93260074Y-97905288D01*
X93104927Y-97994862D01*
X93071139Y-98023213D01*
X92955985Y-98160448D01*
X92933932Y-98198646D01*
X92872660Y-98366990D01*
X92865001Y-98410426D01*
X92634999Y-98410426D01*
X92627340Y-98366990D01*
X92566068Y-98198646D01*
X92544015Y-98160448D01*
X92428861Y-98023213D01*
X92395073Y-97994862D01*
X92239926Y-97905288D01*
X92198480Y-97890202D01*
X92022054Y-97859093D01*
X91977946Y-97859093D01*
X91801520Y-97890202D01*
X91760074Y-97905288D01*
X91604927Y-97994862D01*
X91571139Y-98023213D01*
X91455985Y-98160448D01*
X91433932Y-98198646D01*
X91372660Y-98366990D01*
X91365001Y-98410426D01*
X85631000Y-98410426D01*
X85631000Y-96204000D01*
X96590000Y-96204000D01*
X96590000Y-96399904D01*
X96590650Y-96412739D01*
X96605763Y-96561514D01*
X96610925Y-96586657D01*
X96670644Y-96777220D01*
X96680755Y-96800813D01*
X96777572Y-96975475D01*
X96792221Y-96996552D01*
X96922181Y-97148180D01*
X96940770Y-97165882D01*
X97098565Y-97288280D01*
X97120333Y-97301882D01*
X97299517Y-97390051D01*
X97323575Y-97398998D01*
X97413987Y-97422549D01*
X97485513Y-97420347D01*
X97544494Y-97379824D01*
X97573000Y-97299650D01*
X97573000Y-96204000D01*
X97827000Y-96204000D01*
X97827000Y-97303982D01*
X97847161Y-97372643D01*
X97901242Y-97419505D01*
X97997853Y-97423171D01*
X98176994Y-97357260D01*
X98200064Y-97346007D01*
X98369789Y-97240773D01*
X98390126Y-97225112D01*
X98535223Y-97087900D01*
X98551995Y-97068469D01*
X98666539Y-96904883D01*
X98679062Y-96882477D01*
X98758373Y-96699200D01*
X98767323Y-96668191D01*
X98808505Y-96402172D01*
X98810000Y-96382743D01*
X98810000Y-96204000D01*
X98865000Y-96204000D01*
X98865000Y-96249740D01*
X98865606Y-96262133D01*
X98880019Y-96409129D01*
X98884834Y-96433443D01*
X98941970Y-96622684D01*
X98951415Y-96645600D01*
X99044220Y-96820141D01*
X99057936Y-96840786D01*
X99182875Y-96993976D01*
X99200340Y-97011563D01*
X99352654Y-97137568D01*
X99373203Y-97151428D01*
X99547091Y-97245449D01*
X99569940Y-97255054D01*
X99708445Y-97297928D01*
X99779998Y-97298973D01*
X99840756Y-97261167D01*
X99873000Y-97176608D01*
X99873000Y-96204000D01*
X100127000Y-96204000D01*
X100127000Y-97176039D01*
X100147161Y-97244700D01*
X100201242Y-97291562D01*
X100289857Y-97297872D01*
X100415287Y-97260956D01*
X100438269Y-97251671D01*
X100613453Y-97160087D01*
X100634192Y-97146515D01*
X100788251Y-97022649D01*
X100805961Y-97005307D01*
X100933026Y-96853876D01*
X100947029Y-96833425D01*
X101042262Y-96660198D01*
X101052026Y-96637416D01*
X101111798Y-96448989D01*
X101117047Y-96423863D01*
X101134304Y-96259675D01*
X101135000Y-96246400D01*
X101135000Y-96204000D01*
X101190000Y-96204000D01*
X101190000Y-96399904D01*
X101190650Y-96412739D01*
X101205763Y-96561514D01*
X101210925Y-96586657D01*
X101270644Y-96777220D01*
X101280755Y-96800813D01*
X101377572Y-96975475D01*
X101392221Y-96996552D01*
X101522181Y-97148180D01*
X101540770Y-97165882D01*
X101698565Y-97288280D01*
X101720333Y-97301882D01*
X101899517Y-97390051D01*
X101923575Y-97398998D01*
X102013987Y-97422549D01*
X102085513Y-97420347D01*
X102144494Y-97379824D01*
X102173000Y-97299650D01*
X102173000Y-96204000D01*
X102427000Y-96204000D01*
X102427000Y-97303982D01*
X102447161Y-97372643D01*
X102501242Y-97419505D01*
X102597853Y-97423171D01*
X102776994Y-97357260D01*
X102800064Y-97346007D01*
X102969789Y-97240773D01*
X102990126Y-97225112D01*
X103135223Y-97087900D01*
X103151995Y-97068469D01*
X103266539Y-96904883D01*
X103279062Y-96882477D01*
X103358373Y-96699200D01*
X103367323Y-96668191D01*
X103408505Y-96402172D01*
X103410000Y-96382743D01*
X103410000Y-96204000D01*
X103389839Y-96135339D01*
X103335758Y-96088477D01*
X103283000Y-96077000D01*
X102554000Y-96077000D01*
X102485339Y-96097161D01*
X102438477Y-96151242D01*
X102427000Y-96204000D01*
X102173000Y-96204000D01*
X102152839Y-96135339D01*
X102098758Y-96088477D01*
X102046000Y-96077000D01*
X101317000Y-96077000D01*
X101248339Y-96097161D01*
X101201477Y-96151242D01*
X101190000Y-96204000D01*
X101135000Y-96204000D01*
X101114839Y-96135339D01*
X101060758Y-96088477D01*
X101008000Y-96077000D01*
X100254000Y-96077000D01*
X100185339Y-96097161D01*
X100138477Y-96151242D01*
X100127000Y-96204000D01*
X99873000Y-96204000D01*
X99852839Y-96135339D01*
X99798758Y-96088477D01*
X99746000Y-96077000D01*
X98992000Y-96077000D01*
X98923339Y-96097161D01*
X98876477Y-96151242D01*
X98865000Y-96204000D01*
X98810000Y-96204000D01*
X98789839Y-96135339D01*
X98735758Y-96088477D01*
X98683000Y-96077000D01*
X97954000Y-96077000D01*
X97885339Y-96097161D01*
X97838477Y-96151242D01*
X97827000Y-96204000D01*
X97573000Y-96204000D01*
X97552839Y-96135339D01*
X97498758Y-96088477D01*
X97446000Y-96077000D01*
X96717000Y-96077000D01*
X96648339Y-96097161D01*
X96601477Y-96151242D01*
X96590000Y-96204000D01*
X85631000Y-96204000D01*
X85631000Y-95517257D01*
X96590000Y-95517257D01*
X96590000Y-95696000D01*
X96610161Y-95764661D01*
X96664242Y-95811523D01*
X96717000Y-95823000D01*
X97446000Y-95823000D01*
X97514661Y-95802839D01*
X97561523Y-95748758D01*
X97573000Y-95696000D01*
X97573000Y-94600350D01*
X97827000Y-94600350D01*
X97827000Y-95696000D01*
X97847161Y-95764661D01*
X97901242Y-95811523D01*
X97954000Y-95823000D01*
X98683000Y-95823000D01*
X98751661Y-95802839D01*
X98798523Y-95748758D01*
X98810000Y-95696000D01*
X98810000Y-95653600D01*
X98865000Y-95653600D01*
X98865000Y-95696000D01*
X98885161Y-95764661D01*
X98939242Y-95811523D01*
X98992000Y-95823000D01*
X99746000Y-95823000D01*
X99814661Y-95802839D01*
X99861523Y-95748758D01*
X99873000Y-95696000D01*
X99873000Y-94723961D01*
X99872833Y-94723392D01*
X100127000Y-94723392D01*
X100127000Y-95696000D01*
X100147161Y-95764661D01*
X100201242Y-95811523D01*
X100254000Y-95823000D01*
X101008000Y-95823000D01*
X101076661Y-95802839D01*
X101123523Y-95748758D01*
X101135000Y-95696000D01*
X101135000Y-95650260D01*
X101134394Y-95637867D01*
X101122569Y-95517257D01*
X101190000Y-95517257D01*
X101190000Y-95696000D01*
X101210161Y-95764661D01*
X101264242Y-95811523D01*
X101317000Y-95823000D01*
X102046000Y-95823000D01*
X102114661Y-95802839D01*
X102161523Y-95748758D01*
X102173000Y-95696000D01*
X102173000Y-94600350D01*
X102427000Y-94600350D01*
X102427000Y-95696000D01*
X102447161Y-95764661D01*
X102501242Y-95811523D01*
X102554000Y-95823000D01*
X103283000Y-95823000D01*
X103351661Y-95802839D01*
X103398523Y-95748758D01*
X103410000Y-95696000D01*
X103410000Y-95500096D01*
X103409350Y-95487262D01*
X103394238Y-95338487D01*
X103389076Y-95313343D01*
X103329357Y-95122780D01*
X103319246Y-95099187D01*
X103222429Y-94924525D01*
X103207780Y-94903448D01*
X103077820Y-94751820D01*
X103059231Y-94734118D01*
X102901435Y-94611720D01*
X102879667Y-94598118D01*
X102700483Y-94509949D01*
X102676425Y-94501002D01*
X102586013Y-94477451D01*
X102514487Y-94479653D01*
X102455506Y-94520176D01*
X102427000Y-94600350D01*
X102173000Y-94600350D01*
X102173000Y-94596018D01*
X102152839Y-94527357D01*
X102098758Y-94480495D01*
X102002147Y-94476829D01*
X101823006Y-94542740D01*
X101799936Y-94553993D01*
X101630211Y-94659227D01*
X101609874Y-94674888D01*
X101464777Y-94812100D01*
X101448004Y-94831531D01*
X101333460Y-94995118D01*
X101320938Y-95017524D01*
X101241627Y-95200801D01*
X101232677Y-95231810D01*
X101191495Y-95497828D01*
X101190000Y-95517257D01*
X101122569Y-95517257D01*
X101119981Y-95490871D01*
X101115166Y-95466557D01*
X101058030Y-95277316D01*
X101048586Y-95254401D01*
X100955782Y-95079860D01*
X100942065Y-95059214D01*
X100817126Y-94906024D01*
X100799661Y-94888437D01*
X100647347Y-94762432D01*
X100626798Y-94748572D01*
X100452909Y-94654551D01*
X100430060Y-94644946D01*
X100291555Y-94602072D01*
X100220002Y-94601027D01*
X100159244Y-94638833D01*
X100127000Y-94723392D01*
X99872833Y-94723392D01*
X99852839Y-94655300D01*
X99798758Y-94608438D01*
X99710143Y-94602128D01*
X99584713Y-94639044D01*
X99561731Y-94648329D01*
X99386547Y-94739913D01*
X99365808Y-94753485D01*
X99211749Y-94877351D01*
X99194039Y-94894693D01*
X99066974Y-95046124D01*
X99052971Y-95066575D01*
X98957738Y-95239803D01*
X98947974Y-95262585D01*
X98888202Y-95451011D01*
X98882953Y-95476137D01*
X98865696Y-95640325D01*
X98865000Y-95653600D01*
X98810000Y-95653600D01*
X98810000Y-95500096D01*
X98809350Y-95487262D01*
X98794238Y-95338487D01*
X98789076Y-95313343D01*
X98729357Y-95122780D01*
X98719246Y-95099187D01*
X98622429Y-94924525D01*
X98607780Y-94903448D01*
X98477820Y-94751820D01*
X98459231Y-94734118D01*
X98301435Y-94611720D01*
X98279667Y-94598118D01*
X98100483Y-94509949D01*
X98076425Y-94501002D01*
X97986013Y-94477451D01*
X97914487Y-94479653D01*
X97855506Y-94520176D01*
X97827000Y-94600350D01*
X97573000Y-94600350D01*
X97573000Y-94596018D01*
X97552839Y-94527357D01*
X97498758Y-94480495D01*
X97402147Y-94476829D01*
X97223006Y-94542740D01*
X97199936Y-94553993D01*
X97030211Y-94659227D01*
X97009874Y-94674888D01*
X96864777Y-94812100D01*
X96848004Y-94831531D01*
X96733460Y-94995118D01*
X96720938Y-95017524D01*
X96641627Y-95200801D01*
X96632677Y-95231810D01*
X96591495Y-95497828D01*
X96590000Y-95517257D01*
X85631000Y-95517257D01*
X85631000Y-92371354D01*
X98716519Y-92371354D01*
X98718019Y-92394546D01*
X98751014Y-92604054D01*
X98756716Y-92626586D01*
X98827339Y-92826573D01*
X98837050Y-92847688D01*
X98942935Y-93031456D01*
X98956332Y-93050447D01*
X99093932Y-93211842D01*
X99110566Y-93228075D01*
X99275275Y-93361692D01*
X99294589Y-93374621D01*
X99480889Y-93475984D01*
X99502234Y-93485177D01*
X99703887Y-93550893D01*
X99726552Y-93556042D01*
X99936804Y-93583908D01*
X99960026Y-93584841D01*
X100171835Y-93573926D01*
X100194839Y-93570611D01*
X100401112Y-93521280D01*
X100423126Y-93513828D01*
X100616956Y-93427732D01*
X100637245Y-93416393D01*
X100812138Y-93296416D01*
X100830019Y-93281571D01*
X100980121Y-93131732D01*
X100994998Y-93113876D01*
X101115280Y-92939191D01*
X101126654Y-92918923D01*
X101213088Y-92725245D01*
X101217551Y-92712135D01*
X101306581Y-92850548D01*
X101325251Y-92873277D01*
X101451833Y-92995302D01*
X101475231Y-93013126D01*
X101626489Y-93102759D01*
X101653361Y-93114724D01*
X101821183Y-93167155D01*
X101850085Y-93172616D01*
X102025466Y-93185034D01*
X102054850Y-93183700D01*
X102228385Y-93155438D01*
X102256674Y-93147379D01*
X102419053Y-93079953D01*
X102444729Y-93065603D01*
X102587241Y-92962631D01*
X102608928Y-92942759D01*
X102723929Y-92809763D01*
X102740462Y-92785436D01*
X102821784Y-92629552D01*
X102832277Y-92602072D01*
X102875555Y-92431661D01*
X102879458Y-92401509D01*
X102881096Y-92213857D01*
X102877720Y-92183640D01*
X102837422Y-92012499D01*
X102827410Y-91984841D01*
X102748822Y-91827561D01*
X102732716Y-91802948D01*
X102620053Y-91667966D01*
X102598717Y-91647719D01*
X102458024Y-91542275D01*
X102432601Y-91527478D01*
X102271423Y-91457229D01*
X102243280Y-91448679D01*
X102070265Y-91417393D01*
X102040909Y-91415546D01*
X101865337Y-91424901D01*
X101836343Y-91429857D01*
X101667632Y-91479351D01*
X101640556Y-91490844D01*
X101487757Y-91577823D01*
X101464051Y-91595236D01*
X101335359Y-91715033D01*
X101316295Y-91737434D01*
X101218614Y-91883624D01*
X101215030Y-91890627D01*
X101158475Y-91742911D01*
X101148214Y-91722057D01*
X101037555Y-91541124D01*
X101023666Y-91522490D01*
X100881888Y-91364752D01*
X100864834Y-91348961D01*
X100696684Y-91219702D01*
X100677040Y-91207283D01*
X100488150Y-91110831D01*
X100466570Y-91102199D01*
X100263266Y-91041785D01*
X100240476Y-91037231D01*
X100029567Y-91014877D01*
X100006327Y-91014553D01*
X99794876Y-91031009D01*
X99771967Y-91034925D01*
X99567056Y-91089639D01*
X99545244Y-91097664D01*
X99353735Y-91188804D01*
X99333751Y-91200670D01*
X99162057Y-91325184D01*
X99144570Y-91340493D01*
X98998443Y-91494210D01*
X98984038Y-91512449D01*
X98868370Y-91690222D01*
X98857531Y-91710781D01*
X98776197Y-91906656D01*
X98769285Y-91928846D01*
X98725008Y-92136264D01*
X98722256Y-92159342D01*
X98716519Y-92371354D01*
X85631000Y-92371354D01*
X85631000Y-76631000D01*
X114369000Y-76631000D01*
X114369001Y-123369000D01*
M02*
